<?xml version="1.0" encoding="UTF-8"?>
<svg width="9px" height="5px" viewBox="0 0 9 5" version="1.1" xmlns="http://www.w3.org/2000/svg" xmlns:xlink="http://www.w3.org/1999/xlink">
    <!-- Generator: Sketch 52.6 (67491) - http://www.bohemiancoding.com/sketch -->
    <title>arrow</title>
    <desc>Created with Sketch.</desc>
    <defs>
        <path d="M8.34522541,0.159806671 C8.12689207,-0.0554711065 7.77522541,-0.0529711065 7.55966985,0.165640005 L4.25522541,3.51925112 L0.951336516,0.165640005 C0.735503183,-0.0529711065 0.384114294,-0.0554711065 0.165780961,0.159806671 C-0.0528301504,0.375084449 -0.0556079282,0.727028894 0.15966985,0.945640005 L3.85966985,4.70091778 C3.86050318,4.70202889 3.86189207,4.70286223 3.86300318,4.70397334 C3.86411429,4.70480667 3.86466985,4.70591778 3.86550318,4.70675112 C3.87883652,4.72008445 3.89411429,4.72980667 3.90828096,4.74147334 C3.92216985,4.75258445 3.93522541,4.76536223 3.94994763,4.77480667 C3.96800318,4.78675112 3.98744763,4.79536223 4.00633652,4.80480667 C4.01994763,4.81175112 4.03244763,4.82008445 4.04633652,4.82564 C4.06939207,4.83508445 4.09355874,4.84091778 4.11744763,4.84702889 C4.12800318,4.84980667 4.13828096,4.85425112 4.14911429,4.85619556 C4.18439207,4.86314 4.21966985,4.86647334 4.25522541,4.86647334 C4.29078096,4.86647334 4.32633652,4.86314 4.36161429,4.85619556 C4.37216985,4.85425112 4.38244763,4.84980667 4.39300318,4.84702889 C4.41689207,4.84091778 4.44105874,4.83508445 4.46411429,4.82564 C4.47828096,4.82008445 4.49078096,4.81175112 4.50439207,4.80480667 C4.52328096,4.79536223 4.54272541,4.78675112 4.56078096,4.77480667 C4.57550318,4.76536223 4.58855874,4.75258445 4.60216985,4.74147334 C4.61661429,4.72980667 4.63189207,4.72008445 4.64522541,4.70675112 C4.64605874,4.70591778 4.64661429,4.70480667 4.64744763,4.70397334 C4.64855874,4.70286223 4.64994763,4.70202889 4.65105874,4.70091778 L8.35105874,0.945640005 C8.56661429,0.727028894 8.56383652,0.375084449 8.34522541,0.159806671" id="path-1"></path>
    </defs>
    <g id="Symbols" stroke="none" stroke-width="1" fill="none" fill-rule="evenodd">
        <g id="Navigation/Mobile---Active-Logged-In" transform="translate(-43.000000, -765.000000)">
            <g id="Main-Nav---Active">
                <g id="arrow" transform="translate(43.000000, 765.000000)">
                    <mask id="mask-2" fill="white">
                        <use xlink:href="#path-1"></use>
                    </mask>
                    <use id="Fill-1" fill="#808E9F" xlink:href="#path-1"></use>
                    <g id="color/black" mask="url(#mask-2)" fill="#000000" fill-rule="nonzero">
                        <g transform="translate(-1.000000, -2.000000)">
                            <rect x="0" y="0" width="10" height="7"></rect>
                        </g>
                    </g>
                </g>
            </g>
        </g>
    </g>
</svg>