<?xml version="1.0" encoding="UTF-8"?>
<svg width="18px" height="20px" viewBox="0 0 18 20" version="1.1" xmlns="http://www.w3.org/2000/svg" xmlns:xlink="http://www.w3.org/1999/xlink">
    <!-- Generator: Sketch 52.6 (67491) - http://www.bohemiancoding.com/sketch -->
    <title>Icon/Account Small</title>
    <desc>Created with Sketch.</desc>
    <defs>
        <path d="M8.88888889,1.26147542 C11.3125276,1.26147542 13.2842433,3.23319108 13.2842433,5.65656566 C13.2842433,7.20118631 12.4900103,8.60555499 11.1595975,9.41246609 C10.4707516,9.83058074 9.68576312,10.0513918 8.88888889,10.0513918 C8.09201466,10.0513918 7.30702618,9.83058074 6.61844444,9.41246609 C5.2880316,8.60555499 4.49379865,7.20118631 4.49379865,5.65656566 C4.49379865,3.23319108 6.46551431,1.26147542 8.88888889,1.26147542 Z M8.88888889,0 C12.0079767,0 14.5454545,2.53747788 14.5454545,5.65656566 C14.5454545,7.23473057 13.8782672,8.75320255 12.714255,9.8226569 C12.1817729,10.3120861 11.5689959,10.6900533 10.8936206,10.9462575 C10.2512612,11.1897835 9.57667825,11.3131313 8.88888889,11.3131313 C8.20109953,11.3131313 7.52678069,11.1897835 6.88442135,10.9462575 C6.20931014,10.6903174 5.59679726,10.3123502 5.06378692,9.82239277 C3.89977474,8.75320255 3.23232323,7.23473057 3.23232323,5.65656566 C3.23232323,2.53747788 5.76980111,0 8.88888889,0 Z M0.0280784314,19.3939394 C0.0110849673,18.966811 0.000104575163,17.9174603 0.000104575163,17.6978932 C0.000104575163,15.2113131 1.35278431,12.8639538 3.62755556,11.3900144 C3.69840523,11.4528139 3.77030065,11.5146898 3.84481046,11.5751804 C4.11252288,11.7924387 4.40036601,11.9933045 4.70284967,12.1740837 C2.59226144,13.412987 1.34101961,15.4585859 1.34101961,17.6978932 C1.34101961,17.7766234 1.34520261,18.2095238 1.34520261,18.2095238 L16.3757908,18.2095238 C16.3757908,18.2095238 16.3799739,17.7766234 16.3799739,17.6978932 C16.3799739,15.4588167 15.1289935,13.412987 13.0184052,12.1743146 C13.3211503,11.9933045 13.608732,11.7924387 13.8767059,11.5754113 C13.9506928,11.5151515 14.0228497,11.4530447 14.0936993,11.3902453 C16.3682092,12.8641847 17.7211503,15.2113131 17.7211503,17.6978932 C17.7211503,17.9174603 17.7101699,18.966811 17.692915,19.3939394 L0.0280784314,19.3939394 Z" id="path-1"></path>
    </defs>
    <g id="Symbols" stroke="none" stroke-width="1" fill="none" fill-rule="evenodd">
        <g id="Navigation/Mobile---Active" transform="translate(-345.000000, -16.000000)">
            <g id="Main-Nav---Active">
                <g id="Icon/Account-Small" transform="translate(342.000000, 14.000000)">
                    <g id="Account" transform="translate(3.000000, 2.000000)">
                        <mask id="mask-2" fill="white">
                            <use xlink:href="#path-1"></use>
                        </mask>
                        <use id="Fill-4" fill="#000000" xlink:href="#path-1"></use>
                        <g id="color/black" mask="url(#mask-2)" fill="#000000" fill-rule="nonzero">
                            <g transform="translate(-3.000000, -2.000000)">
                                <rect x="0" y="0" width="24" height="24"></rect>
                            </g>
                        </g>
                    </g>
                </g>
            </g>
        </g>
    </g>
</svg>