<?xml version="1.0" encoding="UTF-8"?>
<svg width="14px" height="9px" viewBox="0 0 14 9" version="1.1" xmlns="http://www.w3.org/2000/svg" xmlns:xlink="http://www.w3.org/1999/xlink">
    <!-- Generator: Sketch 53 (72520) - https://sketchapp.com -->
    <title>Icon/Arrow Large</title>
    <desc>Created with Sketch.</desc>
    <defs>
        <path d="M13.3524444,0.255644444 C13.0031111,-0.0888 12.4404444,-0.0848 12.0955556,0.264977778 L6.80844444,5.63075556 L1.52222222,0.264977778 C1.17688889,-0.0848 0.614666667,-0.0888 0.265333333,0.255644444 C-0.0844444444,0.600088889 -0.0888888889,1.1632 0.255555556,1.51297778 L6.17555556,7.52142222 C6.17688889,7.5232 6.17911111,7.52453333 6.18088889,7.52631111 C6.18266667,7.52764444 6.18355556,7.52942222 6.18488889,7.53075556 C6.20622222,7.55208889 6.23066667,7.56764444 6.25333333,7.58631111 C6.27555556,7.60408889 6.29644444,7.62453333 6.32,7.63964444 C6.34888889,7.65875556 6.38,7.67253333 6.41022222,7.68764444 C6.432,7.69875556 6.452,7.71208889 6.47422222,7.72097778 C6.51111111,7.73608889 6.54977778,7.74542222 6.588,7.7552 C6.60488889,7.75964444 6.62133333,7.76675556 6.63866667,7.76986667 C6.69511111,7.78097778 6.75155556,7.78631111 6.80844444,7.78631111 C6.86533333,7.78631111 6.92222222,7.78097778 6.97866667,7.76986667 C6.99555556,7.76675556 7.012,7.75964444 7.02888889,7.7552 C7.06711111,7.74542222 7.10577778,7.73608889 7.14266667,7.72097778 C7.16533333,7.71208889 7.18533333,7.69875556 7.20711111,7.68764444 C7.23733333,7.67253333 7.26844444,7.65875556 7.29733333,7.63964444 C7.32088889,7.62453333 7.34177778,7.60408889 7.36355556,7.58631111 C7.38666667,7.56764444 7.41111111,7.55208889 7.43244444,7.53075556 C7.43377778,7.52942222 7.43466667,7.52764444 7.436,7.52631111 C7.43777778,7.52453333 7.44,7.5232 7.44177778,7.52142222 L13.3617778,1.51297778 C13.7066667,1.1632 13.7022222,0.600088889 13.3524444,0.255644444" id="path-1"></path>
    </defs>
    <g id="Search" stroke="none" stroke-width="1" fill="none" fill-rule="evenodd">
        <g id="Search-Results---Desktop" transform="translate(-1221.000000, -215.000000)">
            <g id="Top-Items" transform="translate(203.000000, 205.000000)">
                <g id="Icon/Arrow-Large" transform="translate(1024.500000, 14.000000) rotate(-90.000000) translate(-1024.500000, -14.000000) translate(1020.000000, 6.000000)">
                    <g transform="translate(4.200000, 8.200000) scale(-1, 1) rotate(-90.000000) translate(-4.200000, -8.200000) translate(-2.800000, 4.200000)">
                        <mask id="mask-2" fill="white">
                            <use xlink:href="#path-1"></use>
                        </mask>
                        <use id="Fill-1" fill="#000000" xlink:href="#path-1"></use>
                        <g id="color/blue" mask="url(#mask-2)" fill="#6CB8D8" fill-rule="nonzero">
                            <g transform="translate(-1.000000, -1.000000)">
                                <rect x="0" y="0" width="16" height="9"></rect>
                            </g>
                        </g>
                    </g>
                </g>
            </g>
        </g>
    </g>
</svg>