<?xml version="1.0" encoding="UTF-8"?>
<svg width="32px" height="22px" viewBox="0 0 32 22" version="1.1" xmlns="http://www.w3.org/2000/svg" xmlns:xlink="http://www.w3.org/1999/xlink">
    <!-- Generator: Sketch 52.6 (67491) - http://www.bohemiancoding.com/sketch -->
    <title>Menu Icon</title>
    <desc>Created with Sketch.</desc>
    <defs>
        <path d="M29.0186064,1.93939394 L1.37842516,1.93939394 C0.61753447,1.93939394 0,1.50561616 0,0.96969697 C0,0.433777778 0.61753447,0 1.37842516,0 L29.0186064,0 C29.7794971,0 30.3970315,0.433777778 30.3970315,0.96969697 C30.3970315,1.50561616 29.7794971,1.93939394 29.0186064,1.93939394 Z M29.0186064,11.2727273 L1.37842516,11.2727273 C0.61753447,11.2727273 0,10.8389495 0,10.3030303 C0,9.76711111 0.61753447,9.33333333 1.37842516,9.33333333 L29.0186064,9.33333333 C29.7794971,9.33333333 30.3970315,9.76711111 30.3970315,10.3030303 C30.3970315,10.8389495 29.7794971,11.2727273 29.0186064,11.2727273 Z M29.0186064,20.6060606 L1.37842516,20.6060606 C0.61753447,20.6060606 0,20.1722828 0,19.6363636 C0,19.1004444 0.61753447,18.6666667 1.37842516,18.6666667 L29.0186064,18.6666667 C29.7794971,18.6666667 30.3970315,19.1004444 30.3970315,19.6363636 C30.3970315,20.1722828 29.7794971,20.6060606 29.0186064,20.6060606 Z" id="path-1"></path>
    </defs>
    <g id="Symbols" stroke="none" stroke-width="1" fill="none" fill-rule="evenodd">
        <g id="Icon/Menu-Mobile">
            <g id="Menu-Icon" transform="translate(0.653061, 0.666667)">
                <mask id="mask-2" fill="white">
                    <use xlink:href="#path-1"></use>
                </mask>
                <use id="Fill-4" fill="#231F20" xlink:href="#path-1"></use>
                <g id="color/black" mask="url(#mask-2)" fill="#000000" fill-rule="nonzero">
                    <g transform="translate(-0.653061, -0.666667)">
                        <rect x="0" y="0" width="32" height="22"></rect>
                    </g>
                </g>
            </g>
        </g>
    </g>
</svg>