<?xml version="1.0" encoding="UTF-8"?>
<svg width="52px" height="49px" viewBox="0 0 52 49" version="1.1" xmlns="http://www.w3.org/2000/svg" xmlns:xlink="http://www.w3.org/1999/xlink">
    <!-- Generator: Sketch 53 (72520) - https://sketchapp.com -->
    <title>Exit Icon / Desktop</title>
    <desc>Created with Sketch.</desc>
    <g id="Symbols" stroke="none" stroke-width="1" fill="none" fill-rule="evenodd">
        <g id="Info-Tab-/-Large-Exit">
            <g id="Exit-Icon-/-Desktop">
                <path d="M5.1277704,-2.07168062e-16 L52,0 L52,43.8722296 C52,45.6552671 51.8143488,46.3018396 51.4657346,46.9536914 C51.1171204,47.6055433 50.6055433,48.1171204 49.9536914,48.4657346 C49.3018396,48.8143488 48.6552671,49 46.8722296,49 L0,49 L1.38112041e-16,5.1277704 C-8.02470732e-17,3.34473292 0.185651222,2.69816044 0.534265408,2.04630859 C0.882879593,1.39445674 1.39445674,0.882879593 2.04630859,0.534265408 C2.69816044,0.185651222 3.34473292,1.2037061e-16 5.1277704,-2.07168062e-16 Z" id="Rectangle-10-Copy" fill="#808E9F" fill-rule="nonzero"></path>
                <path d="M27.2238631,25.0002782 L32.7464362,19.4771282 C33.084494,19.1396473 33.084494,18.5916012 32.7464362,18.2535434 C32.4083783,17.9154855 31.8609092,17.9154855 31.5228513,18.2535434 L26.0002782,23.7766934 L20.4771282,18.2535434 C20.1390704,17.9154855 19.5916012,17.9154855 19.2535434,18.2535434 C18.9154855,18.5916012 18.9154855,19.1396473 19.2535434,19.4771282 L24.7766934,25.0002782 L19.2535434,30.5234282 C18.9154855,30.8609092 18.9154855,31.4089552 19.2535434,31.7470131 C19.4225723,31.916042 19.6435214,32.000268 19.8650474,32.000268 C20.0865733,32.000268 20.3080993,31.916042 20.4771282,31.7470131 L26.0002782,26.2238631 L31.5228513,31.7470131 C31.6918803,31.916042 31.9134062,32.000268 32.1349322,32.000268 C32.3558813,32.000268 32.5774072,31.916042 32.7464362,31.7470131 C33.084494,31.4089552 33.084494,30.8609092 32.7464362,30.5234282 L27.2238631,25.0002782 Z" id="Exit" fill="#FFFFFF"></path>
            </g>
        </g>
    </g>
</svg>