<?xml version="1.0" encoding="UTF-8"?>
<svg width="164px" height="24px" viewBox="0 0 164 24" version="1.1" xmlns="http://www.w3.org/2000/svg" xmlns:xlink="http://www.w3.org/1999/xlink">
    <!-- Generator: Sketch 52.6 (67491) - http://www.bohemiancoding.com/sketch -->
    <title>RP Logo</title>
    <desc>Created with Sketch.</desc>
    <g id="Symbols" stroke="none" stroke-width="1" fill="none" fill-rule="evenodd">
        <g id="Logo/-RP-Mobile">
            <g id="RP-Logo">
                <path d="M40.2880661,9.92456727 C39.8674153,9.92456727 39.6083864,9.94093091 39.2200599,10.0061673 L39.2200599,13.2932945 C39.576062,13.3260218 39.7702252,13.3423855 40.0939029,13.3423855 C41.4046674,13.3423855 42.246186,12.7076945 42.246186,11.5033309 C42.246186,10.5106036 41.4693161,9.92456727 40.2880661,9.92456727 Z M42.7317025,19.4615127 L40.7087169,15.5719855 C40.547095,15.5881309 40.4013099,15.5881309 40.2394711,15.5881309 C39.8350909,15.5881309 39.6083864,15.5719855 39.2200599,15.5556218 L39.2200599,19.4615127 L36.4690165,19.4615127 L36.4690165,7.64631273 C37.472374,7.53220364 38.5727045,7.45104 39.9643884,7.45104 C43.6539236,7.45104 45.1104731,9.22485818 45.1104731,11.4055855 C45.1104731,12.8215855 44.349874,14.0909673 43.0714339,14.8559127 L45.8548017,19.4615127 L42.7317025,19.4615127 Z" id="Fill-1" fill="#000000"></path>
                <path d="M54.2372944,9.81067636 C52.360094,9.81067636 51.0979246,11.3567127 51.0979246,13.5049309 C51.0979246,15.6370036 52.360094,17.1994036 54.2372944,17.1994036 C56.1142779,17.1994036 57.3766643,15.6370036 57.3766643,13.5049309 C57.3766643,11.3567127 56.1142779,9.81067636 54.2372944,9.81067636 M54.1886994,19.6567855 C50.5154349,19.6567855 48.1689886,17.0041309 48.1689886,13.5049309 C48.1689886,9.98980364 50.6286787,7.33693091 54.3019432,7.33693091 C57.9591539,7.33693091 60.3216539,9.98980364 60.3216539,13.5049309 C60.3216539,17.0041309 57.8459101,19.6567855 54.1886994,19.6567855" id="Fill-3" fill="#000000"></path>
                <path d="M68.5101353,19.6567855 C65.3221705,19.6567855 63.5421601,17.9316218 63.5421601,14.6117673 L63.5421601,7.53220364 L66.2932035,7.53220364 L66.2932035,14.4164945 C66.2932035,16.1089309 67.0052076,17.1343855 68.5747841,17.1343855 C70.1283068,17.1343855 70.840311,16.1089309 70.840311,14.4164945 L70.840311,7.53220364 L73.5911374,7.53220364 L73.5911374,14.6117673 C73.5911374,17.9316218 71.6978833,19.6567855 68.5101353,19.6567855" id="Fill-5" fill="#000000"></path>
                <polygon id="Fill-7" fill="#000000" points="87.4594246 19.6894909 80.3068419 13.2284727 80.3068419 19.4617091 77.5560155 19.4617091 77.5560155 7.36941818 77.9280713 7.3044 84.9836808 13.7165455 84.9836808 7.53218182 87.7345072 7.53218182 87.7345072 19.6406182"></polygon>
                <path d="M95.5343802,9.92456727 C95.0651343,9.92456727 94.822376,9.94093091 94.4015083,9.98980364 L94.4015083,17.0202764 C94.9032955,17.0691491 95.1137293,17.0855127 95.7122727,17.0855127 C98.3016942,17.0855127 99.4504029,15.62064 99.4504029,13.3912582 C99.4504029,11.2266764 98.0912603,9.92456727 95.5343802,9.92456727 M95.2755682,19.5592582 C93.8838843,19.5592582 93.1072314,19.4940218 91.6506818,19.3639855 L91.6506818,7.64631273 C93.0258781,7.49969455 93.9808574,7.45104 95.1621074,7.45104 C100.081488,7.45104 102.379556,10.0223127 102.379556,13.3912582 C102.379556,16.9063855 100.194731,19.5592582 95.2755682,19.5592582" id="Fill-9" fill="#000000"></path>
                <path d="M109.661458,10.0385673 C109.305456,10.0385673 109.062697,10.0549309 108.642046,10.1035855 L108.642046,13.50504 C109.030373,13.5211855 109.208482,13.5377673 109.467294,13.5377673 C110.923627,13.5377673 111.651902,12.9028582 111.651902,11.7473673 C111.651902,10.7873673 111.020817,10.0385673 109.661458,10.0385673 M109.661458,15.9299127 C109.273131,15.9299127 109.014319,15.9137673 108.642046,15.8974036 L108.642046,19.4616218 L105.891003,19.4616218 L105.891003,7.64620364 C107.104794,7.51594909 108.205125,7.45093091 109.192212,7.45093091 C112.622718,7.45093091 114.467594,9.28976727 114.467594,11.6984945 C114.467594,14.1560945 112.801044,15.9299127 109.661458,15.9299127" id="Fill-11" fill="#000000"></path>
                <path d="M123.109116,9.81067636 C121.231915,9.81067636 119.969529,11.3567127 119.969529,13.5049309 C119.969529,15.6370036 121.231915,17.1994036 123.109116,17.1994036 C124.986099,17.1994036 126.248486,15.6370036 126.248486,13.5049309 C126.248486,11.3567127 124.986099,9.81067636 123.109116,9.81067636 M123.060521,19.6567855 C119.387256,19.6567855 117.040593,17.0041309 117.040593,13.5049309 C117.040593,9.98980364 119.500283,7.33693091 123.173764,7.33693091 C126.830975,7.33693091 129.193475,9.98980364 129.193475,13.5049309 C129.193475,17.0041309 126.717731,19.6567855 123.060521,19.6567855" id="Fill-13" fill="#000000"></path>
                <polygon id="Fill-15" fill="#000000" points="132.78595 19.4616 135.536994 19.4616 135.536994 7.53229091 132.78595 7.53229091"></polygon>
                <polygon id="Fill-17" fill="#000000" points="149.372892 19.6894909 142.220309 13.2284727 142.220309 19.4617091 139.469482 19.4617091 139.469482 7.36941818 139.841538 7.3044 146.896931 13.7165455 146.896931 7.53218182 149.647974 7.53218182 149.647974 19.6406182"></polygon>
                <polygon id="Fill-18" fill="#000000" points="159.567697 10.0710545 159.567697 19.4616 156.816654 19.4616 156.816654 10.0710545 153.256633 10.0710545 153.256633 7.53229091 163.127718 7.53229091 163.127718 10.0710545"></polygon>
                <polygon id="Fill-19" fill="#50AADD" points="2.79425826 10.8169964 12.5390826 3.65801455 19.7784421 8.94870545 17.0779463 17.53656 8.61698554 17.53656 9.56914463 20.5195418 19.122843 20.5195418 23.2594959 7.84972364 12.5390826 -2.18181818e-05 1.84209917 7.81830545"></polygon>
                <polygon id="Fill-20" fill="#50AADD" points="3.41870455 23.9734255 6.4938595 23.9734255 3.49680372 14.5850618 12.5391694 7.97546182 18.2367211 12.1455709 19.1851921 9.18418909 12.5391694 4.31742545 -8.67768595e-05 13.48608"></polygon>
                <polygon id="Fill-21" fill="#50AADD" points="4.08996694 14.8204582 6.57200207 12.9992945 9.16337603 21.0375491 19.5288719 21.0375491 22.6196467 11.6806036 25.0548223 13.45464 21.6985103 23.9734036 7.04038017 23.9734036"></polygon>
            </g>
        </g>
    </g>
</svg>