<svg xmlns="http://www.w3.org/2000/svg" viewBox="0 0 205.27 33.09"><defs><style>.cls-1{fill:#fff;}</style></defs><g id="Layer_2" data-name="Layer 2"><g id="Layer_1-2" data-name="Layer 1"><g id="Layer_2-2" data-name="Layer 2"><g id="Layer_5" data-name="Layer 5"><path class="cls-1" d="M6.84,0V26.82H0V0Z"/><path class="cls-1" d="M26.33,26.82H20.18V15.31c0-1.22-.08-2.51-1.14-3.34a2.89,2.89,0,0,0-1.86-.57A3.33,3.33,0,0,0,14,13.53a5.56,5.56,0,0,0-.23,1.86V26.82H7.6V6.23h6.19V8.09a6.22,6.22,0,0,1,5.05-2.17,7.88,7.88,0,0,1,2.55.42,7.14,7.14,0,0,1,4.52,4.9,15,15,0,0,1,.42,4.33Z"/><path class="cls-1" d="M45.75,26.82H39.59V15.31c0-1.22-.08-2.51-1.14-3.34a2.89,2.89,0,0,0-1.86-.57,3.33,3.33,0,0,0-3.23,2.13,5.56,5.56,0,0,0-.23,1.86V26.82H27V6.23h6.19V8.09a6.22,6.22,0,0,1,5.05-2.17,7.88,7.88,0,0,1,2.55.42,7.14,7.14,0,0,1,4.52,4.9,15,15,0,0,1,.42,4.33Z"/><path class="cls-1" d="M60.49,6.31h6.19V26.82h-6V25.19A8.72,8.72,0,0,1,49,24.77a11,11,0,0,1-3.61-8.21,11.42,11.42,0,0,1,2.24-6.73,9.8,9.8,0,0,1,7.75-4A8.48,8.48,0,0,1,60.47,7.5ZM56.2,21.24a4.65,4.65,0,1,0-4.67-4.63,4.49,4.49,0,0,0,1.41,3.27A4.74,4.74,0,0,0,56.2,21.24Z"/><path class="cls-1" d="M74.25,0V6.27h2.62v4.79H74.21V26.82H68V11H65.8V6.23h2.28V0Z"/><path class="cls-1" d="M80.67,18.65a9.65,9.65,0,0,0,.72,1.25,5.14,5.14,0,0,0,4.18,2,4.89,4.89,0,0,0,2.66-.72,3.13,3.13,0,0,0,.8-.65h6.35a10.45,10.45,0,0,1-2.47,3.72,10,10,0,0,1-7.33,3,11,11,0,0,1-6.92-2.43,10.85,10.85,0,0,1-3.88-8.24,10.68,10.68,0,0,1,21.35-.08A19.24,19.24,0,0,1,96,18.65Zm9.46-4.48a5.17,5.17,0,0,0-7-2.19,4.6,4.6,0,0,0-.6.37,3.32,3.32,0,0,0-.91.8,3.61,3.61,0,0,0-.68,1Z"/><path class="cls-1" d="M112.13,6h-5.36V26.82H100V6H94.73V0h17.4Z"/><path class="cls-1" d="M116.81,0V8.06a7.84,7.84,0,0,1,1-.87,6.83,6.83,0,0,1,4.18-1.33,6.93,6.93,0,0,1,6.23,3.57c1.22,2.17,1.18,4.45,1.18,6.88V26.82H123.2v-12a3.54,3.54,0,0,0-1.2-2.93,2.86,2.86,0,0,0-1.82-.61A3.35,3.35,0,0,0,117,13.45a5.51,5.51,0,0,0-.23,1.56V26.82h-6.16V0Z"/><path class="cls-1" d="M135,18.65a9.65,9.65,0,0,0,.72,1.25,5.14,5.14,0,0,0,4.18,2,4.89,4.89,0,0,0,2.66-.72,3.13,3.13,0,0,0,.8-.65h6.35a10.45,10.45,0,0,1-2.47,3.72,10,10,0,0,1-7.33,3,10.92,10.92,0,0,1-6.91-2.4,10.85,10.85,0,0,1-3.88-8.24,10.68,10.68,0,0,1,21.35-.08,19.06,19.06,0,0,1-.15,2.13Zm9.46-4.48a5.17,5.17,0,0,0-7-2.19,4.6,4.6,0,0,0-.6.37,3.32,3.32,0,0,0-.91.8,3.61,3.61,0,0,0-.68,1Z"/><path class="cls-1" d="M149.3,16.53A10.75,10.75,0,0,1,160,5.85a11.06,11.06,0,0,1,6.61,2.32,10.6,10.6,0,0,1,1.81,14.89l-.21.27a10.67,10.67,0,0,1-18.92-6.8Zm10.75,4.6a4.6,4.6,0,1,0-4.6-4.6v0a4.79,4.79,0,0,0,1.33,3.23A4.87,4.87,0,0,0,160.05,21.13Z"/><path class="cls-1" d="M176.17,6.35V9.19a12.72,12.72,0,0,1,1.06-1.25,5.94,5.94,0,0,1,4.67-1.67V12a7,7,0,0,0-1.29-.08c-.19,0-2.62.08-3.57,1.52a3.17,3.17,0,0,0-.46,1.9V26.82h-6.19V6.35Z"/><path class="cls-1" d="M186.46,6.31l4.25,11.82,4.41-11.82h6.5L191,33.09H184.6l2.81-7.22L179.55,6.31Z"/><path class="cls-1" d="M201.56,27.11a3.88,3.88,0,0,1-2.67-1,3.54,3.54,0,0,1-1.12-2.79,3.6,3.6,0,0,1,1.07-2.61,3.55,3.55,0,0,1,2.64-1.1,3.69,3.69,0,0,1,2.68,1.08,3.54,3.54,0,0,1,1.11,2.63,3.56,3.56,0,0,1-1.11,2.78A3.74,3.74,0,0,1,201.56,27.11Z"/></g></g></g></g></svg>