<?xml version="1.0" encoding="UTF-8"?>
<svg width="132px" height="440px" viewBox="0 0 132 440" version="1.1" xmlns="http://www.w3.org/2000/svg" xmlns:xlink="http://www.w3.org/1999/xlink">
    <!-- Generator: Sketch 52.6 (67491) - http://www.bohemiancoding.com/sketch -->
    <title>Combined Shape</title>
    <desc>Created with Sketch.</desc>
    <g id="Home" stroke="none" stroke-width="1" fill="none" fill-rule="evenodd" fill-opacity="0.15" stroke-opacity="0.1">
        <g id="Mobile-HP" transform="translate(0.000000, -3578.000000)" fill="#808E9F" fill-rule="nonzero" stroke="#808E9F" stroke-width="2">
            <g id="Community" transform="translate(-365.000000, 3038.000000)">
                <g id="All-In-All-Win" transform="translate(0.000000, 512.000000)">
                    <path d="M248,496 C111.033382,496 0,384.966618 0,248 C0,111.033382 111.033382,0 248,0 C384.966618,0 496,111.033382 496,248 C496,384.966618 384.966618,496 248,496 Z M247.5,413 C338.903126,413 413,338.903126 413,247.5 C413,156.096874 338.903126,82 247.5,82 C156.096874,82 82,156.096874 82,247.5 C82,338.903126 156.096874,413 247.5,413 Z" id="Combined-Shape"></path>
                </g>
            </g>
        </g>
    </g>
</svg>