<?xml version="1.0" encoding="UTF-8"?>
<svg width="98px" height="88px" viewBox="0 0 98 88" version="1.1" xmlns="http://www.w3.org/2000/svg" xmlns:xlink="http://www.w3.org/1999/xlink">
    <!-- Generator: Sketch 52.6 (67491) - http://www.bohemiancoding.com/sketch -->
    <title>“</title>
    <desc>Created with Sketch.</desc>
    <g id="Home" stroke="none" stroke-width="1" fill="none" fill-rule="evenodd" opacity="0.199999988">
        <g id="Mobile-HP" transform="translate(-38.000000, -3486.000000)" fill="#6CB8D8">
            <g id="Community" transform="translate(-365.000000, 3038.000000)">
                <g id="Toggle" transform="translate(403.000000, 360.000000)">
                    <g id="Group-3">
                        <path d="M37.8902148,88 L37.8902148,102.789916 C30.1129285,102.789916 22.8735419,105.275419 16.1718377,110.246499 C9.47013356,115.217579 6.11933174,121.154027 6.11933174,128.056022 C6.11933174,132.164353 7.77404869,134.218487 11.0835322,134.218487 C11.828166,134.218487 13.3174113,133.930909 15.5513126,133.355742 C17.8679511,132.862743 19.7295077,132.616246 21.1360382,132.616246 C25.686578,132.616246 29.9681581,134.444426 33.9809069,138.10084 C37.9936557,141.757255 40,146.789884 40,153.19888 C40,159.443542 37.9316038,164.804833 33.7947494,169.282913 C29.657895,173.760993 23.9904895,176 16.7923628,176 C8.18770558,176 1.23789442,172.775009 -4.05727924,166.32493 C-9.35245289,159.874851 -12,150.898283 -12,139.394958 C-12,123.536802 -7.13926897,111.109289 2.5823389,102.112045 C12.3039468,93.114801 24.0731211,88.4108331 37.8902148,88 Z M95.8902148,88 L95.8902148,102.789916 C88.5266139,102.789916 81.3906471,105.234336 74.4821002,110.123249 C67.5735534,115.012163 64.1193317,120.989694 64.1193317,128.056022 C64.1193317,132.164353 65.7740487,134.218487 69.0835322,134.218487 C69.828166,134.218487 71.3174113,133.930909 73.5513126,133.355742 C75.8679511,132.862743 77.7295077,132.616246 79.1360382,132.616246 C83.9347893,132.616246 88.2784213,134.50605 92.1670644,138.285714 C96.0557076,142.065378 98,147.036384 98,153.19888 C98,159.443542 95.9316038,164.804833 91.7947494,169.282913 C87.657895,173.760993 81.9904895,176 74.7923628,176 C66.1877056,176 59.2378944,172.775009 53.9427208,166.32493 C48.6475471,159.874851 46,150.898283 46,139.394958 C46,123.536802 50.860731,111.109289 60.5823389,102.112045 C70.3039468,93.114801 82.0731211,88.4108331 95.8902148,88 Z" id="“"></path>
                    </g>
                </g>
            </g>
        </g>
    </g>
</svg>