<?xml version="1.0" encoding="UTF-8"?>
<svg width="238px" height="185px" viewBox="0 0 238 185" version="1.1" xmlns="http://www.w3.org/2000/svg" xmlns:xlink="http://www.w3.org/1999/xlink">
    <!-- Generator: Sketch 52.6 (67491) - http://www.bohemiancoding.com/sketch -->
    <title>“</title>
    <desc>Created with Sketch.</desc>
    <g id="Home" stroke="none" stroke-width="1" fill="none" fill-rule="evenodd" fill-opacity="0.15271173">
        <g id="Desktop-HP" transform="translate(-386.000000, -4760.000000)" fill="#25AAE2">
            <g id="Community" transform="translate(-867.000000, 4040.000000)">
                <g id="Testimonial" transform="translate(1022.000000, 322.000000)">
                    <g id="White-Box" transform="translate(231.000000, 279.000000)">
                        <g id="Group-3">
                            <path d="M237.277344,266.363281 C237.277344,275.738328 235.0801,283.941371 230.685547,290.972656 C226.290994,298.003941 220.431677,303.374981 213.107422,307.085938 C205.783167,310.796894 198.019572,312.652344 189.816406,312.652344 C174.972582,312.652344 160.95905,305.621164 147.775391,291.558594 C134.591731,277.496023 128,257.769658 128,232.378906 C128,202.495944 137.130768,177.203229 155.392578,156.5 C173.654388,135.796771 199.484208,123.296896 232.882812,119 L232.882812,145.953125 C211.39833,150.054708 193.918036,157.622992 180.441406,168.658203 C166.964776,179.693415 160.226562,193.706946 160.226562,210.699219 C160.226562,220.269579 163.644497,225.054688 170.480469,225.054688 C172.042977,225.054688 173.361323,224.908205 174.435547,224.615234 C175.509771,224.322264 178.244119,223.833988 182.638672,223.150391 C187.033225,222.466793 190.988264,222.125 194.503906,222.125 C205.636774,222.125 215.548785,226.324177 224.240234,234.722656 C232.931684,243.121136 237.277344,253.667905 237.277344,266.363281 Z M100.984375,266.363281 C100.984375,275.738328 98.7871313,283.941371 94.3925781,290.972656 C89.9980249,298.003941 84.1387085,303.374981 76.8144531,307.085938 C69.4901978,310.796894 61.7266035,312.652344 53.5234375,312.652344 C44.3437041,312.652344 35.0176255,309.673858 25.5449219,303.716797 C16.0722183,297.759736 8.11331348,288.628968 1.66796875,276.324219 C-4.77737598,264.01947 -8,249.371179 -8,232.378906 C-8,202.495944 1.13076807,177.203229 19.3925781,156.5 C37.6543882,135.796771 63.484208,123.296896 96.8828125,119 L96.8828125,145.953125 C75.3983301,150.054708 57.9180361,157.622992 44.4414062,168.658203 C30.9647764,179.693415 24.2265625,193.706946 24.2265625,210.699219 C24.2265625,220.269579 27.6444971,225.054688 34.4804688,225.054688 L42.5371094,223.589844 C47.90823,222.613276 53.2304424,222.125 58.5039062,222.125 C65.3398779,222.125 72.0780918,224.029278 78.71875,227.837891 C85.3594082,231.646503 90.7304482,236.871061 94.8320312,243.511719 C98.9336143,250.152377 100.984375,257.769488 100.984375,266.363281 Z" id="“"></path>
                        </g>
                    </g>
                </g>
            </g>
        </g>
    </g>
</svg>