<?xml version="1.0" encoding="UTF-8"?> <svg xmlns="http://www.w3.org/2000/svg" xmlns:xlink="http://www.w3.org/1999/xlink" width="767px" height="420px" viewBox="0 0 767 420"><!-- Generator: Sketch 52.5 (67469) - http://www.bohemiancoding.com/sketch --><title>build-illustration</title><desc>Created with Sketch.</desc><defs><linearGradient x1="-11.0105862%" y1="-43.2625176%" x2="90.3605459%" y2="145.071681%" id="linearGradient-1"><stop stop-color="#C8FFC4" offset="0%"></stop><stop stop-color="#75E6C6" offset="100%"></stop></linearGradient><linearGradient x1="-11.0105862%" y1="-43.2625176%" x2="90.3605459%" y2="145.071681%" id="linearGradient-2"><stop stop-color="#80D57B" offset="0%"></stop><stop stop-color="#56C3A4" offset="100%"></stop></linearGradient><linearGradient x1="-3.14848469%" y1="155.141328%" x2="102.922056%" y2="11.2038723%" id="linearGradient-3"><stop stop-color="#85FFEB" offset="0%"></stop><stop stop-color="#37B8CE" offset="100%"></stop></linearGradient><linearGradient x1="67.0999527%" y1="204.367527%" x2="67.0999525%" y2="2.7630388%" id="linearGradient-4"><stop stop-color="#44C8B3" offset="0%"></stop><stop stop-color="#1B8594" offset="92.6120232%"></stop><stop stop-color="#096979" offset="100%"></stop></linearGradient><linearGradient x1="-3.14848469%" y1="155.141328%" x2="102.922056%" y2="11.2038723%" id="linearGradient-5"><stop stop-color="#44C8B3" offset="0%"></stop><stop stop-color="#188092" offset="100%"></stop></linearGradient><linearGradient x1="-11.0105862%" y1="-43.2625176%" x2="90.3605459%" y2="145.071681%" id="linearGradient-6"><stop stop-color="#A0EC9B" offset="0%"></stop><stop stop-color="#56C3A4" offset="100%"></stop></linearGradient><path d="M5.08854484,0 L169.335622,-2.66453526e-15 C172.296226,-3.20838942e-15 174.774671,2.24438936 175.067398,5.19048646 L178.304388,37.7686419 C178.556015,40.3010999 176.707036,42.5580465 174.174578,42.8096735 C174.023174,42.8247171 173.871117,42.8322528 173.718967,42.8322528 L9.47188996,42.8322528 C6.51128582,42.8322528 4.03284053,40.5878634 3.74011412,37.6417663 L0.503124168,5.06361084 C0.251497252,2.53115292 2.1004761,0.274206241 4.63293401,0.022579325 C4.78433838,0.00753567292 4.93639493,1.80430632e-15 5.08854484,1.77635684e-15 Z" id="path-7"></path><filter x="-20.0%" y="-50.2%" width="133.2%" height="237.7%" id="filter-8"><feOffset dx="-6" dy="8" in="SourceAlpha" result="shadowOffsetOuter1"></feOffset><feGaussianBlur stdDeviation="8.5" in="shadowOffsetOuter1" result="shadowBlurOuter1"></feGaussianBlur><feColorMatrix values="0 0 0 0 0.619607843 0 0 0 0 0.905882353 0 0 0 0 0.807843137 0 0 0 0.289005888 0" type="matrix" in="shadowBlurOuter1"></feColorMatrix></filter><linearGradient x1="235.748317%" y1="-122.473592%" x2="90.3605459%" y2="145.071681%" id="linearGradient-9"><stop stop-color="#69C663" offset="0%"></stop><stop stop-color="#56C3A4" offset="100%"></stop></linearGradient><linearGradient x1="81.6206161%" y1="4.94908958%" x2="11.3745913%" y2="98.6543237%" id="linearGradient-10"><stop stop-color="#56B594" offset="0%"></stop><stop stop-color="#71CDAE" offset="23.0488411%"></stop><stop stop-color="#86DDC0" offset="100%"></stop></linearGradient><linearGradient x1="14.3183249%" y1="50%" x2="100%" y2="50%" id="linearGradient-11"><stop stop-color="#3AA579" offset="0%"></stop><stop stop-color="#56C3A4" offset="100%"></stop></linearGradient><ellipse id="path-12" cx="34.5594118" cy="23.3073781" rx="4.93705882" ry="4.9439893"></ellipse><filter x="-531.7%" y="-530.9%" width="1163.4%" height="1161.9%" id="filter-13"><feOffset dx="0" dy="0" in="SourceAlpha" result="shadowOffsetOuter1"></feOffset><feGaussianBlur stdDeviation="17.5" in="shadowOffsetOuter1" result="shadowBlurOuter1"></feGaussianBlur><feColorMatrix values="0 0 0 0 0.654901961 0 0 0 0 0.909803922 0 0 0 0 0.823529412 0 0 0 1 0" type="matrix" in="shadowBlurOuter1"></feColorMatrix></filter><linearGradient x1="120.254679%" y1="-76.5743707%" x2="-123.996459%" y2="221.162129%" id="linearGradient-14"><stop stop-color="#3BBDA8" offset="0%"></stop><stop stop-color="#188092" offset="100%"></stop></linearGradient></defs><g id="Pages" stroke="none" stroke-width="1" fill="none" fill-rule="evenodd"><g id="Services" transform="translate(-799.000000, -3147.000000)"><g id="Activation" transform="translate(0.000000, 2878.000000)"><g id="build-illustration" transform="translate(800.000000, 269.000000)"><path d="M382.183872,370.476957 L129,370.476957 C154.124038,368.448881 167.611257,365.308326 169.461655,361.05529 C172.237253,354.675736 175.318268,349.329734 183.379381,348.495179 C191.440495,347.660624 194.541554,354.716448 202.362643,354.146398 C210.183732,353.576348 209.18312,344.244841 218.976643,343.015511 C228.770166,341.78618 230.246443,349.602346 236.923574,349.602346 C243.600704,349.602346 244.040226,317.000467 269.423983,315.079638 C294.807739,313.158809 291.439148,346.593727 302.046883,349.602346 C312.654618,352.610966 316.277825,347.042842 326.047642,355.556917 C332.560854,361.232967 351.27293,366.206313 382.183872,370.476957 Z" id="Path-113-Copy" fill="#D6F1EE"></path><path d="M200.91475,188.665273 L200.91475,162.907641 C200.91475,156.091179 206.440584,150.565346 213.257045,150.565346 L213.257045,150.565346 C220.073506,150.565346 225.59934,156.091179 225.59934,162.907641 L225.59934,356.004332 C225.59934,361.52718 230.076492,366.004332 235.59934,366.004332 L317.498427,366.004332 C323.021274,366.004332 327.498427,361.52718 327.498427,356.004332 L327.498427,244.403688 C327.498427,241.010353 330.249268,238.259511 333.642603,238.259511 L333.642603,238.259511 C337.035938,238.259511 339.786779,241.010353 339.786779,244.403688 L339.786779,357.025431 C339.786779,362.548278 344.263932,367.025431 349.786779,367.025431 L465.141648,367.025431 C470.664495,367.025431 475.141648,362.548278 475.141648,357.025431 L475.141648,262.553247 C475.141648,258.894455 478.107685,255.928417 481.766478,255.928417 L481.766478,255.928417 C485.42527,255.928417 488.391308,258.894455 488.391308,262.553247 L488.391308,263.766475 C488.391308,268.095315 491.900526,271.604533 496.229365,271.604533 L505.45058,271.604533" id="Path-148" stroke="#0D6574" stroke-width="2.55"></path><path d="M766.183872,370.476957 L513,370.476957 C538.124038,368.448881 551.611257,365.308326 553.461655,361.05529 C556.237253,354.675736 559.318268,349.329734 567.379381,348.495179 C575.440495,347.660624 578.541554,354.716448 586.362643,354.146398 C594.183732,353.576348 593.18312,344.244841 602.976643,343.015511 C612.770166,341.78618 614.246443,349.602346 620.923574,349.602346 C627.600704,349.602346 628.040226,317.000467 653.423983,315.079638 C678.807739,313.158809 675.439148,346.593727 686.046883,349.602346 C696.654618,352.610966 700.277825,347.042842 710.047642,355.556917 C716.560854,361.232967 735.27293,366.206313 766.183872,370.476957 Z" id="Path-113-Copy-2" fill="#D6F1EE"></path><g id="Group-60" transform="translate(24.000000, 162.000000)"><g id="Group-33" transform="translate(0.000000, 5.000000)"><path d="M47.7356948,46.772308 C46.626756,45.6588537 44.9667783,44.9137001 42.7557616,44.5368473 L36.5142107,61.1176631 L43.9735425,120.624972 C47.5974865,129.323945 51.9797638,133.120511 57.1203745,132.014671 C61.4199845,96.2811364 50.6204812,96.1440752 49.502052,57.8113865 L66.6547757,56.0834471 L92.8635527,30.1125051 L95.8071608,23.6632305 L65.1648408,46.7545559 L47.7356948,46.7545559 L47.7356948,46.772308 Z" id="Combined-Shape" fill="#33BAAA"></path><polygon id="Path-144" fill="url(#linearGradient-1)" points="43.5486417 45.5890276 51.5502493 112.098663 27.3303559 114.230796 32.9847601 49.3625408 37.1512661 45.5890276"></polygon><polygon id="Path-226" fill="#FFD7B3" points="28 188.63005 28 195.881344 34.129455 195.881344 34.129455 187"></polygon><polygon id="Path-226-Copy" fill="#FFD7B3" points="48 188.63005 48 195.881344 54.129455 195.881344 54.129455 187"></polygon><path d="M22.9830082,104.489353 C27.8984853,130.05336 32.8607957,150.109514 27.0231238,190.251207 C31.2528956,193.423284 31.4145116,192.382084 34.6514614,190.251207 C40.7095541,166.389396 38.5424554,121.342088 38.5424554,121.342088 C45.7911565,139.883652 48.5721512,162.853359 46.8854394,190.251207 C50.5884908,191.115496 53.1003874,191.289764 54.4211292,190.774011 C53.4411679,141.147327 52.1931902,112.910196 50.6771962,106.062618 C41.850027,114.165041 32.618631,113.640619 22.9830082,104.489353 Z" id="Path-225" fill="#0B4651"></path><path d="M43.3142034,46.9204802 L43.3142034,35.2980113 L37.5872231,35.2980113 L37.5872231,46.9204802 C38.8639134,47.5391298 39.8184101,47.8484546 40.4507133,47.8484546 C41.0830164,47.8484546 42.0375131,47.5391298 43.3142034,46.9204802 Z" id="Path-215" fill="#FFD7B3"></path><g id="Group-58" transform="translate(45.504535, 23.522882) rotate(-29.000000) translate(-45.504535, -23.522882) translate(27.504535, 7.022882)"><path d="M28.6081936,11.7998206 L24.2468559,27.4518083 C23.1795021,31.282332 19.2089879,33.5223239 15.3784642,32.4549701 C14.7421788,32.2776728 14.133317,32.0136619 13.5690109,31.6703661 L3.7104576,25.6729115 C6.18498551,14.9152318 8.35313332,8.89267638 10.214901,7.60524536 C11.1848868,6.93449047 12.8652509,2.43873141 16.153002,3.22596724 C18.1681222,3.70847788 22.3198528,6.56642899 28.6081936,11.7998206 Z" id="Path-214" fill="#FFD7B3"></path><path d="M4.05403469,25.7645355 C5.07924316,21.0825983 4.3946143,17.0122621 2.00014809,13.5535268 C-1.59155122,8.36542387 0.715138365,4.56389671 5.35927493,1.1408193 C10.0034115,-2.28225811 18.52987,5.49965648 23.2344983,1.56998362 C27.9391266,-2.35968924 26.8299263,6.37848575 33.3767862,7.19194561 C39.9236461,8.00540546 30.7555053,14.123867 25.0402183,12.0501443 C17.1270115,9.17893308 21.2330915,4.10650965 14.5895002,5.64640099 C15.1516812,9.55997781 15.3083733,11.980739 15.0595764,12.9086847 C13.5637378,18.4877625 10.3313764,19.182234 8.47437511,20.3394409 C6.45481624,20.4518666 4.98136943,22.2602314 4.05403469,25.7645355 Z" id="Path-216" fill="#0B4651"></path><g id="Group-59" transform="translate(19.984810, 16.125380) rotate(31.000000) translate(-19.984810, -16.125380) translate(8.484810, 12.125380)" stroke="#156573"><circle id="Oval-28" cx="12" cy="5" r="3"></circle><circle id="Oval-28-Copy" cx="20" cy="3" r="3"></circle><path d="M9.2394395,6 L0,7.60620574" id="Path-149"></path></g><circle id="Oval-27" fill="#FFD7B3" cx="11" cy="16" r="3"></circle></g><path d="M17.9297666,120.721082 C16.7346001,103.851934 24.131209,106.01734 24.131209,86.3967176 C24.131209,45.4528098 25.8712654,50.6614622 37.3078321,45.245475 C37.9998547,106.538028 38.345866,137.184304 38.345866,137.184304 C28.9536989,134.589557 22.1483324,129.101817 17.9297666,120.721082 Z" id="Path-220" fill="#33BAAA"></path><path d="M20.4364054,100 L20.4364054,104.436672 L15.2872811,104.436672 C13.5709063,108.282041 13.5709063,110.866994 15.2872811,112.191533 C17.0036558,113.516071 19.8542269,114.17834 23.8389942,114.17834 L27.2826421,107.937346 L26.029577,100 L20.4364054,100 Z" id="Path-147" fill="#FFD7B3"></path><polygon id="Path-146" fill="#33BAAA" points="29.1834174 49.3796856 0.564022418 71.2287559 20.2611969 102.159816 25.7785715 100.080964 14.7815623 75.5448216 29.1834174 67.8921609"></polygon><path d="M28.0021943,196 L26,202.789595 L48.9337886,202.789595 C47.6893735,201.461519 45.9222236,200.32992 43.6323389,199.394798 C40.1975118,197.992114 34.8029921,198.232328 34.1517956,196 L28.0021943,196 Z" id="Path-227" fill="#0B4651"></path><path d="M48.0021943,196 L46,202.789595 L68.9337886,202.789595 C67.6893735,201.461519 65.9222236,200.32992 63.6323389,199.394798 C60.1975118,197.992114 54.8029921,198.232328 54.1517956,196 L48.0021943,196 Z" id="Path-227-Copy" fill="#0B4651"></path></g><g id="Group-46" transform="translate(84.000000, 0.000000)"><path d="M53.2094595,5.94285714 L53.2094595,5.94285714 C62.3781326,5.94285714 69.8108108,13.3755353 69.8108108,22.5442085 L69.8108108,41.6 L36.6081081,41.6 L36.6081081,22.5442085 C36.6081081,13.3755353 44.0407863,5.94285714 53.2094595,5.94285714 Z" id="Rectangle-34" stroke="#267F78" stroke-width="2.55"></path><path d="M67.6824324,0 L67.6824324,0 C76.8511056,-1.68425794e-15 84.2837838,7.43267817 84.2837838,16.6013514 L84.2837838,35.6571429 L51.0810811,35.6571429 L51.0810811,16.6013514 C51.0810811,7.43267817 58.5137593,1.68425794e-15 67.6824324,0 Z" id="Rectangle-34-Copy" stroke="#FF7D46" stroke-width="2.55"></path><polygon id="Rectangle-22" fill="#0D6574" points="18.7297297 123.95102 104.716216 123.95102 104.716216 208 18.7297297 208"></polygon><polygon id="Rectangle-22-Copy-5" fill="#055361" points="65.5540541 123.95102 107.27027 123.95102 107.27027 208 65.5540541 208"></polygon><rect id="Rectangle-33" fill="url(#linearGradient-2)" x="86.8378378" y="130.742857" width="16.1756757" height="1.69795918" rx="0.848979592"></rect><rect id="Rectangle-33-Copy" fill="url(#linearGradient-2)" x="86.8378378" y="134.987755" width="16.1756757" height="1.69795918" rx="0.848979592"></rect><rect id="Rectangle-33-Copy-2" fill="url(#linearGradient-2)" x="86.8378378" y="139.232653" width="16.1756757" height="1.69795918" rx="0.848979592"></rect><polygon id="Path-131" fill="url(#linearGradient-3)" points="86.0744407 35.6571429 85.9864865 112.007626 88.209975 113.03124 88.209975 35.6571429"></polygon><polygon id="Path-131-Copy" fill="url(#linearGradient-4)" points="6.15517278 35.4308193 4.68813947 111.781303 86.8378378 112.804916 86.8378378 35.4308193"></polygon><rect id="Rectangle-32" fill="#0D6574" x="47.6756757" y="93.3877551" width="33.2027027" height="9.33877551"></rect><rect id="Rectangle-32-Copy" fill="#055361" x="47.6756757" y="93.3877551" width="13.6216216" height="9.33877551"></rect><rect id="Rectangle-25-Copy" fill="url(#linearGradient-5)" x="93.6486486" y="33.9591837" width="2.55405405" height="78.1061224"></rect><path d="M18.7178709,101.877551 L108.984832,101.877551 C111.329224,101.877551 113.22973,103.778057 113.22973,106.122449 L113.22973,106.122449 C113.22973,108.466841 111.329224,110.367347 108.984832,110.367347 L18.7178709,110.367347 C16.3734785,110.367347 14.472973,108.466841 14.472973,106.122449 L14.472973,106.122449 C14.472973,103.778057 16.3734785,101.877551 18.7178709,101.877551 Z" id="Rectangle-28" fill="#97E7CC"></path><path d="M112.876517,104.42449 C113.103701,104.944458 113.22973,105.518736 113.22973,106.122449 C113.22973,108.466841 111.329224,110.367347 108.984832,110.367347 L18.7178709,110.367347 C16.3734785,110.367347 14.472973,108.466841 14.472973,106.122449 C14.472973,105.518736 14.5990019,104.944458 14.8261856,104.42449 L112.876517,104.42449 Z" id="Combined-Shape" fill="#C1FEE9"></path><path d="M54.6067622,101.877551 L75.3363826,101.877551 L75.3363826,104.830095 C75.3363826,106.950478 77.0552927,108.669388 79.1756757,108.669388 L51.9324324,108.348336 L51.9324324,108.348336 C53.409424,108.348336 54.6067622,107.150998 54.6067622,105.674006 L54.6067622,101.877551 Z" id="Rectangle-31" fill="#063F49" opacity="0.200000003"></path><polygon id="Rectangle-24" fill="#055361" points="26.3918919 33.9591837 88.5405405 33.9591837 88.5405405 42.4489796 26.3918919 42.4489796"></polygon><polygon id="Rectangle-25" fill="#055361" points="10.2162162 33.9591837 12.7702703 33.9591837 12.7702703 112.065306 10.2162162 112.065306"></polygon><rect id="Rectangle-25-Copy-2" fill="#97E7CC" transform="translate(13.621622, 73.012245) scale(-1, 1) translate(-13.621622, -73.012245) " x="12.7702703" y="33.9591837" width="1.7027027" height="78.1061224"></rect><path d="M14.0461114,48.3918367 L94.0755102,48.3918367 C94.3099494,48.3918367 94.5,48.5818873 94.5,48.8163265 L94.5,48.8163265 C94.5,49.0507658 94.3099494,49.2408163 94.0755102,49.2408163 L14.0461114,49.2408163 C13.8116722,49.2408163 13.6216216,49.0507658 13.6216216,48.8163265 L13.6216216,48.8163265 C13.6216216,48.5818873 13.8116722,48.3918367 14.0461114,48.3918367 Z" id="Rectangle-26" fill="#C1FEE9"></path><rect id="Rectangle-29" fill="#0D6574" x="20.4324324" y="47.5428571" width="8.51351351" height="2.54693878" rx="1.27346939"></rect><rect id="Rectangle-29-Copy" fill="#0D6574" x="86.8378378" y="47.5428571" width="5.10810811" height="2.54693878" rx="1.27346939"></rect><polygon id="Rectangle-27" fill="#0D6574" points="43.4189189 45.844898 83.4324324 45.844898 83.4324324 51.7877551 43.4189189 51.7877551"></polygon><rect id="Rectangle-27-Copy" fill="#055361" x="43.4189189" y="45.844898" width="8.51351351" height="5.94285714"></rect><ellipse id="Oval-24" fill="#C1FEE9" cx="45.1216216" cy="47.5428571" rx="1" ry="1"></ellipse><ellipse id="Oval-24-Copy" fill="#FEE3C1" cx="47.6756757" cy="47.5428571" rx="1" ry="1"></ellipse><ellipse id="Oval-24-Copy-2" fill="#FF7D46" cx="50.2297297" cy="47.5428571" rx="1" ry="1"></ellipse><g id="Group-45" transform="translate(40.013514, 55.183673)"><polygon id="Path-132" fill="#9DF4D7" points="8.62371188 0 0 12.9975609 24.4408388 41.6 46.8149684 12.9975609 38.4596119 0"></polygon><polygon id="Path-132-Copy" fill="#C1FEE9" points="17.7864532 0 12.2171908 13.8397425 24.4408388 41.6 46.8149684 12.9975609 38.4596119 0"></polygon></g><path d="M70.1590692,19.4852111 L65.7867869,35.30752 L65.7867869,111.00729 L67.1394428,123.95102 L18.7297297,123.95102 L0.635254216,110.584357 L0.635254216,36.300788 L21.905192,19.4118811 L70.1590692,19.4852111 Z M11.5099969,39.9593656 C9.63222877,39.9593656 8.10999692,41.4815974 8.10999692,43.3593656 L8.10999692,104.363083 C8.10999692,106.240852 9.63222877,107.763083 11.5099969,107.763083 L54.8954085,107.763083 C56.7731766,107.763083 58.2954085,106.240852 58.2954085,104.363083 L58.2954085,43.3593656 C58.2954085,41.4815974 56.7731766,39.9593656 54.8954085,39.9593656 L11.5099969,39.9593656 Z" id="Combined-Shape" fill="url(#linearGradient-2)"></path><polygon id="Path-133" fill="#0D6574" opacity="0.5" points="28.700566 23.7714286 21.2837838 30.7210806 43.8929447 30.7210806 47.2951456 23.7714286"></polygon><polygon id="Path-133-Copy" fill="#0D6574" opacity="0.5" points="28.700566 23.7714286 27.8091108 30.7210806 43.8293603 30.7210806 47.2951456 23.7714286"></polygon><rect id="Rectangle-30" stroke="#055361" stroke-width="0.5" opacity="0.37109375" x="5.35810811" y="36.7561224" width="55.6891892" height="73.3612245" rx="5.95"></rect><path d="M69.4219621,19.4853847 L105.362393,19.5387085 L125.231314,36.300788 L125.231314,110.584357 L107.25263,123.95102 L66.2606338,123.95102 L64.8102578,110.072196 L64.8102578,36.1741077 L69.4219621,19.4853847 Z M76.9931144,39.9226138 C74.1764622,39.9226138 71.8931144,42.2059616 71.8931144,45.0226138 L71.8931144,102.699835 C71.8931144,105.516487 74.1764622,107.799835 76.9931144,107.799835 L115.412291,107.799835 C118.228943,107.799835 120.512291,105.516487 120.512291,102.699835 L120.512291,45.0226138 C120.512291,42.2059616 118.228943,39.9226138 115.412291,39.9226138 L76.9931144,39.9226138 Z" id="Combined-Shape" fill="url(#linearGradient-1)"></path><rect id="Rectangle-30-Copy" stroke="#055361" stroke-width="0.5" opacity="0.37109375" x="69.2094595" y="36.7561224" width="53.1351351" height="73.3612245" rx="5.95"></rect><ellipse id="Oval-25" fill="#C1FEE9" cx="32.3513514" cy="27.1673469" rx="1" ry="1"></ellipse><ellipse id="Oval-25-Copy" fill="#C1FEE9" cx="35.7567568" cy="27.1673469" rx="1" ry="1"></ellipse><ellipse id="Oval-25-Copy-2" fill="#C1FEE9" cx="40.0135135" cy="27.1673469" rx="1" ry="1"></ellipse></g></g><g id="Group-49" transform="translate(210.000000, 0.000000)"><path d="M97.9965777,108.20093 L0.628022469,368.980559" id="Path-135" stroke="#64C2A1" stroke-width="3.84" stroke-linecap="round" stroke-linejoin="round"></path><path d="M219.733096,149.056142 L239.566116,368.790191" id="Path-134" stroke="#64C2A1" stroke-width="3.84" stroke-linecap="round" stroke-linejoin="round"></path><path d="M63.7887371,149.056142 L83.6217563,368.790191" id="Path-134-Copy" stroke="#64C2A1" stroke-width="3.84" stroke-linecap="round" stroke-linejoin="round"></path><g id="Group-47" transform="translate(29.605458, 0.000000)"><polygon id="Rectangle-35-Copy" fill="url(#linearGradient-6)" points="23.8134436 258.927422 211.254674 258.927422 187.655749 0 0.214518152 0"></polygon><polygon id="Rectangle-35-Copy-2" fill="#0D6574" points="28.8051682 258.927422 216.246399 258.927422 192.647473 0 5.20624269 0"></polygon><path d="M48.7925334,124.853727 L127.740159,124.853727" id="Path-141" stroke="#FFFFFF" stroke-width="1.92" opacity="0.699999988" stroke-linecap="round" stroke-linejoin="round" stroke-dasharray="2.880000114440918,4.8"></path><g id="Group-54" transform="translate(45.528302, 140.948052)"><g id="Rectangle-35"><use fill="black" fill-opacity="1" filter="url(#filter-8)" xlink:href="#path-7"></use><use fill="#9EE7CE" fill-rule="evenodd" xlink:href="#path-7"></use></g><g id="Group-53" transform="translate(14.820816, 11.380725)" opacity="0.5"><path d="M12.1650108,21.6233766 C18.2078228,21.6233766 22.6087353,16.7828189 21.9947239,10.8116883 C21.3807126,4.84055774 15.984291,0 9.941479,0 C3.89866701,0 -0.502245441,4.84055774 0.111765924,10.8116883 C0.725777289,16.7828189 6.12219886,21.6233766 12.1650108,21.6233766 Z" id="Oval-26" stroke="#0D6574" stroke-width="3.456"></path><path d="M11.6383849,16.5020506 C14.8188122,16.5020506 17.135082,13.9543886 16.8119181,10.8116883 C16.4887542,7.66898801 13.6485323,5.12132604 10.468105,5.12132604 C7.2876776,5.12132604 4.97140789,7.66898801 5.29457177,10.8116883 C5.61773564,13.9543886 8.45795752,16.5020506 11.6383849,16.5020506 Z" id="Oval-26-Copy" stroke="#5CC188" stroke-width="3.456"></path><path d="M33.552039,15.9330144 L140.719074,15.9330144" id="Path-140-Copy" stroke="#3C9585" stroke-width="4.608" stroke-linecap="round" stroke-linejoin="round"></path><path d="M33.552039,4.55228982 L70.6844654,4.55228982" id="Path-140" stroke="#0D6574" stroke-width="4.608" stroke-linecap="round" stroke-linejoin="round"></path></g></g><path d="M53.6147066,200.729505 L133.56016,200.729505" id="Path-142" stroke="#5ABBA9" stroke-width="3.84" opacity="0.600000024" stroke-linecap="round" stroke-linejoin="round"></path><path d="M54.8128198,214.175291 L134.758273,214.175291" id="Path-142-Copy" stroke="#5ABBA9" stroke-width="3.84" opacity="0.600000024" stroke-linecap="round" stroke-linejoin="round"></path><path d="M56.010933,227.621077 L196.105913,227.621077" id="Path-142-Copy-2" stroke="#5ABBA9" stroke-width="3.84" opacity="0.600000024" stroke-linecap="round" stroke-linejoin="round"></path><g id="Group-52" transform="translate(41.623834, 49.941491)"><polygon id="Path-132" fill="url(#linearGradient-6)" points="10.4304816 0 0 19.5047346 42.6005619 62.4268635 70.6824377 19.5047346 55.4774872 0"></polygon><polygon id="Path-132-Copy-2" fill="#0D6574" opacity="0.252830616" points="42.6005619 62.4268635 70.6824377 19.5047346 55.4774872 0 35.4238586 0"></polygon></g><g id="Group-51" opacity="0.699999988" transform="translate(125.689868, 48.020664)" stroke="#FFFFFF" stroke-linecap="round" stroke-linejoin="round" stroke-width="1.92"><polyline id="Path-138" points="0 0 9.33792397 0 17.8153718 55.7829868 8.23620239 55.7829868"></polyline><path d="M6.71625249,21.1290923 L12.3815468,21.1290923" id="Path-139-Copy"></path><path d="M8.63518178,33.614465 L14.3004761,33.614465" id="Path-139-Copy-2"></path><path d="M10.5541111,46.0998377 L15.2599407,46.0998377" id="Path-139-Copy-3"></path><path d="M4.79732321,8.64371956 L10.4626175,8.64371956" id="Path-139"></path></g><g id="Group-50" opacity="0.699999988" transform="translate(39.338050, 26.891572)" stroke="#FFFFFF" stroke-linecap="round" stroke-linejoin="round" stroke-width="1.92"><path d="M0,0.960413285 L60.8160835,0.960413285" id="Path-136"></path><path d="M9.59464642,0.960413285 L10.1388195,4.57397489" id="Path-137-Copy"></path><path d="M18.2298282,0.960413285 L18.7740013,4.57397489" id="Path-137-Copy-2"></path><path d="M26.86501,0.960413285 L27.409183,4.57397489" id="Path-137-Copy-3"></path><path d="M35.5001917,0.960413285 L36.0443648,4.57397489" id="Path-137-Copy-4"></path><path d="M44.1353735,0.960413285 L44.6795466,4.57397489" id="Path-137-Copy-5"></path><path d="M52.7705553,0.960413285 L53.3147284,4.57397489" id="Path-137-Copy-6"></path><path d="M61.4057371,0.960413285 L62.5155865,8.15741127" id="Path-137-Copy-7"></path><path d="M0,0.960413285 L1.12784459,8.44982454" id="Path-137"></path></g></g></g><path d="M414.686458,34.376218 C424.146864,28.1069767 423.280453,24.252802 429.148487,23.264682 C435.016521,22.276562 436.596176,27.0799452 445.568969,25.1508913 C454.541762,23.2218374 454.391553,-0.383310237 480.327982,0.00473127492 C506.264412,0.392772787 505.278571,30.3223924 513.189095,30.3223924 C521.09962,30.3223924 520.72504,23.264682 532.584698,23.264682 C544.444355,23.264682 549.71726,44 574.914654,44 L382,44 C397.484034,41.7636395 408.37952,38.5557122 414.686458,34.376218 Z" id="Path-72-Copy-2" fill="#33BAAA" opacity="0.200000003"></path><path d="M66.7993734,96.3738038 C81.2127519,86.8223163 79.8927336,80.9502978 88.8329627,79.44485 C97.7731919,77.9394022 100.179872,85.257585 113.850349,82.3185796 C127.520827,79.3795742 127.291975,43.4160086 166.80736,44.0072083 C206.322744,44.598408 204.820768,90.1976076 216.872829,90.1976076 C228.924889,90.1976076 228.354199,79.44485 246.422951,79.44485 C264.491704,79.44485 272.525226,111.036094 310.914654,111.036094 L17,111.036094 C40.5906632,107.628892 57.1904544,102.741462 66.7993734,96.3738038 Z" id="Path-72-Copy-3" fill="#33BAAA" opacity="0.200000003"></path><g id="Group-57" transform="translate(456.000000, 231.000000)"><g id="Group-56" transform="translate(93.280000, 0.000000)"><rect id="Rectangle-38" fill="url(#linearGradient-6)" x="45.76" y="32.5829457" width="12.32" height="48.4341085"></rect><rect id="Rectangle-38-Copy" fill="url(#linearGradient-9)" x="56.32" y="32.5829457" width="2.64" height="48.4341085"></rect><polyline id="Path-143" stroke="#97E7CC" stroke-width="3.52" stroke-linecap="round" stroke-linejoin="round" points="66.1929669 138.638019 66.1929669 86.3007752 33.9820526 86.3007752 22 138.638019"></polyline><polyline id="Path-143-Copy" stroke="#97E7CC" stroke-width="3.52" stroke-linecap="round" stroke-linejoin="round" points="44.1929669 138.638019 44.1929669 86.3007752 11.9820526 86.3007752 -2.27373675e-13 138.638019"></polyline><path d="M6.16434109,75.7333333 L66.8756589,75.7333333 C70.2801305,75.7333333 73.04,78.4932028 73.04,81.8976744 L73.04,81.8976744 C73.04,85.302146 70.2801305,88.0620155 66.8756589,88.0620155 L6.16434109,88.0620155 C2.75986951,88.0620155 4.16927522e-16,85.302146 0,81.8976744 L0,81.8976744 C-4.16927522e-16,78.4932028 2.75986951,75.7333333 6.16434109,75.7333333 Z" id="Rectangle-37" fill="#0D6574"></path><path d="M43.1243411,75.7333333 L68.6356589,75.7333333 C72.0401305,75.7333333 74.8,78.4932028 74.8,81.8976744 L74.8,81.8976744 C74.8,85.302146 72.0401305,88.0620155 68.6356589,88.0620155 L43.1243411,88.0620155 C39.7198695,88.0620155 36.96,85.302146 36.96,81.8976744 L36.96,81.8976744 C36.96,78.4932028 39.7198695,75.7333333 43.1243411,75.7333333 Z" id="Rectangle-37-Copy" fill="#055361"></path><g id="Group-55" transform="translate(27.280000, 0.000000)"><path d="M27.9629851,0 L27.9629851,0 C39.5184307,-2.12270092e-15 48.8859701,9.3675395 48.8859701,20.9229851 L48.8859701,41.3928682 C48.8859701,44.3089317 46.5220336,46.6728682 43.6059701,46.6728682 L12.32,46.6728682 C9.40393652,46.6728682 7.04,44.3089317 7.04,41.3928682 L7.04,20.9229851 C7.04,9.3675395 16.4075395,2.12270092e-15 27.9629851,0 Z" id="Rectangle-36-Copy" fill="#055361"></path><path d="M20.9229851,0 L20.9229851,0 C32.4784307,-2.12270092e-15 41.8459701,9.3675395 41.8459701,20.9229851 L41.8459701,41.3928682 C41.8459701,44.3089317 39.4820336,46.6728682 36.5659701,46.6728682 L5.28,46.6728682 C2.36393652,46.6728682 4.24209176e-15,44.3089317 0,41.3928682 L0,20.9229851 C-1.41513394e-15,9.3675395 9.3675395,2.12270092e-15 20.9229851,0 Z" id="Rectangle-36" fill="#0D6574"></path></g></g><g id="Group-44" transform="translate(0.000000, 0.880620)"><g id="Group-48" transform="translate(8.800000, 51.075969)"><path d="M0,0 L7.05294118,0 L4.81999274,86.8012379 C4.79874785,87.627089 4.12315771,88.2855232 3.29703341,88.2855232 L3.29703341,88.2855232 C2.47213062,88.2855232 1.79871457,87.6257886 1.78178517,86.8010596 L0,0 Z" id="Rectangle-22-Copy-3" fill="url(#linearGradient-10)"></path><polygon id="Rectangle-22-Copy-4" fill="#0D6574" opacity="0.400000006" points="0 0 7.05294118 0 6.86595048 7.26887548 0.148474633 7.23305801"></polygon></g><g id="Group-48-Copy-2" transform="translate(119.680000, 51.075969)"><path d="M0,0 L7.05294118,0 L4.81999274,86.8012379 C4.79874785,87.627089 4.12315771,88.2855232 3.29703341,88.2855232 L3.29703341,88.2855232 C2.47213062,88.2855232 1.79871457,87.6257886 1.78178517,86.8010596 L0,0 Z" id="Rectangle-22-Copy-3" fill="url(#linearGradient-10)"></path><polygon id="Rectangle-22-Copy-4" fill="#0D6574" opacity="0.400000006" points="0 0 7.05294118 0 6.86595048 7.26887548 0.148474633 7.23305801"></polygon></g><g id="Group-48-Copy" transform="translate(46.640000, 51.075969)"><path d="M0,0 L7.05294118,0 L4.81999274,86.8012379 C4.79874785,87.627089 4.12315771,88.2855232 3.29703341,88.2855232 L3.29703341,88.2855232 C2.47213062,88.2855232 1.79871457,87.6257886 1.78178517,86.8010596 L0,0 Z" id="Rectangle-22-Copy-3" fill="url(#linearGradient-10)"></path><polygon id="Rectangle-22-Copy-4" fill="#0D6574" opacity="0.400000006" points="0 0 7.05294118 0 6.86595048 7.26887548 0.148474633 7.23305801"></polygon></g><g id="Group-48-Copy-3" transform="translate(157.520000, 51.075969)"><path d="M0,0 L7.05294118,0 L4.81999274,86.8012379 C4.79874785,87.627089 4.12315771,88.2855232 3.29703341,88.2855232 L3.29703341,88.2855232 C2.47213062,88.2855232 1.79871457,87.6257886 1.78178517,86.8010596 L0,0 Z" id="Rectangle-22-Copy-3" fill="url(#linearGradient-10)"></path><polygon id="Rectangle-22-Copy-4" fill="#0D6574" opacity="0.400000006" points="0 0 7.05294118 0 6.86595048 7.26887548 0.148474633 7.23305801"></polygon></g><g id="Group-43" transform="translate(36.675294, 0.000000)"><rect id="Rectangle-20" fill="url(#linearGradient-11)" x="59.2447059" y="38.8456302" width="48.6652941" height="4.9439893" rx="2.47199465"></rect><rect id="Rectangle-21" fill="#0D6574" opacity="0.5" x="74.0558824" y="40.9644827" width="7.05294118" height="1.41256837" rx="0.706284185"></rect><rect id="Rectangle-21-Copy" fill="#0D6574" opacity="0.5" x="83.93" y="40.9644827" width="7.05294118" height="1.41256837" rx="0.706284185"></rect><g id="Group-42"><path d="M4.81530272,0 L60.533538,0 C63.2602003,0 65.833267,2.2134994 66.2806433,4.9439893 L71.8352477,38.8456302 C72.282624,41.5761201 70.4348976,43.7896195 67.7082353,43.7896195 L11.99,43.7896195 C9.2633377,43.7896195 6.69027102,41.5761201 6.24289471,38.8456302 L0.688290367,4.9439893 C0.240914056,2.2134994 2.08864043,0 4.81530272,0 Z" id="Rectangle-19" fill="url(#linearGradient-6)"></path><g id="Oval-23"><use fill="black" fill-opacity="1" filter="url(#filter-13)" xlink:href="#path-12"></use><use fill="#DFFFF4" fill-rule="evenodd" xlink:href="#path-12"></use></g></g></g><path d="M4.9439893,43.7896195 L137.525422,43.7896195 C140.255912,43.7896195 142.469412,46.0031189 142.469412,48.7336088 L142.469412,48.7336088 C142.469412,51.4640987 140.255912,53.6775981 137.525422,53.6775981 L4.9439893,53.6775981 C2.2134994,53.6775981 3.34388571e-16,51.4640987 0,48.7336088 L0,48.7336088 C-3.34388571e-16,46.0031189 2.2134994,43.7896195 4.9439893,43.7896195 Z" id="Rectangle-18" fill="#0D6574"></path><path d="M118.496342,43.7896195 L171.056011,43.7896195 C173.786501,43.7896195 176,46.0031189 176,48.7336088 L176,48.7336088 C176,51.4640987 173.786501,53.6775981 171.056011,53.6775981 L118.496342,53.6775981 C115.765852,53.6775981 113.552353,51.4640987 113.552353,48.7336088 L113.552353,48.7336088 C113.552353,46.0031189 115.765852,43.7896195 118.496342,43.7896195 Z" id="Rectangle-18-Copy" fill="url(#linearGradient-14)"></path></g></g><path d="M0,370.75 L500.949861,370.75" id="Path-145" stroke="#3FBDA1" stroke-width="1.5" stroke-linecap="round" stroke-linejoin="round"></path><path d="M541.168422,370.5 L686.521501,370.5" id="Path-145-Copy" stroke="#3FBDA1" stroke-width="1.5" stroke-linecap="round" stroke-linejoin="round"></path><g id="Group-61" transform="translate(602.000000, 315.000000)"><g id="Group-69"><path d="M33.2443761,64.015478 L66.6958027,64.015478 C62.3126256,56.134793 56.7373879,52.1548365 49.9700894,52.0756085 C43.202791,51.9963805 37.6275532,55.976337 33.2443761,64.015478 Z" id="Path-83" fill="#0D505D"></path><g id="Group-68" transform="translate(46.933237, 0.000000)"><path d="M65.0637016,58.9515217 C39.9295039,63.9982798 27.3624051,60.4994072 27.3624051,48.4549039 C27.3624051,30.3881489 -6.5074173,36.6127975 6.52995667,25.2968181 C17.6562109,15.639623 7.7119743,13.7870491 4.90631584,11.6885858 C2.12982232,9.61193604 -2.53442963,4.69895643 1.92550326,2.01981747 C8.70720322,-2.05403679 19.7019705,-0.695062428 27.3624051,13.6566674 C29.4626549,17.5914597 33.3646369,0.255840638 35.9951321,4.35241748 C39.9256474,10.4735684 39.8237971,28.3847802 44.7014132,29.3206638 C48.0208442,29.9575735 50.6722263,17.3433548 53.8274124,19.6634687 C61.0902669,25.0040886 64.8356967,38.1001063 65.0637016,58.9515217 Z M52.4908837,28.8619589 C50.8336196,35.0795015 51.3336496,37.9312931 53.9909739,37.4173339 C56.6482981,36.9033746 56.148268,34.051583 52.4908837,28.8619589 Z" id="Combined-Shape" fill="#2EAD9E" transform="translate(32.570701, 30.604723) scale(-1, 1) translate(-32.570701, -30.604723) "></path><path d="M14.3407112,46.5627117 C22.8585168,42.7290532 29.1597315,41.451167 33.2443554,42.7290532" id="Path-86" stroke="#0D6574" stroke-width="0.9747"></path><path d="M23.4666184,34.8627544 C31.9844239,31.0290959 38.2856386,29.7512097 42.3702626,31.0290959" id="Path-86-Copy" stroke="#0D6574" stroke-width="0.9747"></path><path d="M32.5925256,24.4627923 C41.1103311,20.6291338 47.4115458,19.3512476 51.4961697,20.6291338" id="Path-86-Copy-2" stroke="#0D6574" stroke-width="0.9747"></path><path d="M14.9191073,30.5498886 C16.2563218,38.5765222 15.6289561,44.3695556 13.0370102,47.9289888" id="Path-87-Copy" stroke="#0D6574" stroke-width="0.9747"></path><path d="M8.11489763,55.2904945 C27.3684298,26.0835088 45.6872802,9.76056454 63.0714488,6.32166162" id="Path-85" stroke="#0D6574" stroke-width="0.9747"></path><path d="M29.9116691,11.6999573 C31.2488836,19.726591 30.6215179,25.5196244 28.029572,29.0790576" id="Path-87" stroke="#0D6574" stroke-width="0.9747"></path></g><path d="M50.896312,30.6662241 C56.349716,39.7997631 60.7534118,49.9631004 64.1073994,61.156236 C59.2628544,61.0022391 53.5640335,60.2673343 47.0109368,58.9515217 C47.1420969,46.9567199 48.437222,37.5282873 50.896312,30.6662241 Z" id="Combined-Shape" fill="#0D6574" opacity="0.320652174"></path><g id="Group-67" transform="translate(0.000000, 13.649950)"><path d="M59.3183965,46.7034687 C48.4123449,20.2838051 33.94356,5.43001531 15.9120417,2.14209943 C10.9402458,1.2355287 5.67084008,0.521495557 0.103824438,0 C-1.63249767,14.8630506 19.0179694,11.1318435 16.5806504,15.2068987 C13.2154516,20.8333146 11.9246751,23.1585227 28.2487509,29.6690864 C48.8818307,37.8982187 32.0085981,32.3588534 29.1302632,35.2453689 C21.5481909,42.8489905 37.7029149,48.8276956 45.8407377,48.0279641 L59.3183965,46.7034687 Z" id="Path-31" fill="#33BAAA"></path><path d="M48.8887883,27.6776693 C42.8144282,26.4914451 37.8169076,28.0988491 33.8962266,32.4998814" id="Path-33" stroke="#0D6574" stroke-width="0.925965" transform="translate(41.392507, 29.899891) scale(-1, 1) translate(-41.392507, -29.899891) "></path><path d="M53.4517419,37.0498648 C48.7691119,37.0644565 44.8580088,38.7977836 41.7184327,42.2498459" id="Path-33-Copy-3" stroke="#0D6574" stroke-width="0.925965" transform="translate(47.585087, 39.649855) scale(-1, 1) translate(-47.585087, -39.649855) "></path><path d="M40.4147317,18.833844 C34.1435935,15.179328 26.9732379,15.4013563 18.9036648,19.4999289" id="Path-33-Copy-2" stroke="#0D6574" stroke-width="0.925965" transform="translate(29.659198, 17.874935) scale(-1, 1) translate(-29.659198, -17.874935) "></path><path d="M33.8962266,11.31948 C26.8647132,8.04928735 19.2597906,8.39277901 11.0814587,12.3499549" id="Path-33-Copy" stroke="#0D6574" stroke-width="0.925965" transform="translate(22.488843, 10.724961) scale(-1, 1) translate(-22.488843, -10.724961) "></path><path d="M54.1035924,1.94999289 C28.6457383,2.76757861 11.697625,17.5008582 3.25925256,46.1498316" id="Path-34" stroke="#0D6574" stroke-width="0.925965" transform="translate(28.681422, 24.049912) scale(-1, 1) translate(-28.681422, -24.049912) "></path></g><path d="M50,68.3156629 L83.4514267,68.3156629 C76.9083348,59.518477 70.2531396,55.0802701 63.4858412,55.0010421 C56.7185427,54.9218142 52.2232623,59.3600211 50,68.3156629 Z" id="Path-83-Copy" fill="#176574"></path></g><g id="Group-62" transform="translate(27.000000, 64.000000)"><polygon id="Rectangle-39" fill="url(#linearGradient-2)" points="0 0 60 0 54.8031716 29 5.19682843 29"></polygon><path d="M57.1327843,16 L2.86721568,16 L0,0 L60,0 L57.1327843,16 Z" id="Combined-Shape" fill="#0D6574" opacity="0.200000003"></path></g></g><g id="Group-61-Copy" transform="translate(214.500000, 373.500000) scale(-1, 1) translate(-214.500000, -373.500000) translate(158.000000, 327.000000)"><g id="Group-69"><path d="M33.2443761,64.015478 L66.6958027,64.015478 C62.3126256,56.134793 56.7373879,52.1548365 49.9700894,52.0756085 C43.202791,51.9963805 37.6275532,55.976337 33.2443761,64.015478 Z" id="Path-83" fill="#0D505D"></path><g id="Group-68" transform="translate(46.933237, 0.000000)"><path d="M65.0637016,58.9515217 C39.9295039,63.9982798 27.3624051,60.4994072 27.3624051,48.4549039 C27.3624051,30.3881489 -6.5074173,36.6127975 6.52995667,25.2968181 C17.6562109,15.639623 7.7119743,13.7870491 4.90631584,11.6885858 C2.12982232,9.61193604 -2.53442963,4.69895643 1.92550326,2.01981747 C8.70720322,-2.05403679 19.7019705,-0.695062428 27.3624051,13.6566674 C29.4626549,17.5914597 33.3646369,0.255840638 35.9951321,4.35241748 C39.9256474,10.4735684 39.8237971,28.3847802 44.7014132,29.3206638 C48.0208442,29.9575735 50.6722263,17.3433548 53.8274124,19.6634687 C61.0902669,25.0040886 64.8356967,38.1001063 65.0637016,58.9515217 Z M52.4908837,28.8619589 C50.8336196,35.0795015 51.3336496,37.9312931 53.9909739,37.4173339 C56.6482981,36.9033746 56.148268,34.051583 52.4908837,28.8619589 Z" id="Combined-Shape" fill="#2EAD9E" transform="translate(32.570701, 30.604723) scale(-1, 1) translate(-32.570701, -30.604723) "></path><path d="M14.3407112,46.5627117 C22.8585168,42.7290532 29.1597315,41.451167 33.2443554,42.7290532" id="Path-86" stroke="#0D6574" stroke-width="0.9747"></path><path d="M23.4666184,34.8627544 C31.9844239,31.0290959 38.2856386,29.7512097 42.3702626,31.0290959" id="Path-86-Copy" stroke="#0D6574" stroke-width="0.9747"></path><path d="M32.5925256,24.4627923 C41.1103311,20.6291338 47.4115458,19.3512476 51.4961697,20.6291338" id="Path-86-Copy-2" stroke="#0D6574" stroke-width="0.9747"></path><path d="M14.9191073,30.5498886 C16.2563218,38.5765222 15.6289561,44.3695556 13.0370102,47.9289888" id="Path-87-Copy" stroke="#0D6574" stroke-width="0.9747"></path><path d="M8.11489763,55.2904945 C27.3684298,26.0835088 45.6872802,9.76056454 63.0714488,6.32166162" id="Path-85" stroke="#0D6574" stroke-width="0.9747"></path><path d="M29.9116691,11.6999573 C31.2488836,19.726591 30.6215179,25.5196244 28.029572,29.0790576" id="Path-87" stroke="#0D6574" stroke-width="0.9747"></path></g><path d="M50.896312,30.6662241 C56.349716,39.7997631 60.7534118,49.9631004 64.1073994,61.156236 C59.2628544,61.0022391 53.5640335,60.2673343 47.0109368,58.9515217 C47.1420969,46.9567199 48.437222,37.5282873 50.896312,30.6662241 Z" id="Combined-Shape" fill="#0D6574" opacity="0.320652174"></path><g id="Group-67" transform="translate(0.000000, 13.649950)"><path d="M59.3183965,46.7034687 C48.4123449,20.2838051 33.94356,5.43001531 15.9120417,2.14209943 C10.9402458,1.2355287 5.67084008,0.521495557 0.103824438,0 C-1.63249767,14.8630506 19.0179694,11.1318435 16.5806504,15.2068987 C13.2154516,20.8333146 11.9246751,23.1585227 28.2487509,29.6690864 C48.8818307,37.8982187 32.0085981,32.3588534 29.1302632,35.2453689 C21.5481909,42.8489905 37.7029149,48.8276956 45.8407377,48.0279641 L59.3183965,46.7034687 Z" id="Path-31" fill="#33BAAA"></path><path d="M48.8887883,27.6776693 C42.8144282,26.4914451 37.8169076,28.0988491 33.8962266,32.4998814" id="Path-33" stroke="#0D6574" stroke-width="0.925965" transform="translate(41.392507, 29.899891) scale(-1, 1) translate(-41.392507, -29.899891) "></path><path d="M53.4517419,37.0498648 C48.7691119,37.0644565 44.8580088,38.7977836 41.7184327,42.2498459" id="Path-33-Copy-3" stroke="#0D6574" stroke-width="0.925965" transform="translate(47.585087, 39.649855) scale(-1, 1) translate(-47.585087, -39.649855) "></path><path d="M40.4147317,18.833844 C34.1435935,15.179328 26.9732379,15.4013563 18.9036648,19.4999289" id="Path-33-Copy-2" stroke="#0D6574" stroke-width="0.925965" transform="translate(29.659198, 17.874935) scale(-1, 1) translate(-29.659198, -17.874935) "></path><path d="M33.8962266,11.31948 C26.8647132,8.04928735 19.2597906,8.39277901 11.0814587,12.3499549" id="Path-33-Copy" stroke="#0D6574" stroke-width="0.925965" transform="translate(22.488843, 10.724961) scale(-1, 1) translate(-22.488843, -10.724961) "></path><path d="M54.1035924,1.94999289 C28.6457383,2.76757861 11.697625,17.5008582 3.25925256,46.1498316" id="Path-34" stroke="#0D6574" stroke-width="0.925965" transform="translate(28.681422, 24.049912) scale(-1, 1) translate(-28.681422, -24.049912) "></path></g><path d="M50,68.3156629 L83.4514267,68.3156629 C76.9083348,59.518477 70.2531396,55.0802701 63.4858412,55.0010421 C56.7185427,54.9218142 52.2232623,59.3600211 50,68.3156629 Z" id="Path-83-Copy" fill="#176574"></path></g><g id="Group-62" transform="translate(27.000000, 64.000000)"><polygon id="Rectangle-39" fill="url(#linearGradient-2)" points="0 0 60 0 54.8031716 29 5.19682843 29"></polygon><path d="M57.1327843,16 L2.86721568,16 L0,0 L60,0 L57.1327843,16 Z" id="Combined-Shape" fill="#0D6574" opacity="0.200000003"></path></g></g><ellipse id="Oval-29" stroke="#3FBDA1" stroke-width="1.5" stroke-linecap="round" stroke-linejoin="round" cx="596.5" cy="395" rx="14.5" ry="5"></ellipse><ellipse id="Oval-29-Copy" stroke="#3FBDA1" stroke-width="1.5" stroke-linecap="round" stroke-linejoin="round" cx="618.5" cy="410.5" rx="7.5" ry="2.5"></ellipse></g></g></g></g></svg> 