<?xml version="1.0" encoding="UTF-8"?> <svg xmlns="http://www.w3.org/2000/svg" xmlns:xlink="http://www.w3.org/1999/xlink" width="561px" height="487px" viewBox="0 0 561 487"><!-- Generator: Sketch 52.5 (67469) - http://www.bohemiancoding.com/sketch --><title>Deployment</title><desc>Created with Sketch.</desc><defs><path d="M105.739155,25.3678966 C63.7956444,3.45060679 28.8388385,-3.85515646 0.868737758,3.45060679 C7.45878646,19.0586172 14.2977528,26.8626225 21.3856367,26.8626225 C32.0174625,26.8626225 45.0171394,20.9372932 49.1605429,31.8370061 C53.3039467,42.736719 62.0917228,59.8296335 79.6511582,59.8296335 C91.3574485,59.8296335 103.252665,54.499873 115.336809,43.8403519 L105.739155,25.3678966 Z" id="path-1"></path><path d="M105.739155,25.3678966 C63.7956444,3.45060679 28.8388385,-3.85515646 0.868737758,3.45060679 C7.45878646,19.0586172 14.2977528,26.8626225 21.3856367,26.8626225 C32.0174625,26.8626225 45.0171394,20.9372932 49.1605429,31.8370061 C53.3039467,42.736719 62.0917228,59.8296335 79.6511582,59.8296335 C91.3574485,59.8296335 103.252665,54.499873 115.336809,43.8403519 L105.739155,25.3678966 Z" id="path-3"></path><path d="M117.219006,106.529595 C116.869985,74.6180752 111.136622,54.5756072 100.018919,46.4021911 C83.3423639,34.1420667 71.9305413,49.3411012 59.1451824,34.1420667 C46.3598235,18.9430321 35.467732,0.230722514 18.2911744,0.230722514 C1.11461681,0.230722514 -4.66102325,15.6286923 4.95373135,24.8853795 C14.568486,34.1420667 26.4744286,35.5499278 23.3361775,61.1818003 C20.1979263,86.8136725 59.5072852,62.8155058 59.5072852,90.4653124 C59.5072852,108.898517 78.7445254,114.253278 117.219006,106.529595 Z" id="path-5"></path><path d="M117.219006,106.529595 C116.869985,74.6180752 111.136622,54.5756072 100.018919,46.4021911 C83.3423639,34.1420667 71.9305413,49.3411012 59.1451824,34.1420667 C46.3598235,18.9430321 35.467732,0.230722514 18.2911744,0.230722514 C1.11461681,0.230722514 -4.66102325,15.6286923 4.95373135,24.8853795 C14.568486,34.1420667 26.4744286,35.5499278 23.3361775,61.1818003 C20.1979263,86.8136725 59.5072852,62.8155058 59.5072852,90.4653124 C59.5072852,108.898517 78.7445254,114.253278 117.219006,106.529595 Z" id="path-7"></path></defs><g id="Pages" stroke="none" stroke-width="1" fill="none" fill-rule="evenodd"><g id="Messaging" transform="translate(-248.000000, -2152.000000)"><g id="Deployment" transform="translate(0.000000, 2071.000000)"><g transform="translate(232.000000, 81.000000)"><path d="M168.951947,145.662008 L27.7045446,145.662008 C41.7208605,144.53206 49.245173,142.782291 50.2774821,140.412701 C51.8259457,136.858316 53.5447964,133.879776 58.0419682,133.414802 C62.5391401,132.949827 64.2691731,136.880998 68.6324388,136.563394 C72.9957045,136.245789 72.4374788,131.046715 77.901135,130.36179 C83.3647912,129.676865 84.1883839,134.031663 87.9134527,134.031663 C91.6385215,134.031663 91.8837241,115.867439 106.044933,114.797244 C120.206141,113.727049 118.326856,132.355403 124.244749,134.031663 C130.162642,135.707923 132.183974,132.605628 137.634405,137.349268 C141.268026,140.511694 151.707206,143.282607 168.951947,145.662008 Z" id="Path-113-Copy" fill="#D6F1EE"></path><path d="M577,284.33864 L399.319735,284.33864 C416.951371,282.917238 426.416478,280.71614 427.715058,277.735346 C429.662926,273.264155 431.825131,269.517341 437.482288,268.932433 C443.139445,268.347524 442.073952,237.902299 472.032258,237.902299 C501.990564,237.902299 513.316849,267.599776 520.761183,269.708405 C528.205516,271.817034 530.748224,267.914544 537.60452,273.881741 C542.175384,277.859873 555.307211,281.345506 577,284.33864 Z" id="Path-113-Copy-2" fill="#D6F1EE"></path><path d="M535.522588,49.6713009 L367.370918,49.6713009 C396.035359,29.5450558 412.535697,19.2101377 416.871932,18.6665465 C423.376285,17.8511598 424.356752,23.0354432 428.791358,23.0354432 C433.225963,23.0354432 433.517871,1.41136721 450.376453,0.137325496 C467.235035,-1.13671622 464.99779,21.0398954 472.042901,23.0354432 C479.088011,25.030991 491.751191,34.127992 498.239799,39.7751819 C502.565538,43.5399751 514.993135,46.8386815 535.522588,49.6713009 Z" id="Path-113-Copy-3" fill="#D6F1EE"></path><path d="M245.608109,411.347004 L245.608109,423.432406 C245.608109,426.83448 242.850183,429.592406 239.448109,429.592406 C237.500225,429.592406 235.667114,428.671101 234.504846,427.107968 L223.243271,411.962279 L159.280898,411.962279 C147.444773,411.962279 141.754248,410.454791 136.461211,407.624044 C131.168174,404.793296 127.014167,400.63929 124.18342,395.346253 C121.352673,390.053216 119.845185,384.362691 119.845185,372.526566 L119.845185,360.756136 C119.845185,348.920011 121.352673,343.229486 124.18342,337.936449 C127.014167,332.643412 131.168174,328.489406 136.461211,325.658658 C141.754248,322.827911 147.444773,321.320423 159.280898,321.320423 L234.662379,321.320423 C246.498503,321.320423 252.189029,322.827911 257.482066,325.658658 C262.775103,328.489406 266.929109,332.643412 269.759856,337.936449 C272.590603,343.229486 274.098091,348.920011 274.098091,360.756136 L274.098091,372.526566 C274.098091,384.362691 272.590603,390.053216 269.759856,395.346253 C266.929109,400.63929 262.775103,404.793296 257.482066,407.624044 C254.156302,409.402682 250.673611,410.658902 245.608109,411.347004 Z" id="Combined-Shape-Copy-11" fill="#D6F1EE" transform="translate(196.971638, 375.449163) scale(-1, 1) translate(-196.971638, -375.449163) "></path><path d="M173.46374,361.611494 L119.845185,361.611494 L119.845185,360.756136 C119.845185,348.920011 121.352673,343.229486 124.18342,337.936449 C127.014167,332.643412 131.168174,328.489406 136.461211,325.658658 C141.754248,322.827911 147.444773,321.320423 159.280898,321.320423 L234.662379,321.320423 C238.068882,321.320423 240.966332,321.445292 243.491761,321.690636 C243.374735,334.878188 241.876895,339.917097 239.160953,344.995468 C236.330205,350.288506 232.176199,354.442512 226.883162,357.273259 C221.893737,359.941633 216.942403,361.4342 204.263798,361.596649 L204.263798,384.426147 C204.263798,387.828221 201.505872,390.586147 198.103798,390.586147 C196.155915,390.586147 194.322803,389.664842 193.160536,388.101709 L173.46374,361.611494 Z" id="Combined-Shape" fill="#0D6574" opacity="0.100000001"></path><path d="M537.038606,210.405361 L537.038606,227.863166 C537.038606,231.26524 534.28068,234.023166 530.878606,234.023166 C528.930722,234.023166 527.097611,233.101861 525.935344,231.538728 L510.354718,210.58435 L428.626109,210.58435 C414.147844,210.58435 408.897676,209.076862 403.604639,206.246115 C398.311602,203.415367 394.157595,199.261361 391.326848,193.968324 C388.496101,188.675287 386.988613,183.425118 386.988613,168.946854 L386.988613,144.075427 C386.988613,129.597162 388.496101,124.346994 391.326848,119.053957 C394.157595,113.76092 398.311602,109.606913 403.604639,106.776166 C408.897676,103.945419 414.147844,102.437931 428.626109,102.437931 L529.393018,102.437931 C543.871282,102.437931 549.121451,103.945419 554.414488,106.776166 C559.707525,109.606913 563.861531,113.76092 566.692279,119.053957 C569.523026,124.346994 571.030514,129.597162 571.030514,144.075427 L571.030514,168.946854 C571.030514,183.425118 569.523026,188.675287 566.692279,193.968324 C563.861531,199.261361 559.707525,203.415367 554.414488,206.246115 C550.178767,208.511403 545.970499,209.929289 537.038606,210.405361 Z" id="Combined-Shape-Copy-12" stroke="#0D6574" stroke-width="2.8" opacity="0.5"></path><path d="M162.225881,450.055172 L526.834859,450.055172" id="Path-70" stroke="#3FBDA1"></path><path d="M19.4008547,450.055172 L137.284212,450.055172" id="Path-70-Copy" stroke="#3FBDA1"></path><g id="Group-33" transform="translate(337.103617, 340.900000)"><g id="Group-35" transform="translate(145.694080, 61.174877) scale(-1, 1) translate(-145.694080, -61.174877) translate(68.867451, 5.597701)"><g id="Mask" transform="translate(0.000000, 48.345937)"><g id="path-2-link" fill="#33BAAA" fill-rule="nonzero"><path d="M105.739155,25.3678966 C63.7956444,3.45060679 28.8388385,-3.85515646 0.868737758,3.45060679 C7.45878646,19.0586172 14.2977528,26.8626225 21.3856367,26.8626225 C32.0174625,26.8626225 45.0171394,20.9372932 49.1605429,31.8370061 C53.3039467,42.736719 62.0917228,59.8296335 79.6511582,59.8296335 C91.3574485,59.8296335 103.252665,54.499873 115.336809,43.8403519 L105.739155,25.3678966 Z" id="path-2"></path></g><g id="Clipped"><mask id="mask-2" fill="white"><use xlink:href="#path-1"></use></mask><g id="path-2"></g><path d="M143.254686,58.1836574 C142.905664,26.2721375 137.172302,6.22966954 126.054598,-1.94374666 C109.378043,-14.203871 97.9662209,0.995163521 85.180862,-14.203871 C72.3955031,-29.4029055 61.5034116,-48.1152152 44.3268539,-48.1152152 C27.1502963,-48.1152152 21.3746562,-32.7172453 30.9894109,-23.460558 C40.6041656,-14.203871 52.5101081,-12.7960098 49.3718569,12.8358625 C46.2336058,38.4677348 85.5429646,14.4695681 85.5429646,42.1193747 C85.5429646,60.5525792 104.780205,65.9073401 143.254686,58.1836574 Z" id="Shape" fill="#25877C" fill-rule="nonzero" mask="url(#mask-2)"></path></g><mask id="mask-4" fill="white"><use xlink:href="#path-3"></use></mask><g id="path-2"></g><path d="M107.713568,60.7708794 C82.9458212,15.422456 48.3414555,-2.94313561 3.90047127,5.6741044" id="Path-73" stroke="#0D6574" stroke-width="1.6" mask="url(#mask-4)"></path><path d="M40.5969747,5.21752338 C34.5743566,7.20265647 29.0674225,13.5171449 24.0761724,24.1609886" id="Path-74" stroke="#0D6574" stroke-width="1.6" mask="url(#mask-4)"></path><path d="M85.1970603,29.5447396 C75.3513364,30.0460037 67.3020428,34.8152362 61.0491796,43.8524377" id="Path-75" stroke="#0D6574" stroke-width="1.6" mask="url(#mask-4)"></path></g><g id="Path-64" transform="translate(34.115717, 0.000000)"><g id="Mask" fill="#33BAAA" fill-rule="nonzero"><path d="M117.219006,106.529595 C116.869985,74.6180752 111.136622,54.5756072 100.018919,46.4021911 C83.3423639,34.1420667 71.9305413,49.3411012 59.1451824,34.1420667 C46.3598235,18.9430321 35.467732,0.230722514 18.2911744,0.230722514 C1.11461681,0.230722514 -4.66102325,15.6286923 4.95373135,24.8853795 C14.568486,34.1420667 26.4744286,35.5499278 23.3361775,61.1818003 C20.1979263,86.8136725 59.5072852,62.8155058 59.5072852,90.4653124 C59.5072852,108.898517 78.7445254,114.253278 117.219006,106.529595 Z" id="path-4"></path></g><g id="Clipped"><mask id="mask-6" fill="white"><use xlink:href="#path-5"></use></mask><g id="path-4"></g><path d="M86.7877171,110.15513 C87.4419778,69.933389 83.0817614,43.7613783 73.7070681,31.6390988 L107.567006,16.9219732 L102.873142,118.15217 L86.7877171,110.15513 Z" id="Shape" fill="#25877C" fill-rule="nonzero" mask="url(#mask-6)"></path></g><mask id="mask-8" fill="white"><use xlink:href="#path-7"></use></mask><g id="path-4"></g><path d="M99.3923983,101.405271 C63.0674189,44.9485055 36.4025069,11.9762614 19.3976625,2.48853921" id="Path-67" stroke="#0D6574" stroke-width="1.6" mask="url(#mask-8)"></path><path d="M66.2617882,52.7948995 C54.2117881,45.9651054 41.9220706,48.2492175 29.3926358,59.6472358" id="Path-68" stroke="#0D6574" stroke-width="1.6" mask="url(#mask-8)"></path><path d="M76.6784515,67.6020481 C78.478434,52.5679037 82.7738949,42.7368377 89.5648337,38.1088501" id="Path-69" stroke="#0D6574" stroke-width="1.6" mask="url(#mask-8)"></path><path d="M44.0327393,25.3084911 C34.6143725,20.5054075 25.2233419,21.1171951 15.8596475,27.1438539" id="Path-70" stroke="#0D6574" stroke-width="1.6" mask="url(#mask-8)"></path></g></g><g id="Group-32"><rect id="Rectangle-26" fill="#D6F1EE" x="0" y="0" width="93.0439241" height="121.470115"></rect><polygon id="Rectangle-26-Copy" fill="#33BAAA" opacity="0.200000003" points="47.6429732 0 93.0439241 0 93.0439241 121.470115 47.6429732 121.470115"></polygon></g></g><g id="Group-29" transform="translate(199.219248, 134.344828)"><path d="M44.6935987,6.2315109 C54.7318292,2.59969726 64.8228411,2.06031786 79.1731477,4.07447563 L248.774947,27.8791784 C264.362349,30.0669705 269.786624,32.4811594 275.056833,36.3245871 C280.327041,40.1680149 284.170743,45.2620861 286.41747,51.3808808 C288.664198,57.4996754 289.492781,63.372422 287.302115,78.9393714 L278.25777,143.208787 C276.240966,157.540265 274.01546,162.527489 270.472417,167.373061 C266.929374,172.218633 261.610481,175.342894 256.592855,177.818337 C251.57523,180.29378 239.195637,182.193601 233.376443,182.062947 C230.096969,181.989316 236.360558,179.357675 231.188213,178.631703 L101.059079,160.367243 L70.0599915,191.764657 C65.8493093,196.047154 57.8559674,196.919784 53.3497549,195.40813 C52.3899478,195.086153 56.8239946,178.524113 66.6518953,145.72201 C50.8436154,53.1514364 43.5241832,6.65460331 44.6935987,6.2315109 Z" id="Combined-Shape-Copy-10" fill="#0D6574"></path><path d="M222.74563,169.272713 L222.74563,201.014176 C222.74563,204.416251 219.987704,207.174176 216.58563,207.174176 C214.637747,207.174176 212.804635,206.252872 211.642368,204.689739 L185.308043,169.272713 L53.8624651,169.272713 C39.3842008,169.272713 34.1340323,167.765225 28.8409952,164.934478 C23.5479582,162.103731 19.3939518,157.949725 16.5632046,152.656688 C13.7324574,147.363651 12.2249695,142.113482 12.2249695,127.635218 L12.2249695,59.1804087 C12.2249695,44.7021443 13.7324574,39.4519758 16.5632046,34.1589388 C19.3939518,28.8659017 23.5479582,24.7118953 28.8409952,21.8811481 C34.1340323,19.0504009 39.3842008,17.542913 53.8624651,17.542913 L228.798899,17.542913 C243.277163,17.542913 248.527332,19.0504009 253.820369,21.8811481 C259.113406,24.7118953 263.267412,28.8659017 266.09816,34.1589388 C268.928907,39.4519758 270.436395,44.7021443 270.436395,59.1804087 L270.436395,127.635218 C270.436395,142.113482 268.928907,147.363651 266.09816,152.656688 C263.267412,157.949725 259.113406,162.103731 253.820369,164.934478 C248.527332,167.765225 243.277163,169.272713 228.798899,169.272713 L222.74563,169.272713 Z" id="Combined-Shape-Copy-9" fill="#33BAAA" transform="translate(141.330682, 112.351293) scale(-1, 1) rotate(-8.000000) translate(-141.330682, -112.351293) "></path><path d="M119.607813,150.012268 L124.303862,161.630495 C126.814484,167.841882 133.828475,170.908487 140.093066,168.533734 L160.688219,160.726616 L163.801579,172.806617 L190.678739,176.838403 L187.405374,151.895688 L239.949813,130.907316 C246.149038,128.431095 249.248371,121.468072 246.939263,115.20468 L242.404909,102.905366 C240.057798,96.5388924 233.004675,93.2687235 226.629073,95.5909258 C209.178264,101.94708 197.194819,104.987951 190.678739,104.713537 C182.820843,104.382615 175.091665,98.9010153 167.491203,88.2687386 C161.373345,89.9690931 156.240204,93.3845166 152.091782,98.5150091 C147.94336,103.645502 144.76007,113.407424 142.541914,127.800775 L126.628076,133.888699 C120.273078,136.319838 117.092162,143.442408 119.5233,149.797406 C119.5508,149.869289 119.578972,149.940913 119.607813,150.012268 Z" id="Path-73-Copy" fill="#0D6574" opacity="0.5"></path><path d="M154.313433,105.737028 C149.253104,116.993043 147.500667,123.470376 149.056122,125.169027 C150.611577,126.867678 156.106201,126.867678 165.539994,125.169027 L161.28533,107.224574 L154.313433,105.737028 Z" id="Path-74" fill="#FFD7B3"></path><path d="M122.410341,143.854797 L127.10639,155.473024 C129.617012,161.68441 136.631003,164.751016 142.895594,162.376263 L242.475265,124.628048 C248.796579,122.231793 252.006185,115.189316 249.667753,108.846385 L245.22151,96.7860716 C242.867895,90.4019564 235.784565,87.1345903 229.400449,89.4882053 C229.353553,89.5054943 229.306763,89.5230686 229.260081,89.5409271 L129.430604,127.731228 C123.075606,130.162366 119.89469,137.284937 122.325828,143.639935 C122.353327,143.711818 122.3815,143.783442 122.410341,143.854797 Z" id="Path-73" fill="#E5FAF8"></path><path d="M26.7065933,65.4931034 C41.1979285,65.4931034 46.4528369,66.9999725 51.7506525,69.8295577 C57.048468,72.6591428 61.2062247,76.811444 64.0395275,82.1023082 C66.8728303,87.3931724 68.3816791,92.6411857 68.3816791,107.113507 L68.3816791,148.701436 C68.3816791,163.173757 66.8728303,168.42177 64.0395275,173.712634 C61.2062247,179.003499 57.048468,183.1558 51.7506525,185.985385 C50.7024247,186.545248 49.6558766,187.053328 48.5391308,187.508199 L52.7757199,157.402855 L46.8185854,156.566732 C32.4682788,154.552575 27.4745021,152.329988 22.622564,148.791594 C17.7706259,145.2532 14.2319802,140.563421 12.1635643,134.930245 C10.0951485,129.297069 9.33232549,123.890413 11.3491296,109.558936 L17.5503151,65.4931034 L26.7065933,65.4931034 Z" id="Combined-Shape" fill="#0D6574" opacity="0.5"></path><polygon id="Path-76" fill="#0D6574" opacity="0.300000012" points="153.610914 119.120143 162.543289 145.876901 164.434033 154.468962 191.218415 144.785828 189.568069 120.327498 200.910796 124.757743 219.756833 127.864352 218.720516 124.757743 182.250125 105.729905 176.250025 109.862794 159.849095 106.475606"></polygon></g><g id="Group-31" transform="translate(78.710551, 344.818391)"><polygon id="Path-69" fill="#0D6574" points="17.2580604 68.0918788 16.8143726 138.340994 23.6723162 138.340994 29.6559191 86.4023906 34.81597 139.226258 41.8729188 139.226258 39.9519993 68.0918788"></polygon><path d="M41.2891953,44.0423771 L46.8869528,49.1599446 C48.274134,50.4281299 48.4317197,52.5580351 47.2462803,54.0165613 L38.6693264,64.5693678 C38.2014811,67.5822824 38.5142848,69.0887397 39.6077376,69.0887397 C40.6330831,69.0887397 45.6440997,63.5150941 54.6407873,52.3678031 L54.6407859,52.367802 C55.712954,51.0393386 55.6870991,49.1356802 54.5792476,47.8368252 L45.1644276,36.7988067 L10.0264708,39.1223448 C3.45028845,47.7705298 0.162197258,52.6344324 0.162197258,53.7140526 C0.162197258,54.7936727 6.42352454,59.9185684 18.9461791,69.0887397 C20.1298307,67.0177546 20.7216565,65.9822621 20.7216565,65.9822621 C20.7216565,65.9822621 16.6089034,61.8928589 8.38339743,53.7140526 L17.5967238,41.667887 L41.2891953,44.0423771 Z" id="Path-67" fill="#FFD7B3"></path><path d="M32.944331,5.04380897 C36.5782147,9.67477718 37.8609898,13.3758167 36.7926563,16.1469277 C35.7243229,18.9180386 33.9380303,20.4649112 31.4337784,20.7875455 L30.2161782,29.9447674 L24.3765836,29.9447674 L24.8210551,19.6734071 L23.2756155,8.58826687 L32.944331,5.04380897 Z" id="Path-65" fill="#FFD7B3"></path><path d="M26.6284509,22.3797286 C30.7716839,20.9610248 33.2931588,18.546045 34.1928753,15.1347892 C35.5461854,10.0037438 36.478064,6.1534705 34.9228581,4.23507441 C33.8860542,2.95614368 31.896048,1.86240173 28.9528395,0.953848555 C24.9448701,-0.698847928 22.08106,0.208152031 20.3614093,3.67484843 C15.9683643,3.67484843 12.8321581,11.4457147 15.3607212,16.1867166 C17.0464299,19.3473845 20.8023398,21.4117218 26.6284509,22.3797286 Z" id="Path-62" fill="#0D6574"></path><path d="M21.6937516,27.5106236 C26.8420548,27.1209912 30.8530225,27.4186993 33.7266546,28.4037481 C36.6002868,29.3887968 41.2275118,33.0056928 47.6083297,39.254436 L43.0407238,46.3231368 L38.0371028,44.0302825 L40.2356995,72.9147539 C29.8894464,77.2581208 21.8046244,77.6910094 15.9812334,74.2134197 C15.9812334,73.6464612 16.3873453,64.3497003 17.199569,46.3231368 L14.2846661,48.7104125 L5.6520627,44.0302825 C9.92142106,37.4723908 13.364478,32.8834844 15.9812334,30.2635632 C18.5979889,27.6436419 20.5021616,26.7259954 21.6937516,27.5106236 Z" id="Path-66" fill="#6AC264"></path><path d="M19.3049463,14.970877 C16.5554796,12.9978643 14.2089914,13.558302 12.2654815,16.6521902 C8.07001512,23.3309855 13.4356471,25.3914848 14.5929356,29.3229854 C15.3106971,31.7613402 12.2654815,33.0706722 11.1029329,37.4769057 C9.94038421,41.8831393 20.0924631,52.7263811 22.566685,52.7655685 C25.0473026,52.8048572 22.566685,45.515275 26.5858258,41.7145367 C30.6049665,37.9137984 22.9340966,31.8683326 24.2807038,30.7296327 C28.0800231,27.5169033 22.566685,23.205287 22.566685,21.2282251 C22.566685,18.9020241 21.4794388,16.8162414 19.3049463,14.970877 Z" id="Path-63" fill="#0D6574"></path><path d="M13.992544,14.6119116 C16.024739,13.6668429 17.4709837,13.2581239 18.331278,13.3857545 C20.8827038,13.7642761 23.8399568,17.7974425 22.5584015,20.1976238" id="Path-64" stroke="#6AC264" stroke-width="0.88704"></path><path d="" id="Path-68" stroke="#979797" stroke-width="0.88704"></path><path d="M20.4833645,135.984768 L20.4833645,135.984768 C22.9426363,135.984768 24.9362699,137.978401 24.9362699,140.437673 L24.9362699,142.181609 L16.0304592,142.181609 L16.0304592,140.437673 C16.0304592,137.978401 18.0240928,135.984768 20.4833645,135.984768 Z" id="Rectangle-27" fill="#6AC264"></path><path d="M38.2949859,135.984768 L38.2949859,135.984768 C40.7542576,135.984768 42.7478912,137.978401 42.7478912,140.437673 L42.7478912,142.181609 L33.8420806,142.181609 L33.8420806,140.437673 C33.8420806,137.978401 35.8357142,135.984768 38.2949859,135.984768 Z" id="Rectangle-27-Copy" fill="#6AC264"></path></g><g id="Group-30" transform="translate(31.067578, 216.071264)"><path d="M173.19622,124.81389 L173.19622,147.643388 C173.19622,151.045462 170.438294,153.803388 167.03622,153.803388 C165.088337,153.803388 163.255225,152.882083 162.092958,151.31895 L142.396162,124.828736 L41.6374956,124.828736 C27.1592313,124.828736 21.9090628,123.321248 16.6160258,120.490501 C11.3229887,117.659753 7.16898229,113.505747 4.33823511,108.21271 C1.50748793,102.919673 6.51606234e-16,97.6695043 -1.12146977e-15,83.19124 L1.12146977e-15,41.6374956 C-6.51606234e-16,27.1592313 1.50748793,21.9090628 4.33823511,16.6160258 C7.16898229,11.3229887 11.3229887,7.16898229 16.6160258,4.33823511 C21.9090628,1.50748793 27.1592313,9.77409351e-16 41.6374956,-1.68220466e-15 L170.794114,1.68220466e-15 C185.272378,-9.77409351e-16 190.522547,1.50748793 195.815584,4.33823511 C201.108621,7.16898229 205.262628,11.3229887 208.093375,16.6160258 C210.924122,21.9090628 212.43161,27.1592313 212.43161,41.6374956 L212.43161,83.19124 C212.43161,97.6695043 210.924122,102.919673 208.093375,108.21271 C205.262628,113.505747 201.108621,117.659753 195.815584,120.490501 C190.826159,123.158874 185.874825,124.651441 173.19622,124.81389 Z" id="Combined-Shape" fill="#0D6574"></path><ellipse id="Oval-14" stroke="#33BAAA" stroke-width="4.48" fill="#FFFFFF" cx="42.3181703" cy="47.8603448" rx="24.3799699" ry="24.3509195"></ellipse><path d="M32.07631,67.4683139 C31.9925628,67.0092136 31.9488173,66.5361522 31.9488173,66.0528736 C31.9488173,61.7247386 35.4574639,58.216092 39.7855989,58.216092 L44.8507417,58.216092 C49.1788766,58.216092 52.6875233,61.7247386 52.6875233,66.0528736 C52.6875233,66.5361522 52.6437778,67.0092136 52.5600306,67.4683139 C49.497319,69.0671416 46.013468,69.9712644 42.3181703,69.9712644 C38.6228726,69.9712644 35.1390216,69.0671416 32.07631,67.4683139 Z" id="Combined-Shape" fill="#6AC264"></path><rect id="Rectangle-23" fill="#FFFFFF" opacity="0.5" x="80.7128016" y="29.108046" width="104.814541" height="8.95632184" rx="4.47816092"></rect><rect id="Rectangle-23-Copy" fill="#FFFFFF" opacity="0.5" x="80.7128016" y="58.7758621" width="104.814541" height="8.95632184" rx="4.47816092"></rect><rect id="Rectangle-23-Copy-2" fill="#FFFFFF" opacity="0.5" x="22.4202227" y="88.4436782" width="163.10712" height="8.95632184" rx="4.47816092"></rect></g><rect id="Rectangle-25" fill="#FFD7B3" x="71.4239788" y="269.809195" width="4.48404453" height="7.83678161" rx="2.24202227"></rect><path d="M75.9080233,274.408286 C75.2131479,274.691618 74.4569682,274.847126 73.6660011,274.847126 C72.8750339,274.847126 72.1188543,274.691618 71.4239788,274.408286 L71.4239788,272.049195 C71.4239788,270.812078 72.426861,269.809195 73.6639788,269.809195 L73.6680233,269.809195 C74.9051412,269.809195 75.9080233,270.812078 75.9080233,272.049195 L75.9080233,274.408286 Z" id="Combined-Shape" fill="#0D6574" opacity="0.200000003"></path><ellipse id="Oval-17" fill="#0D6574" cx="73.6660011" cy="263.371839" rx="8.96808907" ry="9.2362069"></ellipse><ellipse id="Oval-15-Copy" fill="#FFD7B3" cx="73.6660011" cy="267.29023" rx="6.16556123" ry="6.43735632"></ellipse><path d="M265.640123,48.1402299 L255.269805,157.180252" id="Path-60" stroke="#0D6574" stroke-width="2.8"></path><path d="M439.637327,41.2350263 L454.809786,189.646918" id="Path-60-Copy" stroke="#0D6574" stroke-width="2.8"></path><g id="Group-34" transform="translate(295.626205, 342.019540)"><path d="M46.8890013,0 L1.6815167,120.113713" id="Path-58" stroke="#33BAAA" stroke-width="2.8" stroke-linecap="round" stroke-linejoin="round"></path><path d="M71.5512462,0 L26.3437616,120.113713" id="Path-58-Copy" stroke="#33BAAA" stroke-width="2.8" stroke-linecap="round" stroke-linejoin="round"></path><path d="M34.1908396,11.7551724 L71.5062415,11.7551724" id="Path-59" stroke="#0D6574" stroke-width="2.8" stroke-linecap="round" stroke-linejoin="round"></path><path d="M28.0252783,31.3471264 L65.3406802,31.3471264" id="Path-59-Copy" stroke="#0D6574" stroke-width="2.8" stroke-linecap="round" stroke-linejoin="round"></path><path d="M21.8597171,50.9390805 L59.175119,50.9390805" id="Path-59-Copy-2" stroke="#0D6574" stroke-width="2.8" stroke-linecap="round" stroke-linejoin="round"></path><path d="M15.1336503,70.5310345 L52.4490522,70.5310345" id="Path-59-Copy-3" stroke="#0D6574" stroke-width="2.8" stroke-linecap="round" stroke-linejoin="round"></path><path d="M8.4075835,90.1229885 L45.7229854,90.1229885" id="Path-59-Copy-4" stroke="#0D6574" stroke-width="2.8" stroke-linecap="round" stroke-linejoin="round"></path><path d="M0,109.714943 L37.3154019,109.714943" id="Path-59-Copy-5" stroke="#0D6574" stroke-width="2.8" stroke-linecap="round" stroke-linejoin="round"></path><path d="" id="Path-61" stroke="#979797" stroke-width="0.56"></path></g><g id="Group-31" transform="translate(351.116257, 198.718391)"><polygon id="Path-69" fill="#82E07C" points="10.8886809 67.7321839 16.4636933 105.980275 13.5056131 138.866563 20.3635567 138.866563 28.1553919 109.290911 26.9982693 89.5333629 38.3651541 138.866563 45.4221029 138.866563 38.3651541 67.7321839"></polygon><path d="M24.8779264,2.23908046 C28.563738,8.4525676 29.8063702,13.1163389 28.605823,16.2303944 C27.4052757,19.3444498 25.5725542,21.289956 23.1076585,22.066913 L21.8121455,30.2217083 L15.2498598,30.2217083 L15.2498598,20.6322367 L14.0126392,6.22219005 L24.8779264,2.23908046 Z" id="Path-65" fill="#FFD7B3"></path><path d="M16.2555273,21.0459901 C21.1487664,19.6271109 24.0452443,17.2120434 24.9449609,13.8007876 C26.2982709,8.66974218 30.3410766,6.90440161 28.7858707,4.98600553 C27.7490668,3.7070748 24.8582717,2.06907664 20.1134855,0.0720110601 C9.0359435,2.99150291 5.13346784,7.99594883 8.40605849,15.0853488 C10.5854809,19.8066227 13.2019705,21.7935032 16.2555273,21.0459901 Z" id="Path-62" fill="#0D6574"></path><ellipse id="Oval-18" fill="#FFD7B3" cx="23.8214866" cy="15.1137931" rx="1" ry="2.23908046"></ellipse><path d="" id="Path-68" stroke="#979797" stroke-width="0.88704"></path><path d="M38.1143785,137.143678 L49.9729555,138.002109 C52.099916,138.156077 53.7468776,139.92657 53.7468776,142.059096 L38.9746632,141.998138 L38.1143785,137.143678 Z" id="Rectangle-27-Copy" fill="#0D6574"></path><path d="M13.5198817,137.143678 L24.1913841,137.979756 C26.3207677,138.146587 27.9636215,139.923187 27.9636215,142.059096 L12.3311225,141.998138 L13.5198817,137.143678 Z" id="Rectangle-27-Copy-2" fill="#0D6574"></path><path d="M35.137519,46.3213398 L46.7659509,55.2210502 C57.1260947,58.0691812 62.3061666,59.4932467 62.3061666,59.4932467 C62.3061666,59.4932467 64.1674285,63.2059767 65.0485938,63.2059767 C65.929759,63.2059767 69.3653204,65.2642405 69.3653204,63.2059767 C69.3653204,61.1477128 69.3653204,56.4850149 69.3653204,56.4850149 C69.3653204,56.4850149 71.5362805,55.8987513 71.5362805,55.2210502 C71.5362805,54.7692495 70.8126271,54.5433491 69.3653204,54.5433491 L66.0704751,55.2210502 L50.2512852,47.9801016 L40.0318574,37.1456805 L35.137519,46.3213398 Z" id="Path-75" fill="#FFD7B3"></path><path d="M15.9417538,23.6419551 C20.0356692,23.3454115 23.5194431,23.6896641 26.3930752,24.6747128 C30.7035234,26.1522859 38.1800289,30.1966883 41.0279306,37.3647622 C40.2336119,41.7345329 38.2472008,44.7832672 35.0686972,46.5109652 L33.2768716,44.9813773 C37.339408,53.8160412 39.0450397,63.234603 38.3937667,73.2370627 C26.9130784,79.5973838 18.2610388,81.0387495 12.4376478,77.5611598 C7.79849267,67.0310262 5.96963898,56.1710987 6.95108673,44.9813773 L0.324064829,43.9603239 C3.65690514,36.0644117 6.63170304,30.806495 9.2484585,28.1865738 C11.865214,25.5666525 14.0963124,24.0517797 15.9417538,23.6419551 Z" id="Path-66" fill="#0D6574"></path></g><ellipse id="Oval-19" stroke="#0D6574" stroke-width="4.48" fill-opacity="0.446557971" fill="#FFFFFF" opacity="0.600000024" cx="278.811038" cy="194.8" rx="25.7812338" ry="25.7503448"></ellipse><path d="" id="Path-78" stroke="#979797" stroke-width="0.56"></path><path d="M55.1929203,227.995103 L72.3070968,115.030649" id="Path-71" stroke="#33BAAA" stroke-width="2.8" stroke-linecap="round" stroke-linejoin="round"></path><path d="M212.934318,231.636285 L193.340081,115.502422" id="Path-72" stroke="#33BAAA" stroke-width="2.8"></path><g id="Group-10" transform="translate(32.665185, 429.563896) scale(-1, 1) rotate(20.000000) translate(-32.665185, -429.563896) translate(14.258805, 385.981795)"><path d="M21.3381106,87.090944 C21.3381106,83.0679281 0.00319544974,84.4273796 0.410265082,70.9237147 C0.817334708,57.4200495 11.1713895,52.9927918 7.7265483,47.7576008 C4.28170711,42.5224097 -1.32241643,36.6214007 2.09520325,29.7857872 C5.5128229,22.9501737 8.93044259,20.8437998 5.5128229,12.0335706 C2.09520325,3.22334139 23.1139973,-7.78146045 19.951318,8.23220244 C16.7886387,24.2458653 25.9962701,17.5134089 29.2382669,25.5629544 C32.4802638,33.6124998 23.4899665,43.9786681 24.5046725,49.9219482 C25.5193784,55.8652283 39.3641175,67.0136172 35.6356455,75.7237102 C31.9071735,84.4338032 28.1979559,78.4272558 21.3381106,87.090944 Z" id="Path-53" fill="#33BAAA" fill-rule="nonzero"></path><path d="M21.5033354,85.2037413 C12.6806436,54.3275069 9.73974632,26.7312172 12.6806436,2.41487244" id="Path-54" stroke="#0D6574" stroke-width="1.6"></path><path d="M14.9237832,57.8931393 C14.8732893,52.6592551 19.7157636,43.6107477 23.444511,42.7834139" id="Path-55" stroke="#0D6574" stroke-width="1.6"></path><path d="M13.1240373,44.912909 C11.639723,39.0891627 8.95448877,36.5291282 5.06833448,37.2328056" id="Path-57" stroke="#0D6574" stroke-width="1.6"></path><path d="M18.1923718,74.0175932 C16.7080575,68.1938469 12.5991929,64.758283 5.86577788,63.7109016" id="Path-57-Copy" stroke="#0D6574" stroke-width="1.6"></path></g></g></g></g></g></svg> 