<?xml version="1.0" encoding="UTF-8"?> <svg xmlns="http://www.w3.org/2000/svg" xmlns:xlink="http://www.w3.org/1999/xlink" width="592px" height="431px" viewBox="0 0 592 431"><!-- Generator: Sketch 52.5 (67469) - http://www.bohemiancoding.com/sketch --><title>Driven by Design</title><desc>Created with Sketch.</desc><defs><linearGradient x1="57.6964029%" y1="-28.1753217%" x2="43.1413235%" y2="92.9334256%" id="linearGradient-1"><stop stop-color="#9FE39B" offset="0%"></stop><stop stop-color="#16AB99" offset="100%"></stop></linearGradient><linearGradient x1="92.6256759%" y1="15.9340396%" x2="43.1413235%" y2="92.9334256%" id="linearGradient-2"><stop stop-color="#5AD994" offset="0%"></stop><stop stop-color="#26A293" offset="100%"></stop></linearGradient><linearGradient x1="57.6964029%" y1="-28.1753217%" x2="43.1413235%" y2="92.9334256%" id="linearGradient-3"><stop stop-color="#7ECC79" offset="0%"></stop><stop stop-color="#33BAAA" offset="100%"></stop></linearGradient><linearGradient x1="57.6964029%" y1="-28.1753217%" x2="43.1413235%" y2="92.9334256%" id="linearGradient-4"><stop stop-color="#56B450" offset="0%"></stop><stop stop-color="#33BAAA" offset="100%"></stop></linearGradient><linearGradient x1="57.6964029%" y1="-28.1753217%" x2="43.4125488%" y2="90.6766359%" id="linearGradient-5"><stop stop-color="#BAFFB5" offset="0%"></stop><stop stop-color="#3CD8C5" offset="100%"></stop></linearGradient><linearGradient x1="57.6964029%" y1="-28.1753217%" x2="43.1413235%" y2="92.9334256%" id="linearGradient-6"><stop stop-color="#84F97C" offset="0%"></stop><stop stop-color="#33BAAA" offset="100%"></stop></linearGradient><linearGradient x1="57.6964029%" y1="-28.1753217%" x2="43.3336469%" y2="91.3331566%" id="linearGradient-7"><stop stop-color="#5AB155" offset="0%"></stop><stop stop-color="#14AD9B" offset="100%"></stop></linearGradient><linearGradient x1="57.6964029%" y1="-28.1753217%" x2="43.4081976%" y2="90.7128411%" id="linearGradient-8"><stop stop-color="#52A24C" offset="0%"></stop><stop stop-color="#249F91" offset="100%"></stop></linearGradient><path d="M47.8999447,48.3315519 C46.6215012,26.8099052 39.9271419,12.815183 27.8168671,6.34738525 C15.7065922,-0.120412487 6.43430315,-1.4653164 0,2.31267352 C5.01372209,11.7210306 9.27308308,16.5979491 12.778083,16.943429 C18.0355828,17.4616489 18.0617869,20.1136203 20.1545434,24.2773023 C22.2472999,28.4409843 33.3173506,27.0057302 35.4232091,32.9007796 C36.8271149,36.8308125 40.9860267,41.9744033 47.8999447,48.3315519 Z" id="path-9"></path><linearGradient x1="30.3880207%" y1="3.64352424%" x2="44.3489546%" y2="136.712649%" id="linearGradient-11"><stop stop-color="#EDFFEC" stop-opacity="0" offset="0%"></stop><stop stop-color="#CCF4C9" stop-opacity="0.823680933" offset="41.2132496%"></stop><stop stop-color="#5BDA52" stop-opacity="0.633859828" offset="100%"></stop></linearGradient><linearGradient x1="73.9563434%" y1="14.5710678%" x2="17.022751%" y2="107.482265%" id="linearGradient-12"><stop stop-color="#EDFFEC" stop-opacity="0" offset="0%"></stop><stop stop-color="#7DD977" offset="100%"></stop></linearGradient><linearGradient x1="93.0033445%" y1="100%" x2="93.0033417%" y2="15.8302187%" id="linearGradient-13"><stop stop-color="#A0FBBA" stop-opacity="0" offset="0%"></stop><stop stop-color="#6EEF65" stop-opacity="0.838088768" offset="100%"></stop></linearGradient><filter x="-81.4%" y="-79.5%" width="262.8%" height="259.1%" id="filter-14"><feOffset dx="0" dy="4" in="SourceAlpha" result="shadowOffsetOuter1"></feOffset><feGaussianBlur stdDeviation="7" in="shadowOffsetOuter1" result="shadowBlurOuter1"></feGaussianBlur><feColorMatrix values="0 0 0 0 0.0431372549 0 0 0 0 0.274509804 0 0 0 0 0.317647059 0 0 0 0.326596467 0" type="matrix" in="shadowBlurOuter1" result="shadowMatrixOuter1"></feColorMatrix><feMerge><feMergeNode in="shadowMatrixOuter1"></feMergeNode><feMergeNode in="SourceGraphic"></feMergeNode></feMerge></filter><filter x="-70.8%" y="-62.2%" width="241.7%" height="224.4%" id="filter-15"><feOffset dx="0" dy="5" in="SourceAlpha" result="shadowOffsetOuter1"></feOffset><feGaussianBlur stdDeviation="4" in="shadowOffsetOuter1" result="shadowBlurOuter1"></feGaussianBlur><feColorMatrix values="0 0 0 0 0.0431372549 0 0 0 0 0.274509804 0 0 0 0 0.317647059 0 0 0 0.263898324 0" type="matrix" in="shadowBlurOuter1" result="shadowMatrixOuter1"></feColorMatrix><feMerge><feMergeNode in="shadowMatrixOuter1"></feMergeNode><feMergeNode in="SourceGraphic"></feMergeNode></feMerge></filter></defs><g id="Pages" stroke="none" stroke-width="1" fill="none" fill-rule="evenodd"><g id="Home---Approach-v3-" transform="translate(-833.000000, -3566.000000)"><g id="Section-1" transform="translate(218.000000, 2320.000000)"><g id="Driven-by-Design" transform="translate(17.000000, 1246.000000)"><g transform="translate(594.000000, 0.000000)"><polygon id="Rectangle-65" fill="#287F8F" points="325 343 350 343 350 369 325 369"></polygon><path d="M293.480074,57 L421.385119,57 C429.212798,57 435.30316,63.3670962 434.988323,71.2213074 L424.263256,338.778693 C423.94842,346.632904 417.347606,353 409.519926,353 L281.614881,353 C273.787202,353 267.69684,346.632904 268.011677,338.778693 L278.736744,71.2213074 C279.05158,63.3670962 285.652394,57 293.480074,57 Z" id="Rectangle-55-Copy-4" fill="#287F8F"></path><path d="M427.181972,110 C428.219668,110 429.033161,110.833426 428.99896,111.861509 L427.758869,149.138491 C427.724668,150.166574 426.855724,151 425.818028,151 C424.780332,151 423.966839,150.166574 424.00104,149.138491 L425.241131,111.861509 C425.275332,110.833426 426.144276,110 427.181972,110 Z" id="Rectangle-64" fill="#0B4651"></path><path d="M307.500899,358 L425.750389,358 C427.5451,358 429,359.4549 429,361.249611 L429,405.750389 C429,407.5451 427.5451,409 425.750389,409 L294,409 L307.500899,358 Z" id="Rectangle-61-Copy" fill="#0B4651"></path><g id="Group-54" transform="translate(91.000000, 269.000000)"><path d="M32.7192388,0.403645112 L32.7192388,0.403645112 C36.8535849,0.403645112 40.2051346,3.75519484 40.2051346,7.88954095 C40.2051346,7.98086923 40.2034633,8.07218987 40.2001215,8.163457 L37.6520336,77.7539268 L14.5045301,73.6118691 L23.8569755,8.0907414 C24.4865557,3.68004432 28.2638353,0.403645112 32.7192388,0.403645112 Z" id="Path-326" fill="#0B4651"></path><polygon id="Path-325" fill="#7DD977" points="35.2359551 77.2728778 35.2359551 28.3127799 84.1825275 25.1106195 89.9352802 84.344485"></polygon><polygon id="Rectangle-60" fill="#0B4651" opacity="0.300000012" transform="translate(52.905477, 69.372015) rotate(16.000000) translate(-52.905477, -69.372015) " points="35.7593965 35.4634974 70.1947127 35.3833096 70.0515582 103.280532 35.616242 103.36072"></polygon><polygon id="Rectangle-60-Copy" fill="#D6F1EE" transform="translate(49.051545, 64.907905) rotate(16.000000) translate(-49.051545, -64.907905) " points="31.9054639 30.9993873 66.3407801 30.9191994 66.1976256 98.816422 31.7623094 98.8966099"></polygon><polygon id="Path-324" fill="#0B4651" points="55.0561798 90.5848159 67.424799 53.0113078 95.4017244 88.1028364"></polygon><path d="M14.9146102,29.5935906 L15.8077691,29.5957702 C18.2230256,29.601664 20.1792106,31.5587198 20.1840296,33.9739787 L20.3145217,99.3759849 C20.3193558,101.798839 18.3591632,103.76687 15.9363088,103.771704 C15.9298227,103.771717 15.9233365,103.771715 15.9168504,103.771699 L15.0236916,103.76952 C12.6084351,103.763626 10.6522501,101.80657 10.6474311,99.3913114 L10.516939,33.9893052 C10.5121049,31.5664508 12.4722975,29.5984204 14.8951519,29.5935863 C14.901638,29.5935734 14.9081241,29.5935748 14.9146102,29.5935906 Z" id="Rectangle-59" fill="#0B4651" opacity="0.400000006" transform="translate(15.415730, 66.682645) rotate(-16.000000) translate(-15.415730, -66.682645) "></path><polygon id="Rectangle-58-Copy" fill="#47D5C5" points="3.675 66.2831858 93.9671348 66.2831858 93.9671348 139.941003 12.1045822 139.941003"></polygon><polygon id="Rectangle-58-Copy-3" fill="#0B4651" opacity="0.200000003" points="3.85393258 66.4036382 94.1460674 66.4036382 94.1460674 98.5142058 7.46807777 102.080214"></polygon><polygon id="Rectangle-58-Copy-2" fill="#47D5C5" points="3.85393258 66.4036382 94.1460674 66.4036382 97.8007515 94.0437406 0.199248496 94.0437406"></polygon><polygon id="Path-327" fill="#0B4651" opacity="0.300000012" points="89.5134515 66.9026549 83.9125 139.911308 96.1055816 139.911308 96.1055816 66.9026549"></polygon></g><path d="M281.762974,57 L409.383465,57 C417.19373,57 423.285435,63.3670962 422.98967,71.2213074 L412.914291,338.778693 C412.618526,346.632904 406.04729,353 398.237026,353 L270.616535,353 C262.80627,353 256.714565,346.632904 257.01033,338.778693 L267.085709,71.2213074 C267.381474,63.3670962 273.95271,57 281.762974,57 Z" id="Rectangle-55" fill="#0B4651"></path><path d="M410.992534,164.539841 C409.504486,202.77165 407.272413,260.119364 404.296316,336.582982 C404.136881,340.679288 400.696107,344 396.611132,344 L271.113557,344 C267.028582,344 263.846303,340.679288 264.005739,336.582982 C266.21819,279.739382 267.877529,237.106683 268.983755,208.684883 C270.746393,163.398153 412.182438,133.968126 410.992534,164.539841 Z" id="Rectangle-55-Copy" fill="#C8E8E5"></path><polygon id="Rectangle-55-Copy-5" fill="#0B4651" opacity="0.100000001" points="264 315 404 315 404 316 264 316"></polygon><path d="M281.786974,65 L406.892028,65 C410.964227,65 414.144311,68.326007 413.994947,72.4288445 L410.309434,173.664594 C387.146914,194.629612 364.128781,207.976094 341.255036,213.70404 C318.381291,219.431987 294.296279,219.431987 269,213.70404 L274.143158,72.4288445 C274.292523,68.326007 277.714776,65 281.786974,65 Z" id="Rectangle-55-Copy-2" fill="url(#linearGradient-1)"></path><path d="M256,207 L256,191.110587 C256.203527,191.064709 256.405621,191.018043 256.60622,190.97058 C266.373769,188.659527 273.601999,177.616555 287.426932,157.841664 C288.371044,156.491254 289.730947,155.573227 291.230448,155.166045 C290.42794,153.509519 289.755305,152.032045 289.212545,150.733623 C287.669072,151.025116 286.076571,151.177604 284.448506,151.177604 C276.075264,151.177604 268.642719,147.144119 263.982502,140.911453 L265.210388,108.747837 C269.89402,103.38629 276.776385,100 284.448506,100 C298.560207,100 310,111.456497 310,125.588802 C310,130.307345 308.724713,134.727593 306.500486,138.522724 C309.499926,144.405867 305.716564,151.339732 302.783748,153.863399 C301.313128,155.128858 299.691911,156.300476 297.9201,157.378252 C298.74197,158.693666 298.926176,160.378215 298.266012,161.910799 C298.172619,162.127613 298.06366,162.337364 297.939992,162.538405 C281.688763,188.957112 268.837911,201.723564 260.085762,205.475361 C258.716407,206.062365 257.352738,206.567422 256,207 Z" id="Combined-Shape" fill="#0B4651" opacity="0.200000003"></path><path d="M292,177 C284.858251,197.740793 274.858251,210.074126 262,214 C262.902556,198.923223 272.902556,186.58989 292,177 Z" id="Path-329" fill="#0B4651" opacity="0.200000003"></path><circle id="Oval-22-Copy" fill="#0B4651" opacity="0.200000003" cx="331.5" cy="129.5" r="25.5"></circle><circle id="Oval-22" fill="#FFFFFF" cx="292.5" cy="122.5" r="25.5"></circle><path d="M277,138.592679 C281.36244,135.096498 286.932107,133 293,133 C299.067893,133 304.63756,135.096498 309,138.592679 C304.872812,142.556834 299.226711,145 293,145 C286.773289,145 281.127188,142.556834 277,138.592679 Z" id="Combined-Shape" fill="#33BAAA"></path><circle id="Oval-22-Copy-2" fill="#33BAAA" cx="293" cy="119" r="9"></circle><path d="M299.776953,152.712301 C296.214898,145.190781 295.172381,141.234228 296.649403,140.842643 C298.864936,140.255266 301.405073,146.653606 302.051952,146.56199 C302.698831,146.470374 312.062559,142.49118 314.613195,135 C318.124339,141.122553 314.215432,148.566905 311.206001,151.224635 C309.199713,152.996456 306.911919,154.588244 304.342618,156 L299.776953,152.712301 Z" id="Path-323" fill="#FFD7B3"></path><path d="M192,187 C186.736526,189.022132 183.13373,191.730118 181.191614,195.123959 C179.440957,198.183225 173.152688,207.942666 162.326807,224.402284 L162.32681,224.402286 C160.09384,227.797283 160.200898,232.221269 162.595471,235.504282 L181.191614,261 L189.297293,255.814411 L176.280911,232.155357 C175.590745,230.900887 175.802954,229.342522 176.803422,228.318273 L189.297293,215.527416 L192,187 Z" id="Path-322" fill="url(#linearGradient-2)"></path><g id="Group-23" transform="translate(214.000000, 159.000000) scale(-1, 1) translate(-214.000000, -159.000000) translate(188.000000, 126.000000)"><path d="M5.95328822,23.3378451 C3.52550987,36.5829369 4.71677274,45.2062838 9.52707685,49.2078856 C16.742533,55.2102884 34.5840236,51.1219047 39.300407,47.8589374 C42.4446626,45.6836259 31.3289563,37.5099285 5.95328822,23.3378451 Z" id="Path-156" fill="#FFD7B3"></path><path d="M21.2838194,46.9520728 L21.2838194,62.8149 C27.6977802,64.8683169 31.9528038,65.7668748 34.0488903,65.5105739 C36.1449768,65.254273 37.6621357,63.7563006 38.6003668,61.0166569 L32.9463549,41.8743771 L21.2838194,46.9520728 Z" id="Path-157" fill="#FFD7B3"></path><path d="M5.59978171,29.548958 C-0.367845182,32.4407383 -1.32545523,23.545814 2.58931661,23.545814 C-0.467837647,13.4166547 4.8167162,1.84238847 16.890928,0.465134722 C39.0778856,-2.06563672 34.8171226,14.715389 43.3353388,12.892641 C50.6197158,11.3339128 53.7732689,20.1859396 50.4578249,28.6860359 C49.0486286,32.2989169 46.3110929,34.7670565 43.3353388,39.5889115 C44.34316,39.5889115 46.2184189,42.1063138 44.9320777,44.6536977 C43.9038293,46.6899719 41.6753474,48.207323 39.6547183,47.168319 C40.6847507,52.3174532 23.3430589,54.8751893 18.1942642,36.3444564 C12.4264095,32.3243335 10.4800148,37.4701366 5.59978171,29.548958 Z" id="Path-154" fill="#0B4651"></path><path d="M18.0542328,36.5120038 L18.0542328,29.9163544 C18.0542328,22.3874853 23.4320784,15.9331024 30.837323,14.5743448 L40.4736751,12.8062106 L36.8230184,8.92393683 L27.0563537,11.1705595 C19.9991138,12.793934 14.6638806,18.5856977 13.6240932,25.7522047 L13.4678299,26.8292159 L13.4678299,26.8292159 C13.4678299,29.9424499 11.9807694,32.8684161 9.46588477,34.7035131 L8.85867404,35.1465913 L18.0542328,36.5120038 Z" id="Path-155" fill="url(#linearGradient-3)"></path><path d="M38.253704,10.7616632 C36.5743806,11.1479574 34.0553954,11.7273987 30.6967486,12.4999871 C22.532459,14.378016 16.4453653,21.3430012 15.554872,29.8256521 L14.7138855,37.8367116" id="Path-155-Copy" stroke="#FFFFFF" stroke-width="0.525" stroke-linecap="round" stroke-linejoin="round"></path><path d="M14.5005293,44.6196842 C17.3714728,44.6196842 19.6988323,41.7480029 19.6988323,38.2056046 C19.6988323,34.6632062 17.3714728,31.791525 14.5005293,31.791525 C13.6759661,31.791525 12.6874333,31.791525 11.5349311,31.791525 C10.0464613,34.7233909 9.30222636,36.8614174 9.30222636,38.2056046 C9.30222636,39.8841744 10.0464613,42.0222009 11.5349311,44.6196842 C12.9584343,44.6196842 13.9469671,44.6196842 14.5005293,44.6196842 Z" id="Oval-17" fill="url(#linearGradient-4)"></path><ellipse id="Oval-17-Copy" fill="url(#linearGradient-5)" cx="11.7645804" cy="38.2056046" rx="5.19830297" ry="6.4140796"></ellipse><ellipse id="Oval-17-Copy-2" fill="#FFFFFF" cx="11.7645804" cy="38.2056046" rx="1.91516425" ry="2.50985723"></ellipse></g><polygon id="Path-285" fill="#0B4651" points="185.80104 269 183 399.15091 194.410331 399.15091 207.345812 300.555943 213.832737 401 223.464391 401 236 269"></polygon><path d="M181.59758,268.298229 C181.261692,234.709033 182.040619,213.489617 183.934363,204.639983 C184.941943,199.931471 186.075912,192.633701 189.820418,188.25192 C191.829535,185.900872 196.457163,186.626562 199.191688,186.525391 C202.375958,186.40758 203.596248,191.670428 207.110074,192.142121 C212.44779,192.85865 219.022288,187.856819 219.476045,188.25192 C222.305711,190.715807 243.981946,192.136511 260.322642,188.25192 C270.102805,185.926932 281.914763,174.815282 295.758515,154.916971 L295.758523,154.916976 C297.608399,152.258057 301.076953,151.272985 304.048241,152.562689 L304.048241,152.562689 C306.538435,153.643571 307.680908,156.5385 306.600026,159.028694 C306.508774,159.238925 306.40293,159.442517 306.28327,159.637979 C290.009807,186.220273 277.491444,201.398582 268.728195,205.172915 C247.995437,214.102519 228.75873,210.349848 228.75873,213.211412 C228.75873,220.386086 228.253355,256.919466 233.748436,259.617966 C239.243517,262.316466 238.716264,276.323074 235.885874,278.470906 C234.527925,279.501381 230.594268,282.306171 218.027327,282.877617 C204.400828,283.497244 185.340687,281.723698 181.59758,278.470906 C176.800807,274.30247 176.800807,270.911578 181.59758,268.298229 Z" id="Path-275" fill="url(#linearGradient-6)"></path><g id="Group-53" transform="translate(204.500000, 205.500000) scale(-1, 1) translate(-204.500000, -205.500000) translate(185.000000, 185.000000)"><path d="M2.87637935,4.11140918 C1.97852202,16.6367602 4.87135063,23.74993 11.5548652,25.4509188 C21.580137,28.002402 17.6836315,41.7376877 29.2093394,39.8161788 C40.7350474,37.89467 36.4034471,7.09154588 29.8767807,4.11140918 C26.4172093,4.1578131 23.9879772,3.83729114 22.5890844,3.14984328 L18.4265137,5.87308402 L9.87611889,6.69974365 L6.22452522,5.17597445 L2.87637935,4.11140918 Z" id="Path-160" fill="#0B4651" opacity="0.340000004"></path><path d="M0.356341012,5.04340252 C2.78138337,5.79541292 3.34247945,22.3358938 13.3677513,24.887377 C23.3930231,27.4388602 22.2708012,39.5113544 32.210242,37.273216 C42.1496829,35.0350777 41.5582976,5.46053505 27.3675126,1.033404 C23.8698294,-0.0577760585 21.7061677,0.23744729 20.8765274,1.91907405 L19.6452637,4.64231478 L11.0948689,5.46897442 L8.05315158,2.88063995 C6.86150203,2.23959601 5.69424041,1.91907405 4.55136672,1.91907405 C2.83705617,1.91907405 1.04474497,2.88063995 0.356341012,5.04340252 Z" id="Path-160-Copy" fill="url(#linearGradient-7)"></path><path d="M5.66923358,2.00322254 C8.95269918,4.60421686 11.5030886,7.28744832 13.3204017,10.0529169 C17.9207436,18.3966203 31.2358411,19.4705211 32.8325709,12.5070482 C33.8970574,7.86473284 32.5349862,4.57866996 28.7463571,2.64885951 C25.4225475,1.29369964 23.2715721,0.734470067 22.293431,0.97117079 C21.6847568,1.11846406 20.9487555,2.29271432 20.6052557,2.64885951 C18.8479943,4.47081161 12.0051059,4.42310007 9.76027519,3.52330251 C8.26372141,2.92343747 6.90004088,2.41674415 5.66923358,2.00322254 Z" id="Path-159" fill="#0B4651"></path></g><path d="" id="Path-277" stroke="#979797" stroke-width="0.525"></path><path d="M214.197056,398 C212.600981,404.993857 212.600981,408.660524 214.197056,409 L238,409 C237.594981,406.221854 236.887629,404.388521 235.877946,403.5 C234.868263,402.611479 230.684154,400.778146 223.325618,398 L214.197056,398 Z" id="Path-290" fill="url(#linearGradient-3)"></path><path d="M183.197056,398 C181.600981,404.993857 181.600981,408.660524 183.197056,409 L207,409 C206.594981,406.221854 205.887629,404.388521 204.877946,403.5 C203.868263,402.611479 200.408948,400.778146 194.5,398 L183.197056,398 Z" id="Path-290-Copy-2" fill="url(#linearGradient-8)"></path><path d="M307,64 L380,64 L373.1638,64 C370.402376,64 368.1638,66.2385763 368.1638,69 L368.1638,69 C368.1638,71.7614237 365.925224,74 363.1638,74 L321.18471,74 C318.423286,74 316.18471,71.7614237 316.18471,69 L316.18471,69 C316.18471,66.2385763 313.946134,64 311.18471,64 L307,64 Z" id="Rectangle-56" fill="#0B4651"></path><rect id="Rectangle-57" fill="#0B4651" opacity="0.5" x="297" y="175" width="71" height="8" rx="4"></rect><path d="M269.695414,358 L412,358 L400.68799,358 C395.068947,358 390.145509,361.761864 388.668935,367.18343 L377.280117,409 L244.816025,409 C243.619551,409 242.649618,408.030066 242.649618,406.833593 C242.649618,406.64608 242.673963,406.45936 242.722042,406.278116 L251.896556,371.692909 C254.037945,363.620508 261.343815,358 269.695414,358 Z" id="Rectangle-61" fill="#33BAAA"></path><path d="M279.332814,275 L390.667186,275 C393.060133,275 395,276.939867 395,279.332814 L395,299.667186 C395,302.060133 393.060133,304 390.667186,304 L279.332814,304 C276.939867,304 275,302.060133 275,299.667186 L275,279.332814 C275,276.939867 276.939867,275 279.332814,275 Z" id="Rectangle-62" fill="#FFFFFF" opacity="0.830446105"></path><rect id="Rectangle-62-Copy" fill="#FFFFFF" opacity="0.830446105" x="275" y="229" width="54" height="4" rx="2"></rect><rect id="Rectangle-62-Copy-2" fill="#FFFFFF" opacity="0.830446105" x="275" y="253" width="101" height="4" rx="2"></rect><circle id="Oval-23" fill="#7DD977" cx="331.5" cy="329.5" r="10.5"></circle><rect id="Rectangle-63" fill="#0B4651" opacity="0.200000003" x="276" y="325" width="11" height="11" rx="2.70800901"></rect><rect id="Rectangle-63-Copy" fill="#0B4651" opacity="0.200000003" x="370" y="325" width="11" height="11" rx="2.70800901"></rect><path d="M396.998824,284 C395.963826,299.41866 393.204571,310.50085 388.721061,317.24657 C381.995796,327.365149 383.203887,341 402.259696,339.925731 C414.963568,339.209552 421.877003,339.567641 423,341 L423,318.688856 L396.998824,284 Z" id="Path-330" fill="#0B4651" opacity="0.200000003"></path><g id="Group-57" transform="translate(395.000000, 282.000000)"><g id="Group-12" transform="translate(97.500585, 53.500000) scale(-1, 1) translate(-97.500585, -53.500000) translate(52.500585, 0.000000)"><g id="Path-44" transform="translate(0.000000, 37.326121)"><mask id="mask-10" fill="white"><use xlink:href="#path-9"></use></mask><use id="Mask" fill="#33BAAA" xlink:href="#path-9"></use><path d="M41.1705628,4.35112682 C37.7810308,11.0071133 36.0862648,17.3720253 36.0862648,23.4458628 C36.0862648,29.5197003 37.7810308,37.3570577 41.1705628,46.9579351 L54.3311685,25.6545309 L41.1705628,4.35112682 Z" fill="#25877C" mask="url(#mask-10)"></path><path d="M22.8944194,-6.47245003 C15.0720406,-7.45824554 8.08023397,-6.13758588 1.91899953,-2.51047105" id="Path-45" stroke="#0D6574" stroke-width="1.1055176" mask="url(#mask-10)"></path><path d="M41.8534836,29.8481475 C31.1430529,13.7501098 20.4326222,6.62273514 9.72219154,8.46602362" id="Path-46" stroke="#0D6574" stroke-width="1.1055176" mask="url(#mask-10)"></path><path d="M32.8279516,7.5433658 C32.7816543,3.31242802 33.6569033,0.905490397 35.4536986,0.322552941" id="Path-47" stroke="#0D6574" stroke-width="1.1055176" mask="url(#mask-10)"></path></g><path d="M54.2028122,100.219856 C44.3981154,94.7195001 39.0558352,84.9838051 39.0558352,73.929472 C39.0558352,62.8751389 45.4905455,62.9531256 48.8772351,51.5890139 C52.2639248,40.2249021 46.2039852,43.0081961 46.9689988,31.2063402 C47.7340125,19.4044844 62.4225613,21.8051832 64.2568749,7.94730892 C66.0911886,-5.91056532 81.7504734,-0.293998707 80.5281707,14.3997254 C79.305868,29.0934496 94.2881016,29.901725 87.4081361,43.2167277 C80.5281707,56.5317304 77.9288434,53.1417989 80.5281707,63.0479127 C83.127498,72.9540265 87.3737535,93.9207117 57.0224816,100.219856 C56.3986386,100.424514 55.3223958,101.85813 54.2028122,100.219856 Z" id="Path-37" fill="#1D9F90"></path><path d="M54.2028122,100.219856 C44.3981154,94.7195001 39.0558352,84.9838051 39.0558352,73.929472 C39.0558352,62.8751389 45.4905455,62.9531256 48.8772351,51.5890139 C52.2639248,40.2249021 46.2039852,43.0081961 46.9689988,31.2063402 C47.7340125,19.4044844 62.4225613,21.8051832 64.2568749,7.94730892 C66.0911886,-5.91056532 81.7504734,-0.293998707 80.5281707,14.3997254 C79.305868,29.0934496 94.2881016,29.901725 87.4081361,43.2167277 C80.5281707,56.5317304 77.9288434,53.1417989 80.5281707,63.0479127 C83.127498,72.9540265 87.3737535,93.9207117 57.0224816,100.219856 C56.3986386,100.424514 55.3223958,101.85813 54.2028122,100.219856 Z" id="Path-37-Copy" fill="#1D9F90"></path><path d="M53.4427416,106.765224 C66.6262671,57.4728764 73.2180298,24.8981421 73.2180298,9.04102146" id="Path-40" stroke="#0D6574" stroke-width="1.1055176"></path><path d="M70.39186,37.8399734 C78.9951161,35.1773724 85.3267801,32.6010697 89.386852,30.1110654" id="Path-41" stroke="#0D6574" stroke-width="1.1055176"></path><path d="M64.7381115,61.6092112 L51.2977966,48.8073006" id="Path-42" stroke="#0D6574" stroke-width="1.1055176"></path></g><g id="Group-29" transform="translate(0.000000, 1.667481)"><g id="Group-56"><path d="M61.9501789,16.2537549 C71.8128308,33.4730309 78.3900139,46.500875 81.6817281,55.3372875 C85.1942334,64.7664005 86.0677569,75.0293816 84.3022986,86.1262306 C90.4291405,79.1348624 95.159055,74.5134491 98.4920421,72.2619907 C99.9168579,71.2995167 101.527145,70.4724113 103.322902,69.7806747 C103.402449,70.5426194 103.44475,71.365714 103.44475,72.2619907 C103.44475,77.3216306 102.325568,82.1050222 100.171571,86.3324908 L86.6082429,99.0495313 C86.5018504,99.0462958 86.3959427,99.0430284 86.2905198,99.0397293 C85.9752847,98.8503085 85.6984693,98.6246683 85.4781034,98.552375 C76.6766872,96.725717 70.7846238,93.6656457 66.9180835,89.9995473 C65.4376464,85.7691851 63.2024343,79.5856348 60.2124473,71.4488962 C60.4295926,67.6170858 61.2624377,64.0861734 61.9724143,61.3804314 C64.5717416,51.4743176 61.9724143,54.8642491 55.0924488,41.5492464 C48.8081681,29.3870901 60.7642089,27.6596904 61.9501789,16.2537549 Z" id="Combined-Shape" fill="#0B4651" opacity="0.300000012"></path><path d="M76.2927526,103.711742 C76.2927526,98.5087335 31.2472244,85.7257068 34.5127525,70.2729466 C37.7782807,54.8201865 36.659232,37.4988331 11.2330491,48.8842665 C-14.1931337,60.2697 13.2639153,10.4163358 2.48570926,0.133570524 C36.0857796,1.71824326 89.354865,39.6271366 82.8238088,103.711742 C76.2927526,107.19142 76.2927526,108.914751 76.2927526,103.711742 Z" id="Path-259" fill="#33BAAA"></path><path d="M9.41850975,4.85786445 C52.636548,34.4311449 74.8809181,70.0478757 76.1516199,111.708057" id="Path-262" stroke="#0D6574" stroke-width="1.22835289"></path><path d="M43.7942464,70.2165232 C55.7305915,69.2010357 64.3588037,71.2734389 69.6788831,76.4337326 C68.1632715,72.7562362 69.168752,66.9483372 72.6953248,59.0100356" id="Path-263" stroke="#0D6574" stroke-width="1.22835289"></path><path d="M19.6607422,28.065176 C32.4334001,29.042881 41.0251509,31.5686741 45.4359947,35.6425553" id="Path-264" stroke="#0D6574" stroke-width="1.22835289"></path><path d="M51.4856306,43.0727817 C51.2438685,33.8956119 51.8791509,28.9351678 53.3914778,28.1914491" id="Path-265" stroke="#0D6574" stroke-width="1.22835289"></path></g><g id="Group-55" transform="translate(103.753903, 89.256132) rotate(31.000000) translate(-103.753903, -89.256132) translate(84.253903, 61.756132)"><path d="M2.55517811,35.2394405 C10.9433235,12.2490803 22.8222286,0.649683152 38.1918933,0.441249083 C38.9894184,16.4290896 35.2113259,21.4654911 23.2896021,24.6278396 C11.3678782,27.7901881 28.5564628,31.7001806 23.2896021,38.0125199 C19.7783616,42.2207461 14.1133527,47.7458966 6.2945755,54.5879715 L0.360447997,44.8401774 L2.55517811,35.2394405 Z" id="Path-260" fill="#2CB0A0"></path><path d="M5.78340452,49.8282811 C8.72579437,25.6783546 16.2650223,11.0772602 28.4010882,6.02499806" id="Path-266" stroke="#0D6574" stroke-width="0.877394919"></path><path d="M13.622416,21.4489987 C19.6129187,18.0326262 24.3253473,17.178533 27.7597017,18.8867193" id="Path-267" stroke="#0D6574" stroke-width="0.877394919"></path></g></g><path d="M57.0938199,93.3789525 L109.380974,93.3789525 C111.534627,93.3789525 113.280507,95.1248329 113.280507,97.2784855 C113.280507,97.4913428 113.263079,97.7038427 113.228397,97.9138555 L108.733563,125.131897 C108.422612,127.014827 106.794573,128.39606 104.88614,128.39606 L61.588654,128.39606 C59.6802209,128.39606 58.0521816,127.014827 57.7412312,125.131897 L53.2463971,97.9138555 C52.8954919,95.7889826 54.3335769,93.7819679 56.4584499,93.4310627 C56.6684627,93.3963808 56.8809626,93.3789525 57.0938199,93.3789525 Z" id="Rectangle-66" fill="#7DD977"></path><path d="M87.0971215,93.3789525 L109.380974,93.3789525 C111.534627,93.3789525 113.280507,95.1248329 113.280507,97.2784855 C113.280507,97.4913428 113.263079,97.7038427 113.228397,97.9138555 L108.733563,125.131897 C108.422612,127.014827 106.794573,128.39606 104.88614,128.39606 L96.1882801,128.39606 C94.279847,128.39606 92.6518076,127.014827 92.3408573,125.131897 L87.0971215,93.3789525 Z" id="Rectangle-66-Copy" fill="#0B4651" opacity="0.100000001"></path></g><path d="M265,119.025578 C269.261595,118.597098 274.594928,121.921905 281,129 C278.898404,113.301798 273.923792,101.301798 266.076162,93 L265,119.025578 Z" id="Path-333" fill="#0B4651" opacity="0.5"></path><path d="M284.884315,351.999995 L269.388603,351.999995 C262.50888,351.999995 256.931762,346.422877 256.931762,339.543154 C256.931762,339.381964 256.93489,339.22079 256.941146,339.059721 L258.875761,289.247088 C300.465422,284.291965 334.568483,277.686865 342.534724,237 C362.635543,298.32531 323.642818,330.889596 284.884305,352 Z" id="Combined-Shape" fill="#0B4651" opacity="0.300000012"></path><path d="M140.92049,61.0513546 C177.704098,81.816549 272.598512,48.8165908 282,130 C254.949602,69.5712468 188.824674,118.418803 103.834386,106.678135 C65.2597591,101.349386 4.12558136,61.0513546 0,0 L107.44886,0 C113.643481,10.8890703 127.848406,53.6718622 140.92049,61.0513546 Z" id="Path-331-Copy" fill="url(#linearGradient-11)"></path><path d="M428,223 L426.698017,259 C401.271578,256.315694 374.215748,248.033452 354,229.529817 C381.862172,233.966788 407.551219,231.638143 428,223 Z" id="Combined-Shape" fill="#0B4651" opacity="0.600000024"></path><path d="M463.742344,193.355231 C497.927993,141.693415 493.972194,102.426561 480.731572,74.2767995 C544.791933,73.9077335 585.510364,73.9077335 602.886865,74.2767995 C625.974531,130.706413 567.781768,216.035576 490.531507,238.862125 C463.742344,246.778009 397.314001,258.719972 354,228.589476 C401.242267,236.165828 444.184872,222.910748 463.742344,193.355231 Z" id="Path-331" fill="url(#linearGradient-12)"></path><rect id="Rectangle-3" fill="#7DD977" x="543" y="132" width="14" height="14"></rect><path d="M112.009076,430 C97.3408897,383.012294 114.887579,347.07254 164.649144,322.180736 C239.291492,284.843031 328.181987,308.737853 342.27319,237 C366.732493,311.382299 290.455598,333.5 246.617545,354.183006 C217.392176,367.971676 210.779504,393.244008 226.779529,430 L112.009076,430 Z" id="Path-332" fill="url(#linearGradient-13)"></path><path d="M276.104622,321.879913 C273.891763,325.056871 271.240652,327.0969 268.15129,328 C269.482539,326.767765 270.307432,323.984143 270.625971,319.649135 C266.569429,317.287525 264,313.785658 264,309.877065 C264,302.765258 272.50659,297 283,297 C293.49341,297 302,302.765258 302,309.877065 C302,316.988872 293.49341,322.75413 283,322.75413 C280.567731,322.75413 278.242208,322.444382 276.104622,321.879913 Z" id="Combined-Shape" fill="#0B4651" opacity="0.5"></path><path d="M218.237738,337.459291 C216.548977,339.816388 214.525761,341.329958 212.16809,342 C213.184043,341.085761 213.813567,339.020493 214.056662,335.804197 C210.96088,334.052034 209,331.453875 209,328.553951 C209,323.27745 215.491871,319 223.5,319 C231.508129,319 238,323.27745 238,328.553951 C238,333.830453 231.508129,338.107903 223.5,338.107903 C221.643795,338.107903 219.869053,337.87809 218.237738,337.459291 Z" id="Combined-Shape-Copy-5" fill="#FFFFFF" transform="translate(223.500000, 330.500000) scale(-1, 1) translate(-223.500000, -330.500000) "></path><path d="M163.531635,382.822126 C161.177042,385.357148 158.493945,387.056366 155.482344,387.919779 C156.752485,386.766749 157.659046,384.521222 158.202025,381.183198 C155.627895,379.910613 153.62456,378.02219 152.476289,375.561027 C148.737303,367.54702 155.48023,356.495132 167.537039,350.875947 C179.593847,345.256761 192.398868,347.198147 196.137854,355.212155 C199.876839,363.226163 193.133912,374.27805 181.077104,379.897236 C174.999748,382.729643 168.732288,383.641086 163.531635,382.822126 Z" id="Combined-Shape-Copy-6" fill="#FFFFFF" transform="translate(174.307071, 367.791308) scale(-1, 1) rotate(26.000000) translate(-174.307071, -367.791308) "></path><path d="M161.434783,369 C160.090089,369 159,367.880712 159,366.5 C159,365.119288 160.090089,364 161.434783,364 C162.779476,364 163.869565,365.119288 163.869565,366.5 C163.869565,367.880712 162.779476,369 161.434783,369 Z M173,369 C171.655307,369 170.565217,367.880712 170.565217,366.5 C170.565217,365.119288 171.655307,364 173,364 C174.344693,364 175.434783,365.119288 175.434783,366.5 C175.434783,367.880712 174.344693,369 173,369 Z M184.565217,369 C183.220524,369 182.130435,367.880712 182.130435,366.5 C182.130435,365.119288 183.220524,364 184.565217,364 C185.909911,364 187,365.119288 187,366.5 C187,367.880712 185.909911,369 184.565217,369 Z" id="Combined-Shape" fill="#33BAAA"></path><path d="M274.875,312 C273.839466,312 273,311.104569 273,310 C273,308.895431 273.839466,308 274.875,308 C275.910534,308 276.75,308.895431 276.75,310 C276.75,311.104569 275.910534,312 274.875,312 Z M283,312 C281.964466,312 281.125,311.104569 281.125,310 C281.125,308.895431 281.964466,308 283,308 C284.035534,308 284.875,308.895431 284.875,310 C284.875,311.104569 284.035534,312 283,312 Z M291.125,312 C290.089466,312 289.25,311.104569 289.25,310 C289.25,308.895431 290.089466,308 291.125,308 C292.160534,308 293,308.895431 293,310 C293,311.104569 292.160534,312 291.125,312 Z" id="Combined-Shape" fill="#FFFFFF"></path><path d="M217.25,329 C216.559644,329 216,328.552285 216,328 C216,327.447715 216.559644,327 217.25,327 C217.940356,327 218.5,327.447715 218.5,328 C218.5,328.552285 217.940356,329 217.25,329 Z M223.5,329 C222.809644,329 222.25,328.552285 222.25,328 C222.25,327.447715 222.809644,327 223.5,327 C224.190356,327 224.75,327.447715 224.75,328 C224.75,328.552285 224.190356,329 223.5,329 Z M229.75,329 C229.059644,329 228.5,328.552285 228.5,328 C228.5,327.447715 229.059644,327 229.75,327 C230.440356,327 231,327.447715 231,328 C231,328.552285 230.440356,329 229.75,329 Z" id="Combined-Shape" fill="#54B454"></path><g id="Group-58" filter="url(#filter-14)" transform="translate(184.518152, 79.834851) rotate(-14.000000) translate(-184.518152, -79.834851) translate(163.018152, 57.834851)"><path d="M9.09494702e-13,2.43702437 L33.3293631,2.43702437 L33.3293631,41.824536 C33.3293631,42.6142087 32.6892069,43.2543648 31.8995343,43.2543648 L2.14474314,43.2543648 C0.96023421,43.2543648 9.09195673e-13,42.2941306 9.09050613e-13,41.1096217 L9.09494702e-13,2.43702437 Z" id="Rectangle-58-Copy-4" fill="#0B4651" opacity="0.049999997"></path><path d="M3.25164518,0 L36.5810083,0 L36.2585072,38.6528794 L5.53673076,40.6674934 C4.35476048,40.7450024 3.33375079,39.8496597 3.2562418,38.6676894 C3.25317821,38.6209713 3.25164518,38.5741654 3.25164518,38.5273469 L3.25164518,0 Z" id="Rectangle-58" fill="#FFFFFF"></path><path d="M6.18778524,40.6712091 C7.9785808,40.5439215 9.35976383,39.0438895 9.33796509,37.2499603 L9.26132168,30.9425834 L42.411748,30.9425834 L42.411748,37.2042097 C42.411748,38.995252 40.96145,40.4485751 39.1691583,40.4535629 C16.0740198,40.6773841 5.0802288,40.7499328 6.18778524,40.6712091 Z" id="Path-335" fill="#0B4651"></path><rect id="Rectangle-67" fill="#0B4651" opacity="0.100000001" x="6.50329036" y="8.12341455" width="26.8260727" height="5.68639019" rx="2.84319509"></rect><rect id="Rectangle-67-Copy" fill="#0B4651" opacity="0.100000001" x="6.50329036" y="20.3085364" width="26.8260727" height="5.68639019" rx="2.84319509"></rect></g><path d="M228.449396,86.2454443 L246.116314,86.2454443 L234.407944,75.288613 L228.449396,86.2454443 Z M259.357615,91.480161 L219.661405,91.480161 L233.049804,66.8610007 L259.357615,91.480161 Z" id="Rectangle-68" fill="#33BAAA" fill-rule="nonzero" transform="translate(239.509510, 79.170581) rotate(15.000000) translate(-239.509510, -79.170581) "></path><g id="Group-59" transform="translate(465.369998, 212.506855) rotate(12.000000) translate(-465.369998, -212.506855) translate(431.869998, 192.006855)"><path d="M21.9031424,1.85351149 L62.521811,1.85351149 C65.0855906,1.85351149 66.8271292,4.14019648 66.4116464,6.96096537 L62.2740067,35.0519617 C61.8585239,37.8727306 59.4433546,40.1594156 56.879575,40.1594156 L16.2609065,40.1594156 C13.6971269,40.1594156 11.9555882,37.8727306 12.371071,35.0519617 L16.5087108,6.96096537 C16.9241936,4.14019648 19.3393629,1.85351149 21.9031424,1.85351149 Z" id="Rectangle-70" fill="#33BAAA"></path><path d="M3.31719639,0 L13.8954058,0 C14.9007834,0 15.8778249,0.436419768 16.5748786,1.19685279 L20.6598124,5.65320817 C21.3568661,6.41364119 22.3339076,6.85006096 23.3392852,6.85006096 L52.9510703,6.85006096 C54.8728038,6.85006096 56.5052045,8.41353773 56.5971393,10.3421841 L57.8520054,36.6672925 C57.9439402,38.5959388 56.4605952,40.1594156 54.5388618,40.1594156 L5.23151675,40.1594156 C3.30978326,40.1594156 1.6773826,38.5959388 1.58544783,36.6672925 L0.00405275311,3.4921231 C-0.087882024,1.56347677 1.39546291,0 3.31719639,0 Z" id="Rectangle-69" fill="#0B4651"></path></g><g id="Group-60" filter="url(#filter-15)" transform="translate(502.299904, 180.154920) rotate(-14.000000) translate(-502.299904, -180.154920) translate(484.299904, 159.654920)"><polygon id="Rectangle-71" fill="#FFFFFF" points="0 0 35.0829289 0 35.0829289 31.0322466 26.7112489 40.1594156 0 40.1594156"></polygon><path d="M6.00712345,6.79620879 L29.6912954,6.79620879 C30.2895322,6.79620879 30.774499,7.28117557 30.774499,7.8794124 L30.774499,8.18435384 C30.774499,8.78259067 30.2895322,9.26755745 29.6912954,9.26755745 L6.00712345,9.26755745 C5.40888662,9.26755745 4.92391984,8.78259067 4.92391984,8.18435384 L4.92391984,7.8794124 C4.92391984,7.28117557 5.40888662,6.79620879 6.00712345,6.79620879 Z" id="Rectangle-72" fill="#6AC264" opacity="0.449999988"></path><path d="M6.00712345,15.4459291 L29.6912954,15.4459291 C30.2895322,15.4459291 30.774499,15.9308958 30.774499,16.5291327 L30.774499,16.8340741 C30.774499,17.432311 30.2895322,17.9172777 29.6912954,17.9172777 L6.00712345,17.9172777 C5.40888662,17.9172777 4.92391984,17.432311 4.92391984,16.8340741 L4.92391984,16.5291327 C4.92391984,15.9308958 5.40888662,15.4459291 6.00712345,15.4459291 Z" id="Rectangle-72-Copy" fill="#6AC264" opacity="0.449999988"></path><path d="M6.00712345,24.0956494 L29.6912954,24.0956494 C30.2895322,24.0956494 30.774499,24.5806161 30.774499,25.178853 L30.774499,25.4837944 C30.774499,26.0820312 30.2895322,26.566998 29.6912954,26.566998 L6.00712345,26.566998 C5.40888662,26.566998 4.92391984,26.0820312 4.92391984,25.4837944 L4.92391984,25.178853 C4.92391984,24.5806161 5.40888662,24.0956494 6.00712345,24.0956494 Z" id="Rectangle-72-Copy-2" fill="#6AC264" opacity="0.449999988"></path><polygon id="Rectangle-71-Copy" fill="#6AC264" points="26.4660692 30.274021 35.0402082 31.1628032 26.7270252 40.3135483"></polygon></g><circle id="Oval-27" fill="#33BAAA" cx="513" cy="132" r="6"></circle><path d="M61,409.5 L335,409.5" id="Path-320" stroke="#0B4651" stroke-width="0.8505"></path><ellipse id="Oval" stroke="#0B4651" stroke-width="0.752224725" cx="440.5" cy="422.5" rx="12.5" ry="4.5"></ellipse><ellipse id="Oval-Copy" stroke="#0B4651" stroke-width="0.752224725" cx="474.5" cy="426" rx="5.5" ry="4"></ellipse><ellipse id="Oval-Copy-2" stroke="#0B4651" stroke-width="0.752224725" cx="466" cy="414.5" rx="4" ry="2.5"></ellipse><path d="M449,409.294598 L556.276838,409.294598" id="Path-320-Copy-2" stroke="#0B4651" stroke-width="0.8505"></path></g></g></g></g></g></svg> 