<?xml version="1.0" encoding="UTF-8"?> <svg xmlns="http://www.w3.org/2000/svg" xmlns:xlink="http://www.w3.org/1999/xlink" width="532px" height="242px" viewBox="0 0 532 242"><!-- Generator: Sketch 52.5 (67469) - http://www.bohemiancoding.com/sketch --><title>development-illustration@3x</title><desc>Created with Sketch.</desc><defs><path d="M49.1017033,11.8057784 C29.6245491,1.60585246 13.3917855,-1.79412285 0.403412563,1.60585246 C3.46360928,8.86954941 6.63939494,12.5013979 9.93076957,12.5013979 C14.8678315,12.5013979 20.9044437,9.74385256 22.8285008,14.8163896 C24.752558,19.8889267 28.8333053,27.8436722 36.9873159,27.8436722 C42.4233229,27.8436722 47.9470611,25.3632943 53.5585306,20.4025383 L49.1017033,11.8057784 Z" id="path-1"></path><path d="M49.1017033,11.8057784 C29.6245491,1.60585246 13.3917855,-1.79412285 0.403412563,1.60585246 C3.46360928,8.86954941 6.63939494,12.5013979 9.93076957,12.5013979 C14.8678315,12.5013979 20.9044437,9.74385256 22.8285008,14.8163896 C24.752558,19.8889267 28.8333053,27.8436722 36.9873159,27.8436722 C42.4233229,27.8436722 47.9470611,25.3632943 53.5585306,20.4025383 L49.1017033,11.8057784 Z" id="path-3"></path><path d="M49.1017033,11.8057784 C29.6245491,1.60585246 13.3917855,-1.79412285 0.403412563,1.60585246 C3.46360928,8.86954941 6.63939494,12.5013979 9.93076957,12.5013979 C14.8678315,12.5013979 20.9044437,9.74385256 22.8285008,14.8163896 C24.752558,19.8889267 28.8333053,27.8436722 36.9873159,27.8436722 C42.4233229,27.8436722 47.9470611,25.3632943 53.5585306,20.4025383 L49.1017033,11.8057784 Z" id="path-5"></path><path d="M49.1017033,11.8057784 C29.6245491,1.60585246 13.3917855,-1.79412285 0.403412563,1.60585246 C3.46360928,8.86954941 6.63939494,12.5013979 9.93076957,12.5013979 C14.8678315,12.5013979 20.9044437,9.74385256 22.8285008,14.8163896 C24.752558,19.8889267 28.8333053,27.8436722 36.9873159,27.8436722 C42.4233229,27.8436722 47.9470611,25.3632943 53.5585306,20.4025383 L49.1017033,11.8057784 Z" id="path-7"></path><path d="M49.1017033,11.8057784 C29.6245491,1.60585246 13.3917855,-1.79412285 0.403412563,1.60585246 C3.46360928,8.86954941 6.63939494,12.5013979 9.93076957,12.5013979 C14.8678315,12.5013979 20.9044437,9.74385256 22.8285008,14.8163896 C24.752558,19.8889267 28.8333053,27.8436722 36.9873159,27.8436722 C42.4233229,27.8436722 47.9470611,25.3632943 53.5585306,20.4025383 L49.1017033,11.8057784 Z" id="path-9"></path><path d="M54.4325594,49.5770231 C54.2704856,34.7259561 51.6081052,25.3985396 46.4454181,21.5947737 C38.7013875,15.8891248 33.4021213,22.9624914 27.4650312,15.8891248 C21.527941,8.81575812 16.4700205,0.107374251 8.4938055,0.107374251 C0.517590517,0.107374251 -2.16442225,7.27332194 2.30034604,11.5812233 C6.76511433,15.8891248 12.2938332,16.5443189 10.836535,28.4729471 C9.37923684,40.4015753 27.6331795,29.2332453 27.6331795,42.1009851 C27.6331795,50.6794782 36.5663061,53.1714909 54.4325594,49.5770231 Z" id="path-11"></path><path d="M54.4325594,49.5770231 C54.2704856,34.7259561 51.6081052,25.3985396 46.4454181,21.5947737 C38.7013875,15.8891248 33.4021213,22.9624914 27.4650312,15.8891248 C21.527941,8.81575812 16.4700205,0.107374251 8.4938055,0.107374251 C0.517590517,0.107374251 -2.16442225,7.27332194 2.30034604,11.5812233 C6.76511433,15.8891248 12.2938332,16.5443189 10.836535,28.4729471 C9.37923684,40.4015753 27.6331795,29.2332453 27.6331795,42.1009851 C27.6331795,50.6794782 36.5663061,53.1714909 54.4325594,49.5770231 Z" id="path-13"></path><path d="M54.4325594,49.5770231 C54.2704856,34.7259561 51.6081052,25.3985396 46.4454181,21.5947737 C38.7013875,15.8891248 33.4021213,22.9624914 27.4650312,15.8891248 C21.527941,8.81575812 16.4700205,0.107374251 8.4938055,0.107374251 C0.517590517,0.107374251 -2.16442225,7.27332194 2.30034604,11.5812233 C6.76511433,15.8891248 12.2938332,16.5443189 10.836535,28.4729471 C9.37923684,40.4015753 27.6331795,29.2332453 27.6331795,42.1009851 C27.6331795,50.6794782 36.5663061,53.1714909 54.4325594,49.5770231 Z" id="path-15"></path><path d="M54.4325594,49.5770231 C54.2704856,34.7259561 51.6081052,25.3985396 46.4454181,21.5947737 C38.7013875,15.8891248 33.4021213,22.9624914 27.4650312,15.8891248 C21.527941,8.81575812 16.4700205,0.107374251 8.4938055,0.107374251 C0.517590517,0.107374251 -2.16442225,7.27332194 2.30034604,11.5812233 C6.76511433,15.8891248 12.2938332,16.5443189 10.836535,28.4729471 C9.37923684,40.4015753 27.6331795,29.2332453 27.6331795,42.1009851 C27.6331795,50.6794782 36.5663061,53.1714909 54.4325594,49.5770231 Z" id="path-17"></path><path d="M54.4325594,49.5770231 C54.2704856,34.7259561 51.6081052,25.3985396 46.4454181,21.5947737 C38.7013875,15.8891248 33.4021213,22.9624914 27.4650312,15.8891248 C21.527941,8.81575812 16.4700205,0.107374251 8.4938055,0.107374251 C0.517590517,0.107374251 -2.16442225,7.27332194 2.30034604,11.5812233 C6.76511433,15.8891248 12.2938332,16.5443189 10.836535,28.4729471 C9.37923684,40.4015753 27.6331795,29.2332453 27.6331795,42.1009851 C27.6331795,50.6794782 36.5663061,53.1714909 54.4325594,49.5770231 Z" id="path-19"></path><linearGradient x1="54.3019973%" y1="-28.1753217%" x2="46.16626%" y2="92.9334256%" id="linearGradient-21"><stop stop-color="#7ECC79" offset="0%"></stop><stop stop-color="#33BAAA" offset="100%"></stop></linearGradient><linearGradient x1="50.5036586%" y1="-28.1753217%" x2="49.5511629%" y2="92.9334256%" id="linearGradient-22"><stop stop-color="#7ECC79" offset="0%"></stop><stop stop-color="#33BAAA" offset="100%"></stop></linearGradient><linearGradient x1="52.5939568%" y1="-28.1753217%" x2="47.6883863%" y2="92.9334256%" id="linearGradient-23"><stop stop-color="#7ECC79" offset="0%"></stop><stop stop-color="#33BAAA" offset="100%"></stop></linearGradient><path d="M2.81513273,0 L285.266783,0 C286.821538,-2.85436032e-16 288.081916,1.25963733 288.081916,2.81347871 L288.081916,159.430461 L-8.8817842e-16,159.430461 L-5.47317068e-17,2.81347871 C-1.07858098e-15,1.25963733 1.26037785,2.85436032e-16 2.81513273,0 Z" id="path-24"></path><path d="M2.81513273,0 L285.266783,0 C286.821538,-2.85436032e-16 288.081916,1.25963733 288.081916,2.81347871 L288.081916,159.430461 L-8.8817842e-16,159.430461 L-5.47317068e-17,2.81347871 C-1.07858098e-15,1.25963733 1.26037785,2.85436032e-16 2.81513273,0 Z" id="path-26"></path><linearGradient x1="51.5935331%" y1="-28.1753217%" x2="48.5799174%" y2="92.9334256%" id="linearGradient-28"><stop stop-color="#7ECC79" offset="0%"></stop><stop stop-color="#33BAAA" offset="100%"></stop></linearGradient><linearGradient x1="55.9500493%" y1="-28.1753217%" x2="44.6975926%" y2="92.9334256%" id="linearGradient-29"><stop stop-color="#7ECC79" offset="0%"></stop><stop stop-color="#33BAAA" offset="100%"></stop></linearGradient><polygon id="path-30" points="0 43.6639052 0 0 33.0526395 0 38.8401909 21.0715512 49.6891345 23.8610146 49.6891345 43.6639052"></polygon><polygon id="path-32" points="0 43.6639052 0 0 33.0526395 0 38.8401909 21.0715512 49.6891345 23.8610146 49.6891345 43.6639052"></polygon><polygon id="path-34" points="0 43.6639052 0 0 33.0526395 0 38.8401909 21.0715512 49.6891345 23.8610146 49.6891345 43.6639052"></polygon></defs><g id="Pages" stroke="none" stroke-width="1" fill="none" fill-rule="evenodd"><g id="Company" transform="translate(-865.000000, -3302.000000)"><g id="Brands/Startups" transform="translate(239.000000, 3040.000000)"><g id="development-illustration@3x" transform="translate(626.000000, 262.000000)"><g id="Group-28"><g id="Group-35" transform="translate(496.560086, 191.995244) scale(-1, 1) translate(-496.560086, -191.995244) translate(461.060086, 165.995244)"><g id="Mask" transform="translate(0.000000, 22.499359)"><g id="path-2-link" fill="#33BAAA" fill-rule="nonzero"><path d="M49.1017033,11.8057784 C29.6245491,1.60585246 13.3917855,-1.79412285 0.403412563,1.60585246 C3.46360928,8.86954941 6.63939494,12.5013979 9.93076957,12.5013979 C14.8678315,12.5013979 20.9044437,9.74385256 22.8285008,14.8163896 C24.752558,19.8889267 28.8333053,27.8436722 36.9873159,27.8436722 C42.4233229,27.8436722 47.9470611,25.3632943 53.5585306,20.4025383 L49.1017033,11.8057784 Z" id="path-2"></path></g><g id="Clipped"><mask id="mask-2" fill="white"><use xlink:href="#path-1"></use></mask><g id="path-2"></g><path d="M66.5226523,27.0776635 C66.3605785,12.2265964 63.6981981,2.89918 58.535511,-0.904585934 C50.7914803,-6.61023483 45.4922142,0.463131817 39.5551241,-6.61023483 C33.6180339,-13.6836015 28.5601134,-22.3919854 20.5838983,-22.3919854 C12.6076834,-22.3919854 9.92567061,-15.2260377 14.3904389,-10.9181362 C18.8552073,-6.61023483 24.3839261,-5.9550407 22.9266279,5.97358747 C21.4693297,17.9022156 39.7232723,6.73388566 39.7232723,19.6016254 C39.7232723,28.1801186 48.656399,30.6721313 66.5226523,27.0776635 Z" id="Shape" fill="#25877C" fill-rule="nonzero" mask="url(#mask-2)"></path></g><g id="Path-73-Clipped"><mask id="mask-4" fill="white"><use xlink:href="#path-3"></use></mask><g id="path-2"></g><path d="M50.018554,28.2817117 C38.5172464,7.17734315 22.4481442,-1.36968419 1.81124752,2.64062963" id="Path-73" stroke="#0D6574" stroke-width="1.5" mask="url(#mask-4)"></path></g><g id="Path-74-Clipped"><mask id="mask-6" fill="white"><use xlink:href="#path-5"></use></mask><g id="path-2"></g><path d="M18.851868,2.42814475 C16.055167,3.35199121 13.4979323,6.29064444 11.1801638,11.2441044" id="Path-74" stroke="#0D6574" stroke-width="1.5" mask="url(#mask-6)"></path></g><g id="Path-75-Clipped"><mask id="mask-8" fill="white"><use xlink:href="#path-7"></use></mask><g id="path-2"></g><path d="M39.562646,13.7496086 C34.9906234,13.9828882 31.2528025,16.2024062 28.3491834,20.4081628" id="Path-75" stroke="#0D6574" stroke-width="1.5" mask="url(#mask-8)"></path></g><g id="Path-76-Clipped"><mask id="mask-10" fill="white"><use xlink:href="#path-9"></use></mask><g id="path-2"></g><path d="M41.0687477,15.4742894 C37.854524,15.9147855 35.3500603,17.3761586 33.5553568,19.8584086" id="Path-76" stroke="#0D6574" stroke-width="1.5" mask="url(#mask-10)"></path></g></g><g id="Path-64" transform="translate(15.842190, 0.000000)"><g id="Mask" fill="#33BAAA" fill-rule="nonzero"><path d="M54.4325594,49.5770231 C54.2704856,34.7259561 51.6081052,25.3985396 46.4454181,21.5947737 C38.7013875,15.8891248 33.4021213,22.9624914 27.4650312,15.8891248 C21.527941,8.81575812 16.4700205,0.107374251 8.4938055,0.107374251 C0.517590517,0.107374251 -2.16442225,7.27332194 2.30034604,11.5812233 C6.76511433,15.8891248 12.2938332,16.5443189 10.836535,28.4729471 C9.37923684,40.4015753 27.6331795,29.2332453 27.6331795,42.1009851 C27.6331795,50.6794782 36.5663061,53.1714909 54.4325594,49.5770231 Z" id="path-4"></path></g><g id="Clipped"><mask id="mask-12" fill="white"><use xlink:href="#path-11"></use></mask><g id="path-4"></g><path d="M40.3012935,51.2642842 C40.6051101,32.5457845 38.5803724,20.3657854 34.2270806,14.724287 L49.9504954,7.87519239 L47.7708234,54.9859675 L40.3012935,51.2642842 Z" id="Shape" fill="#25877C" fill-rule="nonzero" mask="url(#mask-12)"></path></g><g id="Path-67-Clipped"><mask id="mask-14" fill="white"><use xlink:href="#path-13"></use></mask><g id="path-4"></g><path d="M46.154483,47.1922519 C29.2863857,20.9182537 16.9040984,5.57354404 9.00762129,1.15812293" id="Path-67" stroke="#0D6574" stroke-width="1.5" mask="url(#mask-14)"></path></g><g id="Path-68-Clipped"><mask id="mask-16" fill="white"><use xlink:href="#path-15"></use></mask><g id="path-4"></g><path d="M30.7697432,24.5698292 C25.174129,21.3913616 19.467198,22.4543477 13.6489503,27.7587875" id="Path-68" stroke="#0D6574" stroke-width="1.5" mask="url(#mask-16)"></path></g><g id="Path-69-Clipped"><mask id="mask-18" fill="white"><use xlink:href="#path-17"></use></mask><g id="path-4"></g><path d="M35.6068909,31.4608189 C36.4427422,24.4641893 38.4374096,19.8889819 41.5908929,17.7351969" id="Path-69" stroke="#0D6574" stroke-width="1.5" mask="url(#mask-18)"></path></g><g id="Path-70-Clipped"><mask id="mask-20" fill="white"><use xlink:href="#path-19"></use></mask><g id="path-4"></g><path d="M20.4473214,11.7781322 C16.073749,9.54286045 11.7128707,9.82757578 7.36468628,12.6322781" id="Path-70" stroke="#0D6574" stroke-width="1.5" mask="url(#mask-20)"></path></g></g></g><path d="M250.004643,34.0359863 L245.331786,29.3658756 L240.65893,34.0359863 L250.004643,34.0359863 Z M254.3437,34.0359863 L254.3437,33.3466844 L253.653993,34.0359863 L254.3437,34.0359863 Z M254.3437,32.8617562 L254.3437,20.359257 L248.088775,26.6105066 L254.3437,32.8617562 Z M239.523378,18.0501424 L245.331786,23.8551376 L251.140194,18.0501424 L239.523378,18.0501424 Z M237.773073,21.8116033 L237.773073,31.4094099 L242.574797,26.6105066 L237.773073,21.8116033 Z M233.874102,32.8617562 L233.874102,20.359257 L227.619177,26.6105066 L233.874102,32.8617562 Z M291.490914,34.0359863 L286.464659,29.0126844 L281.438404,34.0359863 L291.490914,34.0359863 Z M295.651281,34.0359863 L295.651281,32.8188871 L295.651281,34.0359863 Z M295.651281,32.6831712 L295.651281,19.8314597 L289.221648,26.2573155 L295.651281,32.6831712 Z M278.712268,21.264849 L278.712268,31.2497819 L283.70767,26.2573155 L278.712268,21.264849 Z M278.924605,18.0501424 L278.712268,18.0501424 L278.712268,18.2623545 L278.924605,18.0501424 Z M286.464659,23.5019464 L291.919668,18.0501424 L281.00965,18.0501424 L286.464659,23.5019464 Z M294.004712,18.0501424 L295.651281,18.0501424 L294.004712,18.0501424 Z M299.404792,37.0809089 L154.919939,37.0809089 L154.919939,17.9149231 L154.8323,17.8273361 L154.919939,17.739749 L154.919939,14.0673936 L295.651281,14.0673936 L299.404792,14.0673936 L299.404792,37.0809089 Z M270.47424,34.0359863 L265.801385,29.3658756 L261.128528,34.0359863 L270.47424,34.0359863 Z M274.813297,32.8617562 L274.813297,20.359257 L268.558373,26.6105066 L274.813297,32.8617562 Z M259.992977,18.0501424 L265.801385,23.8551376 L271.609792,18.0501424 L259.992977,18.0501424 Z M258.242671,21.8116033 L258.242671,31.4094099 L263.044396,26.6105066 L258.242671,21.8116033 Z M230.670596,18.0501424 L219.05378,18.0501424 L224.862188,23.8551376 L230.670596,18.0501424 Z M211.175741,18.0501424 L199.558925,18.0501424 L205.367333,23.8551376 L211.175741,18.0501424 Z M191.680886,18.0501424 L180.06407,18.0501424 L185.872478,23.8551376 L191.680886,18.0501424 Z M172.186031,18.0501424 L160.569215,18.0501424 L166.377623,23.8551376 L172.186031,18.0501424 Z M171.05048,34.0359863 L166.377623,29.3658756 L161.704767,34.0359863 L171.05048,34.0359863 Z M174.414794,31.8875862 L174.414794,21.3334271 L169.134612,26.6105066 L174.414794,31.8875862 Z M158.81891,21.8116033 L158.81891,31.4094099 L163.620634,26.6105066 L158.81891,21.8116033 Z M190.545334,34.0359863 L185.872478,29.3658756 L181.199622,34.0359863 L190.545334,34.0359863 Z M193.909649,31.8875862 L193.909649,21.3334271 L188.629467,26.6105066 L193.909649,31.8875862 Z M178.313765,21.8116033 L178.313765,31.4094099 L183.115489,26.6105066 L178.313765,21.8116033 Z M197.80862,21.8116033 L197.80862,31.4094099 L202.610344,26.6105066 L197.80862,21.8116033 Z M213.404504,31.8875862 L213.404504,21.3334271 L208.124322,26.6105066 L213.404504,31.8875862 Z M210.040189,34.0359863 L205.367333,29.3658756 L200.694478,34.0359863 L210.040189,34.0359863 Z M224.862188,29.3658756 L220.189333,34.0359863 L229.535044,34.0359863 L224.862188,29.3658756 Z M217.303475,21.8116033 L217.303475,31.4094099 L222.105199,26.6105066 L217.303475,21.8116033 Z" id="Combined-Shape-Copy" fill="#D6F1EE" fill-rule="nonzero" opacity="0.699999988"></path><polygon id="Rectangle-45" fill="#25877C" fill-rule="nonzero" points="216.76522 13.1295673 252.423568 13.1295673 252.423568 46.8913119 216.76522 46.8913119"></polygon><path d="M237.882833,59.4522195 C220.464721,41.7332676 203.798342,37.3035297 187.883692,46.1630055 C164.011719,59.4522195 170.169765,101.278178 158.073148,101.278178 C145.97653,101.278178 104.530585,114.461538 106.15916,148.299855 C107.787734,182.138172 81.3247152,168.881973 75.5159207,204.833263 C72.9116265,218.446436 48.0839518,230.067733 1.03289651,239.697151 L1.03290322,239.697184 C0.52520578,239.801089 0.197916704,240.296648 0.301882607,240.804048 C0.391291559,241.240403 0.775478224,241.553704 1.22115014,241.553704 L275.284804,241.553704 L237.882833,59.4522195 Z" id="Path-160" fill="#D6F1EE" fill-rule="nonzero"></path><polygon id="Path-161" fill="url(#linearGradient-21)" fill-rule="nonzero" points="235.532772 13.3228977 249.911167 0 298.33857 0 298.33857 36.3209877 287.724931 46.9283909 235.532772 46.9283909"></polygon><polygon id="Rectangle-47" fill="url(#linearGradient-22)" fill-rule="nonzero" points="154.8323 36.5752233 195.182536 36.5752233 195.182536 46.8913119 154.8323 46.8913119"></polygon><polygon id="Rectangle-46" fill="#0D6574" fill-rule="nonzero" points="216.76522 35.6373971 298.529831 36.2886626 287.642338 46.8913119 216.76522 46.8913119"></polygon><path d="M393.576412,34.0359863 L388.903555,29.3658756 L384.2307,34.0359863 L393.576412,34.0359863 Z M397.915469,34.0359863 L397.915469,33.3466844 L397.225762,34.0359863 L397.915469,34.0359863 Z M397.915469,32.8617562 L397.915469,20.359257 L391.660544,26.6105066 L397.915469,32.8617562 Z M383.095147,18.0501424 L388.903555,23.8551376 L394.711963,18.0501424 L383.095147,18.0501424 Z M381.344842,21.8116033 L381.344842,31.4094099 L386.146566,26.6105066 L381.344842,21.8116033 Z M377.445871,32.8617562 L377.445871,20.359257 L371.190947,26.6105066 L377.445871,32.8617562 Z M435.062683,34.0359863 L430.036428,29.0126844 L425.010174,34.0359863 L435.062683,34.0359863 Z M439.223051,34.0359863 L439.223051,32.8188871 L439.223051,34.0359863 Z M439.223051,32.6831712 L439.223051,19.8314597 L432.793417,26.2573155 L439.223051,32.6831712 Z M422.284038,21.264849 L422.284038,31.2497819 L427.279439,26.2573155 L422.284038,21.264849 Z M422.496375,18.0501424 L422.284038,18.0501424 L422.284038,18.2623545 L422.496375,18.0501424 Z M430.036428,23.5019464 L435.491437,18.0501424 L424.58142,18.0501424 L430.036428,23.5019464 Z M437.576481,18.0501424 L439.223051,18.0501424 L437.576481,18.0501424 Z M442.976561,37.0809089 L298.491708,37.0809089 L298.491708,17.9149231 L298.404069,17.8273361 L298.491708,17.739749 L298.491708,14.0673936 L439.223051,14.0673936 L442.976561,14.0673936 L442.976561,37.0809089 Z M414.04601,34.0359863 L409.373154,29.3658756 L404.700297,34.0359863 L414.04601,34.0359863 Z M418.385067,32.8617562 L418.385067,20.359257 L412.130142,26.6105066 L418.385067,32.8617562 Z M403.564746,18.0501424 L409.373154,23.8551376 L415.181561,18.0501424 L403.564746,18.0501424 Z M401.81444,21.8116033 L401.81444,31.4094099 L406.616165,26.6105066 L401.81444,21.8116033 Z M374.242366,18.0501424 L362.62555,18.0501424 L368.433958,23.8551376 L374.242366,18.0501424 Z M354.74751,18.0501424 L343.130694,18.0501424 L348.939102,23.8551376 L354.74751,18.0501424 Z M335.252655,18.0501424 L323.635839,18.0501424 L329.444247,23.8551376 L335.252655,18.0501424 Z M315.7578,18.0501424 L304.140984,18.0501424 L309.949392,23.8551376 L315.7578,18.0501424 Z M314.622249,34.0359863 L309.949392,29.3658756 L305.276536,34.0359863 L314.622249,34.0359863 Z M317.986563,31.8875862 L317.986563,21.3334271 L312.706381,26.6105066 L317.986563,31.8875862 Z M302.390679,21.8116033 L302.390679,31.4094099 L307.192403,26.6105066 L302.390679,21.8116033 Z M334.117103,34.0359863 L329.444247,29.3658756 L324.771392,34.0359863 L334.117103,34.0359863 Z M337.481418,31.8875862 L337.481418,21.3334271 L332.201236,26.6105066 L337.481418,31.8875862 Z M321.885534,21.8116033 L321.885534,31.4094099 L326.687258,26.6105066 L321.885534,21.8116033 Z M341.380389,21.8116033 L341.380389,31.4094099 L346.182113,26.6105066 L341.380389,21.8116033 Z M356.976274,31.8875862 L356.976274,21.3334271 L351.696091,26.6105066 L356.976274,31.8875862 Z M353.611958,34.0359863 L348.939102,29.3658756 L344.266247,34.0359863 L353.611958,34.0359863 Z M368.433958,29.3658756 L363.761102,34.0359863 L373.106813,34.0359863 L368.433958,29.3658756 Z M360.875245,21.8116033 L360.875245,31.4094099 L365.676969,26.6105066 L360.875245,21.8116033 Z" id="Combined-Shape" fill="#D6F1EE" fill-rule="nonzero" opacity="0.699999988"></path><path d="M269.932389,127.596921 L265.259534,122.926811 L260.586677,127.596921 L269.932389,127.596921 Z M274.271447,127.596921 L274.271447,126.90762 L273.58174,127.596921 L274.271447,127.596921 Z M274.271447,126.422692 L274.271447,113.920192 L268.016523,120.171442 L274.271447,126.422692 Z M259.451126,111.611078 L265.259534,117.416073 L271.067942,111.611078 L259.451126,111.611078 Z M257.700821,115.372538 L257.700821,124.970345 L262.502545,120.171442 L257.700821,115.372538 Z M253.80185,126.422692 L253.80185,113.920192 L247.546925,120.171442 L253.80185,126.422692 Z M311.418662,127.596921 L306.392406,122.573619 L301.366151,127.596921 L311.418662,127.596921 Z M315.579029,127.596921 L315.579029,126.379823 L315.579029,127.596921 Z M315.579029,126.244106 L315.579029,113.392395 L309.149395,119.81825 L315.579029,126.244106 Z M298.640016,114.825784 L298.640016,124.810717 L303.635417,119.81825 L298.640016,114.825784 Z M298.852353,111.611078 L298.640016,111.611078 L298.640016,111.82329 L298.852353,111.611078 Z M306.392406,117.062882 L311.847416,111.611078 L300.937397,111.611078 L306.392406,117.062882 Z M313.93246,111.611078 L315.579029,111.611078 L313.93246,111.611078 Z M319.332539,130.641844 L174.847685,130.641844 L174.847685,111.475858 L174.760048,111.388271 L174.847685,111.300684 L174.847685,107.628328 L315.579029,107.628328 L319.332539,107.628328 L319.332539,130.641844 Z M290.401988,127.596921 L285.729131,122.926811 L281.056276,127.596921 L290.401988,127.596921 Z M294.741045,126.422692 L294.741045,113.920192 L288.48612,120.171442 L294.741045,126.422692 Z M279.920723,111.611078 L285.729131,117.416073 L291.537539,111.611078 L279.920723,111.611078 Z M278.170418,115.372538 L278.170418,124.970345 L282.972142,120.171442 L278.170418,115.372538 Z M250.598344,111.611078 L238.981528,111.611078 L244.789936,117.416073 L250.598344,111.611078 Z M231.103489,111.611078 L219.486673,111.611078 L225.295081,117.416073 L231.103489,111.611078 Z M211.608634,111.611078 L199.991818,111.611078 L205.800226,117.416073 L211.608634,111.611078 Z M192.113778,111.611078 L180.496962,111.611078 L186.30537,117.416073 L192.113778,111.611078 Z M190.978226,127.596921 L186.30537,122.926811 L181.632514,127.596921 L190.978226,127.596921 Z M194.342541,125.448521 L194.342541,114.894362 L189.062359,120.171442 L194.342541,125.448521 Z M178.746657,115.372538 L178.746657,124.970345 L183.548382,120.171442 L178.746657,115.372538 Z M210.473081,127.596921 L205.800226,122.926811 L201.127369,127.596921 L210.473081,127.596921 Z M213.837396,125.448521 L213.837396,114.894362 L208.557215,120.171442 L213.837396,125.448521 Z M198.241512,115.372538 L198.241512,124.970345 L203.043237,120.171442 L198.241512,115.372538 Z M217.736367,115.372538 L217.736367,124.970345 L222.538092,120.171442 L217.736367,115.372538 Z M233.332251,125.448521 L233.332251,114.894362 L228.05207,120.171442 L233.332251,125.448521 Z M229.967936,127.596921 L225.295081,122.926811 L220.622224,127.596921 L229.967936,127.596921 Z M244.789936,122.926811 L240.117079,127.596921 L249.462792,127.596921 L244.789936,122.926811 Z M237.231222,115.372538 L237.231222,124.970345 L242.032947,120.171442 L237.231222,115.372538 Z" id="Combined-Shape-Copy-2" fill="#D6F1EE" fill-rule="nonzero" opacity="0.699999988" transform="translate(247.046293, 119.135086) rotate(90.000000) translate(-247.046293, -119.135086) "></path><path d="M175.476607,62.834358 L452.297992,62.834358 C461.10827,62.834358 468.250411,69.9723029 468.250411,78.777404 L468.250411,241.959169 L159.524188,241.959169 L159.524188,78.777404 C159.524188,69.9723029 166.666329,62.834358 175.476607,62.834358 Z" id="Rectangle-28" fill="url(#linearGradient-23)" fill-rule="nonzero"></path><ellipse id="Oval-6" fill="#0D6574" fill-rule="nonzero" cx="313.887299" cy="72.6815335" rx="2.34594394" ry="2.3445656"></ellipse><g id="Rectangle-41-Copy" transform="translate(169.846341, 82.528709)"><g id="Mask" fill="#0D6574" fill-rule="nonzero"><path d="M2.81513273,0 L285.266783,0 C286.821538,-2.85436032e-16 288.081916,1.25963733 288.081916,2.81347871 L288.081916,159.430461 L-8.8817842e-16,159.430461 L-5.47317068e-17,2.81347871 C-1.07858098e-15,1.25963733 1.26037785,2.85436032e-16 2.81513273,0 Z" id="path-7"></path></g><g id="Rectangle-42-Clipped"><mask id="mask-25" fill="white"><use xlink:href="#path-24"></use></mask><g id="path-7"></g><polygon id="Rectangle-42" fill="#094D59" fill-rule="nonzero" mask="url(#mask-25)" points="90.0842473 26.2591347 288.081916 26.2591347 288.081916 159.430461 90.0842473 159.430461"></polygon></g><g id="Clipped"><mask id="mask-27" fill="white"><use xlink:href="#path-26"></use></mask><g id="path-7"></g><polygon id="Rectangle-path" fill-opacity="0.439141757" fill="#042F36" fill-rule="nonzero" mask="url(#mask-27)" points="-88.2074922 45.0156594 37.5351031 45.0156594 37.5351031 130.357847 -88.2074922 130.357847"></polygon></g></g><polygon id="Rectangle-44" fill="#D6F1EE" fill-rule="nonzero" points="433.53044 207.259599 493.586605 207.259599 493.586605 241.959169 433.53044 241.959169"></polygon><polygon id="Rectangle-43" fill-opacity="0.439141757" fill="#042F36" fill-rule="nonzero" points="174.538229 223.202645 239.286282 223.202645 239.286282 228.829602 174.538229 228.829602"></polygon><g id="Group-26" transform="translate(22.521062, 126.606542)"><g id="Group-22" transform="translate(171.723096, 47.829138)"><g id="Path-159" transform="translate(0.000000, 9.378262)"><g id="Mask" transform="translate(0.938378, 0.000000)" fill="url(#linearGradient-29)" fill-rule="nonzero"><polygon id="path-9" points="0 43.6639052 0 0 33.0526395 0 38.8401909 21.0715512 49.6891345 23.8610146 49.6891345 43.6639052"></polygon></g><g id="Path-158-Clipped" transform="translate(0.938378, 0.000000)"><mask id="mask-31" fill="white"><use xlink:href="#path-30"></use></mask><g id="path-9"></g><polygon id="Path-158" fill="#0B4651" fill-rule="nonzero" mask="url(#mask-31)" points="10.6668427 3.50810914 10.6668427 21.0099489 30.2560338 21.0099489 26.3595522 3.50810914"></polygon></g><g id="Oval-5-Clipped" transform="translate(0.938378, 0.000000)"><mask id="mask-33" fill="white"><use xlink:href="#path-32"></use></mask><g id="path-9"></g><ellipse id="Oval-5" fill="#25877C" fill-rule="nonzero" mask="url(#mask-33)" cx="29.5588937" cy="45.4845726" rx="14.5448524" ry="14.5363067"></ellipse></g><g id="Clipped" transform="translate(0.938378, 0.000000)"><mask id="mask-35" fill="white"><use xlink:href="#path-34"></use></mask><g id="path-9"></g><polygon id="Shape" fill="#0B4651" fill-rule="nonzero" mask="url(#mask-35)" points="30.4708477 3.41321891 34.9623855 21.1171383 39.7624423 21.1171383 34.7471788 3.03983507"></polygon></g><rect id="Rectangle-29" fill="#25877C" fill-rule="nonzero" x="0" y="42.2021807" width="52.5491443" height="2.81347871" rx="1"></rect></g><path d="M0.979910647,10.151591 L0.979915657,3.17713899 L0.979910647,3.17713899 C0.979910647,1.62329484 2.24029074,0.363655275 3.79504839,0.363655275 C3.96299006,0.363655275 4.13059487,0.378674641 4.29585767,0.408533689 C19.8522721,3.21920684 27.6304792,6.46689261 27.6304792,10.151591 L0.979910647,10.151591 Z" id="Path-157" fill="#33BAAA" fill-rule="nonzero"></path></g><g id="Group-24" transform="translate(190.490648, 90.969145)" fill-rule="nonzero"><ellipse id="Oval-5" fill="#0B4651" cx="12.1989085" cy="12.1917411" rx="12.1989085" ry="12.1917411"></ellipse><ellipse id="Oval-5-Copy" fill="#44BE9F" cx="12.1989085" cy="12.1917411" rx="5.63026546" ry="5.62695743"></ellipse></g><g id="Group-25"><path d="M21.4659921,85.6810676 C5.2816151,73.9051818 -1.1023573,62.7889006 2.3140749,52.3322243 C7.43872322,36.64721 18.0637488,37.0762937 34.2824658,33.4655867 C20.8727704,21.3335177 38.3785721,5.9538891 55.1273043,1.88986957 C66.2931258,-0.819476778 84.1952787,0.535196396 108.833763,5.9538891 L80.9004477,95.7243827 L21.4659921,85.6810676 Z" id="Path-18" fill="#D6F1EE" fill-rule="nonzero"></path><polygon id="Rectangle-41" fill="#FFFFFF" fill-rule="nonzero" points="22.5210618 8.44043614 148.263657 8.44043614 148.263657 84.4043614 22.5210618 84.4043614"></polygon><g id="Group-23" transform="translate(0.000000, 84.404361)"><path d="M0.466944505,30.4793527 L196.644887,30.4793527" id="Line" stroke="#0B4651"></path><path d="M291.363993,30.4793527 L487.541935,30.4793527" id="Line-Copy" stroke="#0B4651"></path><polygon id="Rectangle-40" fill="#0D6574" fill-rule="nonzero" points="6.56864304 5.62695743 164.216076 5.62695743 164.216076 12.1917411 6.56864304 12.1917411"></polygon><polygon id="Rectangle-40-Copy" fill="#62C58B" fill-rule="nonzero" points="6.56864304 0 164.216076 0 164.216076 6.56478367 6.56864304 6.56478367"></polygon><g id="Group-20" transform="translate(24.397817, 6.564784)" fill-rule="nonzero"><ellipse id="Oval-5-Copy-3" fill="#0B4651" cx="12.1989085" cy="12.1917411" rx="12.1989085" ry="12.1917411"></ellipse><ellipse id="Oval-5-Copy-2" fill="#44BE9F" cx="12.1989085" cy="12.1917411" rx="5.63026546" ry="5.62695743"></ellipse></g><g id="Group-20-Copy" transform="translate(53.487522, 6.564784)" fill-rule="nonzero"><ellipse id="Oval-5-Copy-3" fill="#0B4651" cx="12.1989085" cy="12.1917411" rx="12.1989085" ry="12.1917411"></ellipse><ellipse id="Oval-5-Copy-2" fill="#44BE9F" cx="12.1989085" cy="12.1917411" rx="5.63026546" ry="5.62695743"></ellipse></g><ellipse id="Oval-5-Copy-3" fill="#0B4651" fill-rule="nonzero" cx="152.017167" cy="18.7565248" rx="12.1989085" ry="12.1917411"></ellipse><ellipse id="Oval-5-Copy-2" fill="#44BE9F" fill-rule="nonzero" cx="152.017167" cy="18.7565248" rx="5.63026546" ry="5.62695743"></ellipse><g id="Group-20-Copy-3" transform="translate(111.666932, 6.564784)" fill-rule="nonzero"><ellipse id="Oval-5-Copy-3" fill="#0B4651" cx="12.1989085" cy="12.1917411" rx="12.1989085" ry="12.1917411"></ellipse><ellipse id="Oval-5-Copy-2" fill="#44BE9F" cx="12.1989085" cy="12.1917411" rx="5.63026546" ry="5.62695743"></ellipse></g></g><g id="Group-37" transform="translate(36.596725, 24.383482)" stroke="#33BAAA" stroke-width="4"><polyline id="Path-212" points="0 46.2351539 22.8633928 26.3461066 35.7538933 36.2906303 55.957076 18.4396218 65.2144014 23.5871331 95.5166015 0.937826238"></polyline><polyline id="Path-213" points="87.2691146 0.484501697 96.4223573 6.25277607e-13 94.487754 7.98179083"></polyline></g></g></g><polygon id="Rectangle-50" fill="#FFFFFF" fill-rule="nonzero" points="391.303449 36.5752233 394.118582 36.5752233 394.118582 170.684375 391.303449 170.684375"></polygon><polygon id="Rectangle-50-Copy" fill="#0D6574" fill-rule="nonzero" points="391.303449 36.5752233 394.118582 36.5752233 394.118582 61.8965317 391.303449 61.8965317"></polygon><polygon id="Path-162" fill="#0B4651" fill-rule="nonzero" points="298.22039 3.75130495 286.208637 3.75130495 298.22039 27.2940697"></polygon><polygon id="Path-162-Copy" fill="#0B4651" fill-rule="nonzero" transform="translate(277.651970, 15.522687) rotate(180.000000) translate(-277.651970, -15.522687) " points="294.463403 3.7513043 260.840537 3.7513043 272.852291 27.2940691 294.463403 27.0784899"></polygon><polygon id="Rectangle-48-Copy" fill-opacity="0.439141757" fill="#042F36" fill-rule="nonzero" points="350.014836 153.803503 446.667726 153.803503 446.667726 205.383946 350.014836 205.383946"></polygon><polygon id="Rectangle-48" fill="#FFFFFF" fill-rule="nonzero" points="344.384571 148.176546 441.037461 148.176546 441.037461 199.756989 344.384571 199.756989"></polygon><ellipse id="Oval-8" stroke="#E2E2E2" stroke-width="4" stroke-linecap="round" cx="360.336989" cy="175.373507" rx="7.50702061" ry="7.50260991"></ellipse><path d="M360.336989,167.870897 C356.190976,167.870897 352.829969,171.22993 352.829969,175.373507 C352.829969,179.517084 356.190976,182.876116 360.336989,182.876116 C364.483002,182.876116 367.84401,179.517084 367.84401,175.373507 C367.84401,174.389504 367.654465,173.449745 367.309875,172.588709" id="Oval-7" stroke="#71C981" stroke-width="4" stroke-linecap="round"></path><ellipse id="Oval-8-Copy" stroke="#E2E2E2" stroke-width="4" stroke-linecap="round" cx="417.578022" cy="175.373507" rx="7.50702061" ry="7.50260991"></ellipse><path d="M410.466699,172.963472 C410.210132,173.719884 410.071001,174.530457 410.071001,175.373507 C410.071001,179.517084 413.432009,182.876116 417.578022,182.876116 C421.724035,182.876116 425.085042,179.517084 425.085042,175.373507 C425.085042,174.389504 424.895497,173.449745 424.550907,172.588709" id="Oval-7-Copy-5" stroke="#0D6574" stroke-width="4" stroke-linecap="round"></path><ellipse id="Oval-8" stroke="#E2E2E2" stroke-width="4" stroke-linecap="round" cx="389.426694" cy="175.373507" rx="7.50702061" ry="7.50260991"></ellipse><path d="M389.426694,167.870897 C385.280681,167.870897 381.919674,171.22993 381.919674,175.373507 C381.919674,179.517084 385.280681,182.876116 389.426694,182.876116 C390.998771,182.876116 392.457984,182.393168 393.663896,181.567624" id="Oval-7-Copy-4" stroke="#33BAAA" stroke-width="4" stroke-linecap="round"></path><polygon id="Rectangle-51" fill="#FFFFFF" fill-rule="nonzero" transform="translate(417.602609, 138.559926) rotate(-64.000000) translate(-417.602609, -138.559926) " points="416.195043 114.176444 419.010175 114.176444 419.010175 162.943408 416.195043 162.943408"></polygon><polygon id="Rectangle-51-Copy" fill="#FFFFFF" fill-rule="nonzero" transform="translate(366.930220, 138.559926) scale(-1, 1) rotate(-64.000000) translate(-366.930220, -138.559926) " points="365.522653 114.176444 368.337786 114.176444 368.337786 162.943408 365.522653 162.943408"></polygon><g id="Group-27" transform="translate(385.673184, 112.539149)" fill-rule="nonzero"><ellipse id="Oval-7-Copy" fill="#33BAAA" cx="7.03783182" cy="10.7850017" rx="7.03783182" ry="7.03369679"></ellipse><rect id="Rectangle-49" fill="#FFFFFF" x="0" y="0" width="14.0756636" height="10.3160886"></rect></g><ellipse id="Oval-7-Copy-2" fill="#33BAAA" fill-rule="nonzero" cx="392.711016" cy="63.3032711" rx="6.09945425" ry="6.09587055"></ellipse><polyline id="Path-163" stroke="#3FBDA1" points="468.551059 147.974114 485.202791 147.974114 485.202791 130.370909 521.41852 153.860696 521.41852 188.74766"></polyline></g></g></g></g></g></svg> 