<?xml version="1.0" encoding="UTF-8"?> <svg xmlns="http://www.w3.org/2000/svg" xmlns:xlink="http://www.w3.org/1999/xlink" width="748px" height="461px" viewBox="0 0 748 461"><!-- Generator: Sketch 52.5 (67469) - http://www.bohemiancoding.com/sketch --><title>grow-illustration</title><desc>Created with Sketch.</desc><defs><linearGradient x1="56.102466%" y1="-5.05869454%" x2="56.1024666%" y2="129.865067%" id="linearGradient-1"><stop stop-color="#7ECC79" offset="0%"></stop><stop stop-color="#34B29F" offset="100%"></stop></linearGradient><path d="M76.980916,77.942268 C74.926305,43.0742929 64.1676724,20.4009523 44.7050184,9.92224618 C25.2423643,-0.556459919 10.3406915,-2.73538594 0,3.3854681 C1.03216769,19.9638091 7.87746809,27.865076 20.5359012,27.0892686 C39.5235509,25.9255575 37.6403925,28.340697 32.3907517,38.971134 C27.141111,49.601571 53.5449505,43.3915559 56.929316,52.9423322 C59.1855597,59.3095165 65.8694264,67.6428284 76.980916,77.942268 Z" id="path-2"></path><linearGradient x1="-11.0105862%" y1="-43.2625176%" x2="90.3605459%" y2="145.071681%" id="linearGradient-4"><stop stop-color="#80D57B" offset="0%"></stop><stop stop-color="#56C3A4" offset="100%"></stop></linearGradient><linearGradient x1="-316.613305%" y1="-251.18058%" x2="100%" y2="71.3377815%" id="linearGradient-5"><stop stop-color="#A0EC9B" offset="0%"></stop><stop stop-color="#85DD9E" offset="36.4023481%"></stop><stop stop-color="#56C3A4" offset="100%"></stop></linearGradient><linearGradient x1="-11.0105862%" y1="-43.2625176%" x2="90.3605459%" y2="145.071681%" id="linearGradient-6"><stop stop-color="#C8FFC4" offset="0%"></stop><stop stop-color="#75E6C6" offset="100%"></stop></linearGradient><linearGradient x1="-11.0105862%" y1="-43.2625176%" x2="90.3605459%" y2="145.071681%" id="linearGradient-7"><stop stop-color="#90E18B" offset="0%"></stop><stop stop-color="#56C3A4" offset="100%"></stop></linearGradient></defs><g id="Pages" stroke="none" stroke-width="1" fill="none" fill-rule="evenodd"><g id="Services" transform="translate(-794.000000, -5063.000000)"><g id="Support" transform="translate(0.000000, 4797.000000)"><g id="grow-illustration" transform="translate(795.000000, 266.000000)"><path d="M251.644688,358.949834 C265.063263,350.056334 263.834351,344.58883 272.157531,343.18709 C280.48071,341.78535 282.721281,348.599395 295.448229,345.862853 C308.175177,343.126311 307.962121,309.640219 344.750174,310.190692 C381.538226,310.741165 380.139916,353.199107 391.360149,353.199107 C402.580382,353.199107 402.049081,343.18709 418.870737,343.18709 C435.692393,343.18709 443.171446,372.602062 478.911255,372.602062 L205.282443,372.602062 C227.24489,369.429577 242.698972,364.878835 251.644688,358.949834 Z" id="Path-72-Copy-5" fill="#33BAAA" opacity="0.200000003"></path><path d="M131.627226,372.994247 L722.259114,372.994247" id="Path-55" stroke="#3FBDA1" stroke-width="1.425" stroke-linecap="round" stroke-linejoin="round"></path><path d="M0,372.602062 L71.0724116,372.602062" id="Path-55-Copy" stroke="#3FBDA1" stroke-width="1.425" stroke-linecap="round" stroke-linejoin="round"></path><g id="Group-75" transform="translate(426.721374, 0.000000)"><path d="M25.08,0 L191.607023,3.55271368e-15 C205.458324,1.00827087e-15 216.687023,11.2286985 216.687023,25.08 L216.687023,347.522062 C216.687023,361.373363 205.458324,372.602062 191.607023,372.602062 L25.08,372.602062 C11.2286985,372.602062 1.69629521e-15,361.373363 0,347.522062 L0,25.08 C-1.69629521e-15,11.2286985 11.2286985,-8.11369822e-15 25.08,-1.0658141e-14 Z" id="Rectangle-4-Copy-3" fill="url(#linearGradient-1)"></path><rect id="Rectangle-42" fill="#0D6574" opacity="0.5" x="89.5193492" y="7.46742036" width="37.6483244" height="5.02384803" rx="2.51192401"></rect><ellipse id="Oval-34" fill="#0D6574" opacity="0.300000012" cx="106.251938" cy="360.608479" rx="9.0556599" ry="9.06300475"></ellipse><path d="M25.6930355,17.5834681 L190.993987,17.5834681 C201.487398,17.5834681 209.993987,26.0900578 209.993987,36.5834681 L209.993987,327.938144 C209.993987,338.431555 201.487398,346.938144 190.993987,346.938144 L25.6930355,346.938144 C15.1996252,346.938144 6.69303546,338.431555 6.69303546,327.938144 L6.69303546,36.5834681 C6.69303546,26.0900578 15.1996252,17.5834681 25.6930355,17.5834681 Z" id="Rectangle-4-Copy-4" fill="#0D6574"></path><path d="M0,266.804512 L0,158.736082 L37.0648855,158.736082 C42.8385799,158.736082 47.519084,163.417245 47.519084,169.191753 L47.519084,232.876289 C47.519084,238.650796 42.8385799,243.331959 37.0648855,243.331959 L13.4361426,243.331959 L0,266.804512 Z" id="Combined-Shape" fill="#05424C" opacity="0.400000006"></path><path d="M216.687023,217.107637 L216.687023,322.285764 C207.057126,300.129068 188.14356,293.389265 186.920539,284.725354 C185.501661,274.673977 196.608588,281.516923 195.594732,273.025639 C194.580877,264.534356 165.085807,268.933632 182.206347,245.836904 C199.326888,222.740176 201.6502,209.149205 195.594732,202.459794 C206.20465,205.946487 212.404597,211.401112 216.687023,217.107637 Z" id="Combined-Shape" fill="#05424C" opacity="0.400000006"></path></g><g id="Group-36" transform="translate(663.500000, 279.801031) scale(-1, 1) translate(-663.500000, -279.801031) translate(580.000000, 186.301031)"><g id="Path-44" transform="translate(0.000000, 74.140206)"><mask id="mask-3" fill="white"><use xlink:href="#path-2"></use></mask><use id="Mask" fill="#33BAAA" xlink:href="#path-2"></use><path d="M79.87475,26.1465988 C49.8798169,-1.53306629 32.0988348,-10.2314363 26.5318038,0.0514888974 C46.4724788,17.2291439 59.7675708,42.5650201 66.4170797,76.0591176 C84.5481536,84.1892003 95.0600031,85.9480955 97.9526283,81.3358031 C100.845254,76.7235107 96.3890339,67.6713701 84.5839695,54.1793814 L79.87475,26.1465988 Z" fill="#25877C" mask="url(#mask-3)"></path><path d="M74.129771,73.1896907 C64.8467693,23.1241867 40.7704334,-0.214481727 1.90076336,3.17368545" id="Path-38" stroke="#0D6574" stroke-width="1.2825" mask="url(#mask-3)"></path><path d="M38.9656489,9.85621375 C30.8138384,8.76105477 23.5275789,10.2282275 17.1068702,14.257732" id="Path-45" stroke="#0D6574" stroke-width="1.2825" mask="url(#mask-3)"></path><path d="M56.0725191,25.8929734 C50.6507303,25.1181281 44.3148524,26.3091301 37.0648855,29.4659794" id="Path-46" stroke="#0D6574" stroke-width="1.2825" mask="url(#mask-3)"></path><path d="M62.7270838,36.1195876 C62.6768457,31.664054 63.6265964,29.1293461 65.5763359,28.5154639" id="Path-47" stroke="#0D6574" stroke-width="1.2825" mask="url(#mask-3)"></path></g><g id="Group-10" transform="translate(95.490816, 83.199587) rotate(14.000000) translate(-95.490816, -83.199587) translate(40.490816, 11.199587)"><path d="M53.5375429,143.342091 C40.7411237,106.455653 5.91051248,92.7565887 8.19666319,79.7919217 C10.0170331,69.4686788 24.9220017,78.6981083 25.7112904,75.2482038 C26.5005791,71.7982993 4.59575472,38.4566788 23.769802,38.4667297 C42.9438492,38.4767807 35.4491925,10.6590631 67.0328105,0.27986888 C60.9773426,6.96927972 63.3006547,20.5602511 80.4211951,43.6569791 C97.5417356,66.7537072 68.8374143,68.6342331 67.8235588,77.1255165 C66.8097034,85.6167999 82.9357669,63.4337594 85.458993,79.7919217 C87.1411437,90.6973633 57.04947,103.332496 53.5375429,143.342091 Z" id="Combined-Shape" fill="#33BAAA"></path><path d="M1.67421489,113.108872 C48.4886826,99.1939708 84.2052486,77.7152393 108.823913,48.6726773" id="Path-117" stroke="#0D6574" stroke-width="2.28" transform="translate(55.249064, 80.890775) scale(-1, 1) rotate(-60.000000) translate(-55.249064, -80.890775) "></path><path d="M54.7563018,86.9666448 C59.0306609,80.2825914 61.0915637,69.7759322 60.93901,55.4466673" id="Path-118" stroke="#0D6574" stroke-width="2.28" transform="translate(57.851599, 71.206656) scale(-1, 1) rotate(-60.000000) translate(-57.851599, -71.206656) "></path><path d="M16.2228304,89.6092331 C33.0684385,88.0278312 44.5068348,92.9678881 50.5380195,104.429404" id="Path-119" stroke="#0D6574" stroke-width="2.28" transform="translate(33.380425, 96.875514) scale(-1, 1) rotate(-60.000000) translate(-33.380425, -96.875514) "></path><path d="M56.1581544,35.9260521 L56.3983886,25.5127272" id="Path-120" stroke="#0D6574" stroke-width="2.28" transform="translate(56.278271, 30.719390) scale(-1, 1) rotate(-60.000000) translate(-56.278271, -30.719390) "></path><path d="M35.2333328,46.1384736 C42.24601,52.2635225 46.1634234,58.5627399 46.9855732,65.036126" id="Path-82" stroke="#0D6574" stroke-width="2.28"></path></g><polygon id="Rectangle-48" fill="url(#linearGradient-4)" points="55.1221374 147.329897 95.0381679 147.329897 89.0173776 186.301031 61.1429277 186.301031"></polygon><path d="M92.101197,166.340206 L58.0591083,166.340206 L55.1221374,147.329897 L95.0381679,147.329897 L92.101197,166.340206 Z" id="Combined-Shape" fill="#0D6574" opacity="0.400000006"></path></g><g id="Group-75-Copy-3" transform="translate(91.236641, 180.597938)"><polygon id="Path-98" fill="#CBFACB" points="2.85114504 9.50515464 7.21177249 51.3278351 24.1686797 51.3278351 26.610687 9.50515464"></polygon><path d="M12.8094922,158.51449 L12.8094922,55.4156347 L1.93310354,55.4156347 C0.865479933,55.4156347 1.30746183e-16,54.5501548 0,53.4825311 C-1.30746183e-16,52.4149075 0.865479933,51.5494276 1.93310354,51.5494276 L27.5287285,51.5494276 C28.5963521,51.5494276 29.4618321,52.4149075 29.4618321,53.4825311 C29.4618321,54.5501548 28.5963521,55.4156347 27.5287285,55.4156347 L16.6523399,55.4156347 L16.6523399,158.51449 L17.2553466,158.51449 L25.6189844,199.754032 L3.84284766,199.754032 L12.2064855,158.51449 L12.8094922,158.51449 Z M7.39498632,0 L22.0668457,0 L25.6189844,9.02114983 L3.84284766,9.02114983 L7.39498632,0 Z M0,202.331503 L29.4618321,202.331503 L29.4618321,210.063918 L0,210.063918 L0,202.331503 Z" id="Combined-Shape" fill="#075B6A"></path><path d="M9.03700485,49.04146 L20.4248272,49.04146 L23.8446664,11.7915297 L5.6171657,11.7915297 L9.03700485,49.04146 Z M0,6.65360825 L29.4618321,6.65360825 L25.098589,54.1793814 L4.36324305,54.1793814 L0,6.65360825 Z" id="Rectangle-55" fill="#075B6A" fill-rule="nonzero"></path></g><g id="Group-69" transform="translate(555.973282, 390.661856)"><path d="M31.594846,60.8477018 L63.386469,60.8477018 C59.2207778,53.3569888 53.922174,49.5739786 47.4906575,49.4986712 C41.059141,49.4233637 35.7605372,53.2063739 31.594846,60.8477018 Z" id="Path-83" fill="#0D505D"></path><g id="Group-68" transform="translate(44.604488, 0.000000)"><path d="M61.83535,56.034333 C37.948269,60.8313546 26.0047285,57.5056221 26.0047285,46.0571354 C26.0047285,28.8844055 -6.18453018,34.8010302 6.20595119,24.0450168 C16.7801394,14.8657035 7.32931909,13.1048034 4.66287269,11.1101815 C2.02414411,9.13629384 -2.40867549,4.46643076 1.82996302,1.91986774 C8.27516642,-1.95239373 18.7243918,-0.660667586 26.0047285,12.9808736 C28.0007675,16.7209545 31.7091396,0.243180483 34.2091141,4.13704012 C37.9446038,9.95528869 37.8478072,26.9801725 42.4834042,27.8697443 C45.6381305,28.4751368 48.1579555,16.4851269 51.1565866,18.6904311 C58.0590705,23.7667729 61.6186583,36.2147402 61.83535,56.034333 Z M49.8863742,27.4337383 C48.3113408,33.3436086 48.7865602,36.0542807 51.3120324,35.5657545 C53.8375047,35.0772282 53.3622853,32.3665562 49.8863742,27.4337383 Z" id="Combined-Shape" fill="#2EAD9E" transform="translate(30.954597, 29.090263) scale(-1, 1) translate(-30.954597, -29.090263) "></path><path d="M13.6291492,44.2585775 C21.7243155,40.6146258 27.7128746,39.3999753 31.5948263,40.6146258" id="Path-86" stroke="#0D6574" stroke-width="0.925965"></path><path d="M22.3022442,33.1375871 C30.3974105,29.4936355 36.3859696,28.2789849 40.2679213,29.4936355" id="Path-86-Copy" stroke="#0D6574" stroke-width="0.925965"></path><path d="M30.9753392,23.2522624 C39.0705055,19.6083107 45.0590645,18.3936601 48.9410163,19.6083107" id="Path-86-Copy-2" stroke="#0D6574" stroke-width="0.925965"></path><path d="M14.1788463,29.0381415 C15.4497104,36.6675809 14.8534736,42.1739487 12.3901357,45.557245" id="Path-87-Copy" stroke="#0D6574" stroke-width="0.925965"></path><path d="M7.71225004,52.55447 C26.0104543,24.7927785 43.4203541,9.27756753 59.9419495,6.00883713" id="Path-85" stroke="#0D6574" stroke-width="0.925965"></path><path d="M28.4275023,11.1209904 C29.6983665,18.7504298 29.1021296,24.2567976 26.6387917,27.6400939" id="Path-87" stroke="#0D6574" stroke-width="0.925965"></path></g><path d="M48.3709224,29.1487202 C53.5537377,37.8302903 57.7389295,47.4906996 60.9264979,58.1299481 C56.3223311,57.9835716 50.9062761,57.2850332 44.6783331,56.034333 C44.8029853,44.6330884 46.0338484,35.6712174 48.3709224,29.1487202 Z" id="Combined-Shape" fill="#0D6574" opacity="0.320652174"></path><g id="Group-67" transform="translate(0.000000, 12.974489)"><path d="M56.3751173,44.3923692 C46.0102056,19.2800704 32.2593375,5.16131352 15.122513,2.03609864 C10.3974092,1.17438914 5.38946252,0.495689592 0.0986728436,0 C-1.55149587,14.1275595 18.0743297,10.5809894 15.7579464,14.4543923 C12.5597231,19.8023877 11.3329928,22.0125339 26.8470953,28.2009254 C46.4563963,36.022843 30.4203852,30.7575906 27.6848685,33.5012681 C20.4790058,40.7286281 35.8321596,46.4114797 43.5661973,45.6513225 L56.3751173,44.3923692 Z" id="Path-31" fill="#33BAAA"></path><path d="M46.4630088,26.3080527 C40.6900482,25.1805282 35.9404962,26.7083906 32.2143527,30.8916399" id="Path-33" stroke="#0D6574" stroke-width="0.87966675" transform="translate(39.338681, 28.420309) scale(-1, 1) translate(-39.338681, -28.420309) "></path><path d="M50.7995563,35.2164695 C46.3492705,35.2303391 42.6322298,36.8778932 39.6484342,40.1591319" id="Path-33-Copy-3" stroke="#0D6574" stroke-width="0.87966675" transform="translate(45.223995, 37.687801) scale(-1, 1) translate(-45.223995, -37.687801) "></path><path d="M38.4094206,17.9018599 C32.4494458,14.428186 25.6348712,14.6392273 17.9656967,18.5349839" id="Path-33-Copy-2" stroke="#0D6574" stroke-width="0.87966675" transform="translate(28.187559, 16.990402) scale(-1, 1) translate(-28.187559, -16.990402) "></path><path d="M32.2143527,10.7593407 C25.5317312,7.6509721 18.3041521,7.97746624 10.5316153,11.7388232" id="Path-33-Copy" stroke="#0D6574" stroke-width="0.87966675" transform="translate(21.372984, 10.194241) scale(-1, 1) translate(-21.372984, -10.194241) "></path><path d="M51.419063,1.85349839 C27.2243849,2.63062627 11.1172085,16.6348363 3.09753392,43.8661286" id="Path-34" stroke="#0D6574" stroke-width="0.87966675" transform="translate(27.258298, 22.859814) scale(-1, 1) translate(-27.258298, -22.859814) "></path></g><path d="M50.1800495,60.8477018 L81.9716725,60.8477018 C75.7532379,52.4858405 69.4282623,48.2672562 62.9967458,48.1919488 C56.5652294,48.1166414 52.2929972,52.3352257 50.1800495,60.8477018 Z" id="Path-83-Copy" fill="#176574"></path></g><g id="Group-69-Copy" transform="translate(334.534351, 342.185567)"><path d="M25.1794698,48.2244617 L50.5157608,48.2244617 C47.1959188,42.2877444 42.9732036,39.2895436 37.8476153,39.2298592 C32.7220269,39.1701748 28.4993118,42.1683756 25.1794698,48.2244617 Z" id="Path-83" fill="#0D505D"></path><g id="Group-68" transform="translate(35.547487, 0.000000)"><path d="M49.2795986,44.4096567 C30.2428217,48.2115058 20.7244332,45.5757175 20.7244332,36.5022918 C20.7244332,22.8921531 -4.92875296,27.5813367 4.94582441,19.0567262 C13.3729094,11.7817194 5.84109094,10.3861292 3.71607008,8.8053042 C1.61313891,7.24091198 -1.91959068,3.53984148 1.45838656,1.52157905 C6.59488269,-1.54735732 14.9223787,-0.523607922 20.7244332,10.2879093 C22.3151738,13.2520869 25.2705559,0.192731156 27.2629072,3.27878502 C30.2399007,7.89000117 30.1627587,21.3829653 33.8570915,22.0879898 C36.3712464,22.5677898 38.3794175,13.0651832 40.7691725,14.8129831 C46.2700977,18.8362057 49.1069064,28.7017636 49.2795986,44.4096567 Z M39.7568785,21.742436 C38.5016577,26.4262664 38.8803832,28.5745924 40.8930548,28.1874141 C42.9057265,27.8002357 42.5270011,25.6519097 39.7568785,21.742436 Z" id="Combined-Shape" fill="#2EAD9E" transform="translate(24.669224, 23.055304) scale(-1, 1) translate(-24.669224, -23.055304) "></path><path d="M10.8617321,35.076856 C17.3131639,32.1888652 22.0857379,31.2262015 25.1794541,32.1888652" id="Path-86" stroke="#0D6574" stroke-width="0.740772"></path><path d="M17.7737434,26.2629854 C24.2251752,23.3749945 28.9977492,22.4123309 32.0914654,23.3749945" id="Path-86-Copy" stroke="#0D6574" stroke-width="0.740772"></path><path d="M24.6857547,18.4284337 C31.1371865,15.5404428 35.9097605,14.5777792 39.0034768,15.5404428" id="Path-86-Copy-2" stroke="#0D6574" stroke-width="0.740772"></path><path d="M11.2998124,23.0139956 C12.3126258,29.0606596 11.8374557,33.4246967 9.87430187,36.1061068" id="Path-87-Copy" stroke="#0D6574" stroke-width="0.740772"></path><path d="M6.14626724,41.6517133 C20.7289964,19.64936 34.6037925,7.35287755 47.7706556,4.76226591" id="Path-85" stroke="#0D6574" stroke-width="0.740772"></path><path d="M22.6552595,8.81387067 C23.668073,14.8605347 23.1929028,19.2245717 21.229749,21.9059818" id="Path-87" stroke="#0D6574" stroke-width="0.740772"></path></g><path d="M38.5491412,23.1016341 C42.6795789,29.9821576 46.0149618,37.638454 48.5552901,46.0705232 C44.8860056,45.9545134 40.5696879,45.4008913 35.6063371,44.4096567 C35.7056785,35.3736723 36.6866132,28.2709981 38.5491412,23.1016341 Z" id="Combined-Shape" fill="#0D6574" opacity="0.320652174"></path><g id="Group-67" transform="translate(0.000000, 10.282849)"><path d="M44.9280735,35.1828918 C36.6677712,15.280298 25.7090354,4.09056643 12.0518663,1.61369711 C8.28620122,0.930754693 4.29512487,0.392855655 0.0786371893,0 C-1.23646254,11.196708 14.4043126,8.38589634 12.5582741,11.4557373 C10.0094543,15.6942573 9.03181327,17.4458947 21.3957563,22.3504653 C37.0233622,28.5496767 24.2434848,24.3767341 22.0634185,26.5512184 C16.320716,32.2792169 28.5563911,36.7831251 34.720022,36.1806673 L44.9280735,35.1828918 Z" id="Path-31" fill="#33BAAA"></path><path d="M37.028632,20.850281 C32.4278789,19.9566686 28.6427299,21.1675663 25.6731849,24.4829741" id="Path-33" stroke="#0D6574" stroke-width="0.7037334" transform="translate(31.350908, 22.524336) scale(-1, 1) translate(-31.350908, -22.524336) "></path><path d="M40.4846377,27.9105904 C36.9379884,27.9215827 33.9756979,29.2273413 31.597766,31.8278663" id="Path-33-Copy-3" stroke="#0D6574" stroke-width="0.7037334" transform="translate(36.041202, 29.869228) scale(-1, 1) translate(-36.041202, -29.869228) "></path><path d="M30.6103358,14.188006 C25.8605419,11.4349677 20.4296759,11.6022271 14.3177377,14.6897844" id="Path-33-Copy-2" stroke="#0D6574" stroke-width="0.7037334" transform="translate(22.464037, 13.465636) scale(-1, 1) translate(-22.464037, -13.465636) "></path><path d="M25.6731849,8.52724754 C20.3474787,6.06372961 14.5874693,6.32249048 8.39315659,9.30353015" id="Path-33-Copy" stroke="#0D6574" stroke-width="0.7037334" transform="translate(17.033171, 8.079381) scale(-1, 1) translate(-17.033171, -8.079381) "></path><path d="M40.9783528,1.46897844 C21.6964367,2.08488623 8.85984431,13.1838345 2.46857547,34.7658232" id="Path-34" stroke="#0D6574" stroke-width="0.7037334" transform="translate(21.723464, 18.117401) scale(-1, 1) translate(-21.723464, -18.117401) "></path></g><path d="M39.9909226,48.2244617 L65.3272136,48.2244617 C60.3714405,41.5973214 55.3307598,38.253909 50.2051714,38.1942246 C45.0795831,38.1345402 41.6748335,41.4779526 39.9909226,48.2244617 Z" id="Path-83-Copy" fill="#176574"></path></g><ellipse id="Oval-35" stroke="#3FBDA1" stroke-width="1.425" stroke-linecap="round" stroke-linejoin="round" cx="64.6259542" cy="393.038144" rx="20.9083969" ry="5.22783505"></ellipse><ellipse id="Oval-35-Copy" stroke="#3FBDA1" stroke-width="1.425" stroke-linecap="round" stroke-linejoin="round" cx="663.366412" cy="383.53299" rx="20.9083969" ry="5.22783505"></ellipse><ellipse id="Oval-36" stroke="#3FBDA1" stroke-width="1.425" stroke-linecap="round" stroke-linejoin="round" cx="92.1870229" cy="412.523711" rx="6.65267176" ry="6.65360825"></ellipse><ellipse id="Oval-36-Copy" stroke="#3FBDA1" stroke-width="1.425" stroke-linecap="round" stroke-linejoin="round" cx="636.280534" cy="389.236082" rx="3.32633588" ry="3.32680412"></ellipse><g id="Group-76" transform="translate(480.198473, 125.923711)"><g id="Group-77" transform="translate(33.958015, 36.614433)"><path d="M17.1038168,8.55463918 L25.6633588,8.55463918 C29.8607229,8.55463918 33.2633588,11.9572751 33.2633588,16.1546392 L33.2633588,24.2398166 C33.2633588,30.800833 27.9446041,36.1195876 21.3835878,36.1195876 L21.3835878,36.1195876 C14.8225714,36.1195876 9.50381679,30.800833 9.50381679,24.2398166 L9.50381679,16.1546392 C9.50381679,11.9572751 12.9064527,8.55463918 17.1038168,8.55463918 Z" id="Rectangle-43" fill="#FFD7B3"></path><path d="M41.8168059,53.1847643 C35.6997653,56.8348552 28.5489491,58.9319588 20.9083969,58.9319588 C13.2678448,58.9319588 6.11702859,56.8348552 -1.20043273e-05,53.1847643 L-1.77635853e-15,50.3716495 C-2.48314824e-15,44.6002738 4.67862436,39.9216495 10.45,39.9216495 L31.3667939,39.9216495 C37.1381695,39.9216495 41.8167939,44.6002738 41.8167939,50.3716495 L41.8167939,53.1847715 Z" id="Combined-Shape" fill="#CBFACB"></path><path d="M36.1145038,56.008853 C31.4142898,57.8944784 26.2824846,58.9319588 20.9083969,58.9319588 C15.8943293,58.9319588 11.0911695,58.0288277 6.65267176,56.3763414 L6.65267176,50.3716495 C6.65267176,44.6002738 11.3312961,39.9216495 17.1026718,39.9216495 L25.6645038,39.9216495 C31.4358795,39.9216495 36.1145038,44.6002738 36.1145038,50.3716495 L36.1145038,56.008853 Z" id="Combined-Shape" fill="url(#linearGradient-5)"></path><path d="M40.9095323,46.1063398 C41.4925677,47.4087714 41.8167939,48.8523469 41.8167939,50.3716495 L41.8167939,53.1847715 C35.6997653,56.8348552 28.5489491,58.9319588 20.9083969,58.9319588 C13.2678448,58.9319588 6.11702859,56.8348552 -1.20043273e-05,53.1847643 L1.77635515e-15,50.3716495 C1.59029589e-15,48.8523469 0.324226161,47.4087714 0.907261618,46.1063398 C6.81951251,49.4313592 13.6425131,51.3278351 20.9083969,51.3278351 C28.1742808,51.3278351 34.9972814,49.4313592 40.9095323,46.1063398 Z" id="Combined-Shape" fill="#05424C" opacity="0.300000012"></path><path d="M21.3835878,32.3175258 L21.3835878,32.3175258 C23.2206724,32.3175258 24.7099237,33.8067771 24.7099237,35.6438617 L24.7099237,41.3478909 C24.7099237,43.1849755 23.2206724,44.6742268 21.3835878,44.6742268 L21.3835878,44.6742268 C19.5465032,44.6742268 18.0572519,43.1849755 18.0572519,41.3478909 L18.0572519,35.6438617 C18.0572519,33.8067771 19.5465032,32.3175258 21.3835878,32.3175258 Z" id="Rectangle-51" fill="#FFD7B3"></path><path d="M9.56184752,26.9462755 C7.79661984,23.5190491 6.7639243,19.2746378 6.4637609,14.2130416 C6.1635975,9.15144541 7.42064682,6.15192131 10.2349089,5.21446931 C9.35651658,2.12170649 9.73586419,0.543094414 11.3729517,0.478633078 C13.8285829,0.381941074 31.2304415,2.48897955 34.1282836,6.24895033 C37.0261257,10.0089211 35.8988635,22.7693909 33.4632585,26.1335819 C32.9559119,22.1540465 32.8350533,18.456796 33.1006828,15.0418302 C23.6366319,18.1266492 16.0147073,18.1266492 10.2349089,15.0418302 C9.83599861,18.8147022 9.61164484,22.7828506 9.56184752,26.9462755 Z" id="Path-89" fill="#0B4651"></path><ellipse id="Oval-38" fill="#FFD7B3" cx="9.50381679" cy="21.3865979" rx="1.90076336" ry="2.37628866"></ellipse><ellipse id="Oval-38-Copy" fill="#FFD7B3" cx="33.2633588" cy="21.3865979" rx="1.90076336" ry="2.37628866"></ellipse></g><ellipse id="Oval-37" stroke="#8BE48C" stroke-width="4.75" cx="54.8664122" cy="54.6742268" rx="40.8664122" ry="40.8721649"></ellipse><ellipse id="Oval-37-Copy-4" stroke="#8BE48C" opacity="0.300000012" cx="54.8664122" cy="54.6742268" rx="54.5908786" ry="54.5985633"></ellipse><path d="M85.9816444,27.3823383 L101.834872,10.9461423" id="Path-92" stroke="#8BE48C" stroke-width="1.425" stroke-linecap="round" stroke-linejoin="round" stroke-dasharray="4.75"></path></g><g id="Group-79" transform="translate(126.400763, 292.758763)"><rect id="Rectangle-44" fill="#0D6574" x="24.7099237" y="0" width="150.160305" height="9.50515464"></rect><polygon id="Rectangle-44-Copy-5" fill="#33BAAA" points="22.8091603 0 32.3129771 0 32.3129771 57.9814433 22.8091603 57.9814433"></polygon><polygon id="Rectangle-44-Copy-6" fill="#0D6574" opacity="0.5" points="22.8091603 51.3278351 32.3129771 51.3278351 32.3129771 57.9814433 22.8091603 57.9814433"></polygon><rect id="Rectangle-44-Copy" fill="#33BAAA" x="41.8167939" y="0" width="9.50381679" height="57.9814433"></rect><rect id="Rectangle-44-Copy-2" fill="#33BAAA" x="60.8244275" y="0" width="9.50381679" height="57.9814433"></rect><rect id="Rectangle-44-Copy-3" fill="#33BAAA" x="79.8320611" y="0" width="9.50381679" height="57.9814433"></rect><rect id="Rectangle-44-Copy-7" fill="#0D6574" opacity="0.5" x="41.8167939" y="51.3278351" width="9.50381679" height="6.65360825"></rect><rect id="Rectangle-44-Copy-8" fill="#0D6574" opacity="0.5" x="60.8244275" y="51.3278351" width="9.50381679" height="6.65360825"></rect><rect id="Rectangle-44-Copy-9" fill="#0D6574" opacity="0.5" x="79.8320611" y="51.3278351" width="9.50381679" height="6.65360825"></rect><g id="Group-78" transform="translate(98.839695, 0.000000)"><rect id="Rectangle-44-Copy-4" fill="#33BAAA" x="0" y="0" width="9.50381679" height="57.9814433"></rect><rect id="Rectangle-44-Copy-10" fill="#0D6574" opacity="0.5" x="0" y="51.3278351" width="9.50381679" height="6.65360825"></rect></g><g id="Group-78-Copy" transform="translate(117.847328, 0.000000)"><rect id="Rectangle-44-Copy-4" fill="#33BAAA" x="0" y="0" width="9.50381679" height="57.9814433"></rect><rect id="Rectangle-44-Copy-10" fill="#0D6574" opacity="0.5" x="0" y="51.3278351" width="9.50381679" height="6.65360825"></rect></g><g id="Group-78-Copy-2" transform="translate(136.854962, 0.000000)"><rect id="Rectangle-44-Copy-4" fill="#33BAAA" x="0" y="0" width="9.50381679" height="57.9814433"></rect><rect id="Rectangle-44-Copy-10" fill="#0D6574" opacity="0.5" x="0" y="51.3278351" width="9.50381679" height="6.65360825"></rect></g><g id="Group-78-Copy-3" transform="translate(155.862595, 0.000000)"><rect id="Rectangle-44-Copy-4" fill="#33BAAA" x="0" y="0" width="9.50381679" height="57.9814433"></rect><rect id="Rectangle-44-Copy-10" fill="#0D6574" opacity="0.5" x="0" y="51.3278351" width="9.50381679" height="6.65360825"></rect></g><g id="Group-78-Copy-4" transform="translate(174.870229, 0.000000)"><rect id="Rectangle-44-Copy-4" fill="#33BAAA" x="0" y="0" width="9.50381679" height="57.9814433"></rect><rect id="Rectangle-44-Copy-10" fill="#0D6574" opacity="0.5" x="0" y="51.3278351" width="9.50381679" height="6.65360825"></rect></g><rect id="Rectangle-45" fill="#0D6574" x="0" y="39.9216495" width="23.759542" height="6.65360825"></rect><rect id="Rectangle-45-Copy" fill="#0D6574" x="184.374046" y="39.9216495" width="23.759542" height="6.65360825"></rect><rect id="Rectangle-46" fill="#219E8F" x="19.9580153" y="55.1298969" width="164.416031" height="9.50515464"></rect><rect id="Rectangle-47" fill="#28A899" x="14.2557252" y="46.5752577" width="9.50381679" height="46.5752577"></rect><rect id="Rectangle-47-Copy" fill="#28A899" x="184.374046" y="46.5752577" width="9.50381679" height="46.5752577"></rect></g><g id="Group-74" transform="translate(180.572519, 152.082474)"><g id="Group-63" transform="translate(56.072519, 102.655670)"><path d="M40.9377003,52.4191751 L61.4902572,62.6016004 L85.4704113,40.6799844 L83.2457153,36.5900687 L60.4670942,51.5789781 C54.8402893,47.5997345 51.0792465,44.9703293 49.1839657,43.6907624 C47.2152546,42.3616203 45.0188828,41.3580276 42.5948502,40.6799844 C41.8922401,39.9856631 41.3398568,43.8987267 40.9377003,52.4191751 Z" id="Combined-Shape" fill="#0B4651"></path><path d="M42.3382129,40.4815294 L49.1951775,43.7308539 L49.9427942,103.699967 C41.2979425,106.051027 34.8373388,106.822756 30.560983,106.015154 C26.2846272,105.207551 23.9767227,102.222519 23.6372695,97.0600584 L27.4738615,44.5002774 L36.2582643,40.4815294 L42.3382129,40.4815294 Z" id="Path-144" fill="#0B4651"></path><path d="M23.6195097,97.1783163 C23.4157425,98.9235208 23.595968,100.471288 24.0274283,102.437664 C27.0089693,116.026009 27.441411,125.058185 28.5976081,141.214168 C29.2883537,150.866221 27.7868923,169.339352 21.2732383,183.341937 C25.293136,186.357045 23.2600948,185.367368 26.3364326,183.341937 C33.2650695,173.052254 37.6012313,155.985114 37.7321187,143.685372 C37.9192573,126.099595 40.0302677,110.314004 40.0302677,110.314004 C45.007005,123.28291 47.9097307,134.141854 48.7384447,142.890835 C49.8215537,154.325541 49.7289846,169.238733 47.0369625,183.341937 C48.8066555,183.832168 50.3191063,183.832168 51.5743151,183.341937 C54.6638733,162.068411 56.1819541,147.782741 56.1285574,140.484927 C55.9353181,114.074575 50.7475687,102.965404 49.7289846,98.3639251 C42.3038953,99.5715181 33.600737,99.1763152 23.6195097,97.1783163 Z" id="Path-225" fill="#FFD7B3"></path><path d="M23.6195097,97.1783163 C23.4157425,98.9235208 23.595968,100.471288 24.0274283,102.437664 C26.5537128,113.951182 26.4732205,127.453798 24.0274283,141.234483 C25.9431021,145.423925 36.7104575,143.815365 40.0302677,141.768956 C40.9746835,127.029799 40.0302677,110.314004 40.0302677,110.314004 C41.5683392,123.485908 42.4464491,133.792735 42.6645975,141.234483 C47.1865299,143.301229 55.7372843,144.106825 58.8529979,137.094137 C59.3779019,124.975623 50.7263257,102.869439 49.7289846,98.3639251 C42.3038953,99.5715181 33.600737,99.1763152 23.6195097,97.1783163 Z" id="Path-225-Copy" fill="url(#linearGradient-4)"></path><path d="M44.7297749,41.6454195 L42.1154071,40.3420233 L42.1154071,30.6997592 L35.4270767,27.872871 L36.1810146,40.4818532 L33.8425169,41.4792753 C37.4564473,48.8871449 39.5638772,52.5910797 40.1648066,52.5910797 C40.7657359,52.5910797 42.287392,48.9425263 44.7297749,41.6454195 Z" id="Path-215" fill="#FFD7B3"></path><path d="M54.6936024,15.1346763 L50.5572216,29.981427 C49.543368,33.6204614 45.7714569,35.748591 42.1324225,34.7347373 C41.5193427,34.5639302 40.9331015,34.3083946 40.3906628,33.9755252 L39.9807466,33.7239786 C34.875964,30.5914102 32.4150762,24.4928412 33.9161438,18.6946875 C35.0234082,14.4176094 36.12235,11.9019374 37.2129541,11.1476676 C38.1348108,10.5101047 39.731798,6.23681623 42.8564164,6.98509607 C44.7715498,7.44372989 48.7172784,10.1602566 54.6936024,15.1346763 Z" id="Path-214" fill="#FFD7B3" transform="translate(44.086901, 20.942455) rotate(-17.000000) translate(-44.086901, -20.942455) "></path><path d="M29.9770849,28.5443475 C30.9514243,24.0940938 30.3007656,20.2251763 28.0251088,16.9375949 C27.4802012,16.1503813 26.9007316,15.4151971 26.7803078,14.6553037 C25.3728525,5.77403786 37.1416476,3.75824695 41.5027616,4.32508236 C47.9721111,5.16593548 55.2559356,7.65121681 57.8448908,10.8908136 C62.1791109,16.3142855 55.3536735,17.4797121 49.9219694,15.5086066 C42.4014026,12.7794759 40.7912282,15.0016225 40.4365502,16.3246625 C39.0149325,21.6276622 36.9816231,20.9695066 35.2167631,22.0694496 C35.4313001,24.7315905 33.6847407,26.8898898 29.9770849,28.5443475 Z" id="Path-216" fill="#0B4651" transform="translate(42.941526, 16.390563) rotate(-17.000000) translate(-42.941526, -16.390563) "></path><g id="Group-59" transform="translate(45.917495, 18.824349) rotate(14.000000) translate(-45.917495, -18.824349) translate(34.917495, 14.824349)" stroke="#156573" stroke-width="0.95"><ellipse id="Oval-28" cx="11.4045802" cy="4.75257732" rx="2.85114504" ry="2.85154639"></ellipse><ellipse id="Oval-28-Copy" cx="19.0076336" cy="2.85154639" rx="2.85114504" ry="2.85154639"></ellipse><path d="M8.78099403,5.70309278 L0,7.22981617" id="Path-149"></path></g><ellipse id="Oval-27" fill="#FFD7B3" transform="translate(37.696144, 20.998153) rotate(-17.000000) translate(-37.696144, -20.998153) " cx="37.6961439" cy="20.9981526" rx="2.85114504" ry="2.85154639"></ellipse><path d="M31.8557036,42.7074332 L13.175583,48.0880131 L29.6001345,21.6970447 L26.837323,18.9323724 C9.22894519,41.1077953 0.540368763,52.1686631 0.771593708,52.1149759 C0.892189418,52.0869753 0.411056615,55.9471 5.63107793,57.0941978 C8.82349091,57.7957294 17.1968238,57.7957294 30.7510767,57.0941978 L31.8557036,42.7074332 Z" id="Path-146" fill="#0B4651"></path><path d="M20.9104824,183.449485 L19.0076336,189.9031 L40.8034861,189.9031 C39.6208168,188.640743 37.9413499,187.56514 35.7650854,186.676292 C32.5006887,185.34302 27.373836,185.571347 26.7549508,183.449485 L20.9104824,183.449485 Z" id="Path-227" fill="#0B4651"></path><path d="M47.1536125,183.449485 L45.6183206,189.9031 L63.2040558,189.9031 C62.2498326,188.640743 60.8947738,187.56514 59.1388796,186.676292 C56.5050383,185.34302 52.3684956,185.571347 51.8691552,183.449485 L47.1536125,183.449485 Z" id="Path-227-Copy" fill="#0B4651"></path><path d="M85.526838,40.6245246 C91.7274187,38.512744 95.3196607,37.4672204 96.3035642,37.4879539 C97.7794193,37.5190541 95.6797416,34.2034548 94.4826213,33.9599288 C93.3669707,33.7329759 90.4143163,33.6312305 89.0616933,33.6629514 C84.8556625,33.7615887 86.1141196,30.3051248 85.526838,30.1099639 C84.9395564,29.914803 84.2233898,31.3721257 84.6682991,32.9541869 C84.9649053,34.0088944 84.4735056,35.2142568 83.1940999,36.5702742 L85.526838,40.6245246 Z" id="Path-62" fill="#FFD7B3"></path></g><g id="Group-73" transform="translate(92.137405, 102.655670)"><g id="Group-70" transform="translate(-0.000000, 150.181443)"><g id="Group-66" transform="translate(44.885496, 28.000000) scale(-1, 1) translate(-44.885496, -28.000000) translate(0.385496, 0.000000)"><path d="M13.4970771,26.0353459 C5.56931502,20.82875 2.22676632,15.6747425 3.46943095,10.5733236 C4.71209559,5.47190468 4.33896426,2.24540329 2.35003695,0.893819424 C0.232598653,8.03235568 -0.310679245,13.4040645 0.72020326,17.0089458 C2.26652702,22.4162679 7.85251579,27.063591 12.4856273,28.5623409 L13.4970771,26.0353459 Z" id="Path-75" fill="#1D9A8B"></path><path d="M14.8555025,45.5150161 C14.6459878,46.6981287 14.5926041,48.100068 14.6953515,49.7208341 C14.7743622,50.9671726 15.0095041,52.4323378 15.400777,54.1163298 L23.6167776,54.1163298 C23.5820075,53.3500464 23.3903678,52.7824792 23.0418585,52.413628 C22.6933492,52.0447768 21.835597,51.5017008 20.4686017,50.7844 C20.2925625,48.0593389 20.5430501,46.1705251 21.2200643,45.1179587 C23.6872021,41.2822543 26.5808666,38.2827973 29.9010578,36.1195876 L14.8555025,45.5150161 Z" id="Path-73" fill="#0D6574"></path><path d="M54.7496777,48.2487219 C55.3323347,50.1245712 56.4163029,52.1302055 58.0015825,54.2656248 L64.6209344,54.2656248 C64.4274361,53.7565536 64.2903061,53.3960878 64.2095444,53.1842272 C64.0324874,52.7197564 62.4535577,51.3446456 62.3448047,51.0624959 C58.6830567,41.5624304 65.7856744,35.9688214 64.0040569,33.9226682 C62.0887636,31.7229911 59.5053822,34.1113034 56.2539127,41.0876052 C54.6684324,43.9858337 54.1670207,46.3728726 54.7496777,48.2487219 Z" id="Path-71" fill="#0D6574"></path><path d="M6.612952,38.395548 C7.45074817,27.7391553 12.1015307,22.5033955 20.5652997,22.6882689 C33.2609532,22.9655788 51.7280511,23.6396372 57.7223087,14.7018601 C63.7165663,5.76408312 67.7999088,1.66237902 71.5537224,2.52387288 C75.3075361,3.38536673 83.5047112,10.0041466 86.5748406,9.51634119 C89.64497,9.02853581 87.4056987,17.3697121 83.5047112,17.3697121 C80.9040528,17.3697121 76.9203899,17.8017401 71.5537224,18.6657962 C70.2895167,29.0565026 68.6841677,35.4734489 66.7376755,37.9166351 C64.7911833,40.3598214 60.2590343,45.1002786 53.1412288,52.1380069 C56.1952821,52.6804785 57.7223087,53.7215599 57.7223087,55.261251 C52.7465414,55.3050057 49.3747667,55.3050057 47.6069848,55.261251 L49.1944321,43.71475 C38.2226481,46.2067949 29.2499272,45.495683 22.2762694,41.5814145 C19.1647299,44.3157081 16.6013994,45.738014 14.1594428,47.1459818 C13.6932578,47.4147718 10.9283803,49.4402783 11.3175161,52.1380069 C11.3768734,52.549508 13.104434,52.5267604 13.8113561,53.1183039 C14.2764375,53.5074783 14.3924664,54.3409463 14.1594428,55.6187078 L5.07818044,55.6596612 C4.18924718,49.6589229 4.7008377,43.9042185 6.612952,38.395548 Z" id="Path-69" fill="#33BAAA"></path><path d="M11.5044499,50.3340134 C11.3116403,50.8870941 11.2245283,51.493358 11.3175161,52.1380069 C11.3768734,52.549508 13.104434,52.5267604 13.8113561,53.1183039 C14.2764375,53.5074783 14.3924664,54.3409463 14.1594428,55.6187078 L5.07818044,55.6596612 C4.52430296,51.9207148 4.51415084,48.2772862 5.04772409,44.7293753 C6.27482446,47.4619571 8.4270664,49.3301698 11.5044499,50.3340134 Z" id="Combined-Shape" fill="url(#linearGradient-6)" opacity="0.5"></path><path d="M14.3333232,23.8165901 C16.1095432,23.0124241 18.1868686,22.636317 20.5652997,22.6882689 C25.1437646,22.7882758 30.4728391,22.9398822 35.6968238,22.6736621 C33.8918936,25.1235099 29.5463096,26.850098 24.4723282,26.850098 C20.2307792,26.850098 16.4982323,25.6435628 14.3333232,23.8165901 Z" id="Combined-Shape" fill="url(#linearGradient-6)" opacity="0.5"></path><path d="M86.5748406,9.51634119 C89.64497,9.02853581 87.4056987,17.3697121 83.5047112,17.3697121 C82.4515515,17.3697121 81.1715905,17.4405611 79.6648282,17.5822591 C79.3397581,15.6077188 84.6037636,13.5389871 83.0406056,11.3479294 C81.4774477,9.15687164 80.4172875,8.71820493 79.3397581,6.53728659 C82.2352996,8.23421508 85.0431427,9.75970894 86.5748406,9.51634119 Z" id="Combined-Shape" fill="url(#linearGradient-6)" opacity="0.5"></path><path d="M54.7715969,50.5211756 C54.2441132,51.0459285 53.7006571,51.5848723 53.1412288,52.1380069 C56.1952821,52.6804785 57.7223087,53.7215599 57.7223087,55.261251 C52.7465414,55.3050057 49.3747667,55.3050057 47.6069848,55.261251 L49.1322399,44.167113 L49.8481741,43.6463544 L49.216368,43.6463544 C51.186884,46.5649544 53.038627,48.8565615 54.7715969,50.5211756 Z" id="Combined-Shape" fill="url(#linearGradient-6)" opacity="0.5"></path><path d="M22.4655178,41.686582 C23.2399714,38.5936206 27.5570349,37.7427751 30.1492159,38.6386577 C34.3314668,40.0840838 40.8057647,41.5371394 44.3494482,39.0236455 C47.8903115,36.5121518 50.3771779,40.9750669 49.0945202,43.7373671 C38.2670482,46.1801369 29.390714,45.4965419 22.4655178,41.686582 Z" id="Combined-Shape" fill="url(#linearGradient-6)" opacity="0.5"></path><path d="" id="Path-74" stroke="#979797" stroke-width="0.5"></path><path d="M66.5810429,6.51028555 C64.4864543,14.1401168 64.7915115,18.0956977 67.4962145,18.3770283 C71.553269,18.7990243 72.4356888,16.1086351 71.2544201,4.97629386" id="Path-70" stroke="#0D6574" stroke-width="0.95" fill="#33BAAA"></path><ellipse id="Oval-30" fill="#0B4651" cx="75.7929389" cy="7.44308597" rx="1" ry="1"></ellipse><path d="" id="Path-76" stroke="#979797" stroke-width="0.5"></path><path d="M49.3139768,43.6467469 C50.5443609,37.3729291 51.6601737,33.9954503 52.6614154,33.5143107" id="Path-79" stroke="#0D6574" stroke-width="0.95"></path><path d="M21.9017417,42.2189275 C25.410987,38.5114412 27.4182441,35.8218477 27.9235131,34.1501471" id="Path-80" stroke="#0D6574" stroke-width="0.95"></path><path d="M85.5524489,9.4707865 C85.9351859,9.54434396 86.2788421,9.56337167 86.5748406,9.51634119 C87.8706559,9.31045225 88.2206297,10.6773995 87.899031,12.326161 C86.6370585,11.937061 85.6929047,10.8233097 85.5524489,9.4707865 Z" id="Combined-Shape" fill="#0B4651"></path></g><path d="M33.2091979,13.5285714 L17.5262099,22.5989898 C17.0664759,26.2908176 17.4134499,28.4925814 18.5671319,29.2042812 C21.1621919,28.1674286 26.9648513,24.1724499 35.9751102,17.2193452 L33.2091979,13.5285714 Z" id="Path-78" fill="#CBFACB"></path><ellipse id="Oval-33" fill="#33BAAA" cx="20.0076336" cy="24.7134021" rx="1" ry="1"></ellipse><ellipse id="Oval-33-Copy" fill="#33BAAA" cx="24.759542" cy="21.8618557" rx="1" ry="1"></ellipse><ellipse id="Oval-33-Copy-2" fill="#33BAAA" cx="29.5114504" cy="19.0103093" rx="1" ry="1"></ellipse><ellipse id="Oval-32" fill="#0D6574" cx="17.6316794" cy="30.8917526" rx="1.42557252" ry="1.4257732"></ellipse></g><g id="Group-65" transform="translate(18.106870, 0.000000)"><polygon id="Path-64" fill="#FFD7B3" points="128.465755 139.673378 132.632435 182.522756 136.487747 182.522756 136.53075 172.401377 136.660659 141.825006 137.742966 182.522756 142.163939 182.522756 145.28024 138.503488"></polygon><path d="M128.166299,55.7507559 L107.613742,65.9331811 L83.6335878,44.0115651 L85.8582838,39.9216495 L108.611787,57.9303812 L124.996224,44.0115651 C125.698834,43.3172439 126.755525,47.2303075 128.166299,55.7507559 Z M83.512495,43.8002168 C77.3119143,41.6884362 73.7196723,40.6429126 72.7357688,40.6636461 C71.2599137,40.6947463 73.3595914,37.379147 74.5567117,37.135621 C75.6723623,36.9086681 78.6250167,36.8069227 79.9776396,36.8386436 C84.1836705,36.9372809 82.9252134,33.480817 83.512495,33.2856561 C84.0997766,33.0904951 84.8159432,34.5478179 84.3710339,36.1298791 C84.0744276,37.1845866 84.5658274,38.389949 85.845233,39.7459664 L83.512495,43.8002168 Z" id="Combined-Shape" fill="#FFD7B3"></path><path d="M139.497307,40.4815294 L146.354272,43.7308539 C149.742287,49.3372612 150.938776,54.2518305 149.943739,58.4745618 C148.451183,64.8086588 144.100935,74.4469512 146.801509,98.5943328 C141.986749,100.983252 138.368158,102.106252 135.945734,101.963332 C132.589237,101.765302 127.539447,100.130878 120.796364,97.0600584 C124.339375,87.1853973 125.090083,76.5512998 123.048485,65.1577658 C122.144852,55.7648017 122.68027,49.3081378 124.65474,45.7877744 C126.646682,42.2362608 129.567554,40.4675124 133.417359,40.4815294 L139.497307,40.4815294 Z" id="Path-144" fill="url(#linearGradient-5)" transform="translate(135.539471, 71.228440) scale(-1, 1) translate(-135.539471, -71.228440) "></path><path d="M124.167028,97.1783163 C122.015122,115.869896 130.487526,122.640182 127.526655,140.229075 C132.206484,143.781002 140.078364,144.13538 147.550663,140.229075 C150.276503,132.061425 151.273844,102.869439 150.276503,98.3639251 C142.851413,99.5715181 134.148255,99.1763152 124.167028,97.1783163 Z" id="Path-225-Copy" fill="#0B4651" transform="translate(137.233683, 120.102902) scale(-1, 1) translate(-137.233683, -120.102902) "></path><path d="M135.655887,110.254463 C133.390826,106.955685 130.981202,105.806507 128.427014,106.806928 C125.322605,108.022859 105.361336,132.210843 71.6420375,155.746609 C49.162505,171.437121 25.2818259,179.630353 0,180.326305" id="Path-68" stroke="#0D6574" stroke-width="0.95"></path><g id="Group-64" transform="translate(112.145038, 0.000000)"><path d="M9.25436629,15.4083655 C10.9170532,26.7993259 10.5620842,33.485986 8.18945915,35.4683458 C10.3868369,38.7228848 19.9696588,38.4995036 23.2341808,35.4683458 C25.4105289,33.4475739 23.156028,26.1315463 16.4706782,13.5202631 L9.25436629,15.4083655 Z" id="Path-63" fill="#0B4651"></path><path d="M28.1711915,17.9824615 L24.0086092,31.4691394 C22.9502288,34.8982691 19.3123831,36.8201413 15.8832533,35.7617609 C15.5065281,35.6454869 15.1411668,35.4951681 14.7916902,35.3126645 L13.9983458,34.8983643 C9.25963569,32.4237156 6.84142795,27.0179935 8.15496296,21.8359201 C9.25671087,17.4893143 10.3498616,14.944568 11.4344006,14.2016775 C12.3170294,13.597092 13.8460597,9.54483562 16.8377156,10.2544113 C18.671354,10.6893227 22.4491793,13.2653394 28.1711915,17.9824615 Z" id="Path-214" fill="#FFD7B3" transform="translate(17.985643, 23.111919) scale(-1, 1) rotate(-17.000000) translate(-17.985643, -23.111919) "></path><path d="M25.705999,41.2940478 L23.2028809,40.0580687 L23.2028809,30.9145424 L16.7991604,28.2338725 L17.5210158,40.190666 L15.4634982,40.6624758 C17.3531835,48.0548307 20.2335163,51.7510081 24.1044966,51.7510081 C27.9754769,51.7510081 28.5093111,48.2653547 25.705999,41.2940478 Z" id="Path-215" fill="#FFD7B3" transform="translate(21.467826, 39.992440) scale(-1, 1) translate(-21.467826, -39.992440) "></path><path d="M4.36337741,31.198124 C3.93985611,17.2033674 9.87648023,6.10788771 22.7946422,4.68266434 C29.066442,3.99071485 37.5756317,9.7611716 38.1092705,14.6580429 C38.8306086,21.2773137 32.4223209,20.35203 32.3508951,20.3397793 C22.7436827,18.6919846 25.7966391,16.7048183 24.5793447,13.4507872 C24.515141,16.1064689 21.396441,20.9146713 16.4440419,25.2584736 C14.2713313,27.1641814 13.5425345,31.2490856 15.2107475,36.2100755 C10.7452806,35.7749348 7.0171015,33.728672 4.36337741,31.198124 Z" id="Path-216" fill="#0B4651" transform="translate(21.254068, 20.417996) scale(-1, 1) rotate(-17.000000) translate(-21.254068, -20.417996) "></path></g><path d="M136.488235,182.498969 L132.249863,182.498969 C126.161127,183.899626 121.190556,186.808938 122.962391,187.109656 C123.758302,187.244738 128.145471,187.035887 136.123897,186.483103 C136.873236,186.337784 136.994682,185.00974 136.488235,182.498969 Z" id="Path-103" fill="#0B4651"></path><path d="M142.190525,182.498969 L137.952153,182.498969 C132.814794,185.826103 127.361451,188.839111 129.133286,189.139828 C129.929197,189.274911 134.160164,188.389336 141.826187,186.483103 C142.575526,186.337784 142.696972,185.00974 142.190525,182.498969 Z" id="Path-103-Copy-2" fill="#0B4651"></path><path d="" id="Path-65" stroke="#979797" stroke-width="0.95"></path><path d="M139.246663,47.989878 L141.560714,78.934568 L133.315171,103.702353 C130.135844,106.275692 128.822281,107.983415 129.374483,108.825522 C130.202786,110.088684 134.963794,114.35104 136.002547,110.088684 C136.695048,107.247113 137.244441,105.289724 137.650724,104.216516 L147.483795,78.934568 L147.483795,48.0017898 C147.483795,45.6390723 145.568434,43.7237113 143.205717,43.7237113 L143.205717,43.7237113 C141.013087,43.7237113 139.235609,45.5011892 139.235609,47.6938192 C139.235609,47.7926086 139.239296,47.8913637 139.246663,47.989878 Z" id="Path-66" fill="#FFD7B3"></path><path d="M86.2915954,39.2780474 L83.4404503,44.0306247" id="Path-67" stroke="#075B6A" stroke-width="0.95" stroke-linecap="round" stroke-linejoin="round"></path><path d="M87.241977,40.2285629 L84.390832,44.9811402" id="Path-67-Copy" stroke="#075B6A" stroke-width="0.95" stroke-linecap="round" stroke-linejoin="round"></path><path d="M88.1923587,41.1790783 L85.3412137,45.9316556" id="Path-67-Copy-2" stroke="#075B6A" stroke-width="0.95" stroke-linecap="round" stroke-linejoin="round"></path></g></g><g id="Group-71"><path d="M121.504817,84.5958763 L106.003505,97.8244443 L106.003505,84.5958763 L10.45,84.5958763 C4.67862436,84.5958763 2.48314651e-15,79.9172519 1.77635684e-15,74.1458763 L0,10.45 C-7.0678967e-16,4.67862436 4.67862436,1.0601845e-15 10.45,0 L137.809542,0 C143.580918,-1.0601845e-15 148.259542,4.67862436 148.259542,10.45 L148.259542,74.1458763 C148.259542,79.9172519 143.580918,84.5958763 137.809542,84.5958763 L121.504817,84.5958763 Z" id="Combined-Shape" fill="url(#linearGradient-4)"></path><path d="M31.2268931,26.3069133 L31.2268931,21.3865979 L117.575349,21.3865979 L117.575349,26.3069133 L31.2268931,26.3069133 Z M31.2268931,45.1681221 L31.2268931,40.2478068 L117.575349,40.2478068 L117.575349,45.1681221 L31.2268931,45.1681221 Z M31.5302841,63.2092784 L31.5302841,58.288963 L82.238754,58.288963 L82.238754,63.2092784 L31.5302841,63.2092784 Z" id="Combined-Shape" fill="#FFFFFF" fill-rule="nonzero" opacity="0.699999988"></path></g><g id="Group-72" transform="translate(199.580153, 0.000000)"><path d="M51.9430782,84.5958763 L42.7036503,98.7814177 L34.0829414,84.5958763 L10.45,84.5958763 C4.67862436,84.5958763 7.0678967e-16,79.9172519 0,74.1458763 L0,10.45 C-7.0678967e-16,4.67862436 4.67862436,1.0601845e-15 10.45,0 L74.1339695,0 C79.9053451,9.19183808e-15 84.5839695,4.67862436 84.5839695,10.45 L84.5839695,74.1458763 C84.5839695,79.9172519 79.9053451,84.5958763 74.1339695,84.5958763 L51.9430782,84.5958763 Z" id="Combined-Shape" fill="url(#linearGradient-7)" transform="translate(42.291985, 49.390709) scale(-1, 1) translate(-42.291985, -49.390709) "></path><path d="M42.2158036,27.317213 L41.5239481,26.6252601 C36.556632,21.6572447 28.5030213,21.6572447 23.5357052,26.6252601 C18.568389,31.5932755 18.568389,39.6480199 23.5357052,44.6160353 L42.2158036,63.2987633 L61.8355865,43.6762187 C66.2839293,39.2272497 65.8632183,31.5932755 60.8959021,26.6252601 C55.928586,21.6572447 48.2956863,21.2364745 43.8473435,25.6854435 L42.2158036,27.317213 Z" id="Combined-Shape" fill="#FFFFFF" opacity="0.900000036"></path></g></g><g id="Group-80" transform="translate(468.538168, 65.585567)" stroke-width="1.9"><ellipse id="Oval-39" stroke="#8BE48C" cx="15.6812977" cy="15.6835052" rx="15.6812977" ry="15.6835052"></ellipse><ellipse id="Oval-39-Copy" stroke="#7ACB7B" fill="#CBFACB" cx="15.6812977" cy="15.6835052" rx="8.07824427" ry="8.07938144"></ellipse></g><g id="Group-80-Copy" transform="translate(575.931298, 108.358763)" stroke-width="1.9"><ellipse id="Oval-39" stroke="#8BE48C" cx="15.6812977" cy="15.6835052" rx="15.6812977" ry="15.6835052"></ellipse><ellipse id="Oval-39-Copy" stroke="#7ACB7B" fill="#CBFACB" cx="15.6812977" cy="15.6835052" rx="8.07824427" ry="8.07938144"></ellipse></g><g id="Group-80-Copy-2" transform="translate(462.835878, 243.331959)" stroke-width="1.9"><ellipse id="Oval-39" stroke="#8BE48C" cx="15.6812977" cy="15.6835052" rx="15.6812977" ry="15.6835052"></ellipse><ellipse id="Oval-39-Copy" stroke="#7ACB7B" fill="#CBFACB" cx="15.6812977" cy="15.6835052" rx="8.07824427" ry="8.07938144"></ellipse></g><g id="Group-80-Copy-3" transform="translate(564.526718, 232.876289)" stroke-width="1.9"><ellipse id="Oval-39" stroke="#8BE48C" cx="15.6812977" cy="15.6835052" rx="15.6812977" ry="15.6835052"></ellipse><ellipse id="Oval-39-Copy" stroke="#7ACB7B" fill="#CBFACB" cx="15.6812977" cy="15.6835052" rx="8.07824427" ry="8.07938144"></ellipse></g><path d="M491.822519,94.5762887 L517.103094,142.958777" id="Path-91" stroke="#8BE48C" stroke-width="1.425" stroke-linecap="round" stroke-linejoin="round" stroke-dasharray="4.75"></path><path d="M557.959602,215.85003 L571.320512,234.7212" id="Path-93" stroke="#8BE48C" stroke-width="1.425" stroke-linecap="round" stroke-linejoin="round" stroke-dasharray="4.75"></path><path d="M310.476824,56.4380134 C319.467821,50.4790026 318.6444,46.81555 324.221272,45.8763266 C329.798144,44.9371033 331.299419,49.5027933 339.826997,47.6691977 C348.354576,45.8356021 348.211819,23.3985443 372.861327,23.7673837 C397.510834,24.1362232 396.573909,52.5847895 404.091926,52.5847895 C411.609944,52.5847895 411.25395,45.8763266 422.525151,45.8763266 C433.796352,45.8763266 438.807625,65.585567 462.754766,65.585567 L279.412214,65.585567 C294.127956,63.4598718 304.482827,60.4106873 310.476824,56.4380134 Z" id="Path-72" fill="#33BAAA" opacity="0.200000003"></path><path d="M588.938656,157.192653 C597.929653,151.233642 597.106232,147.570189 602.683104,146.630966 C608.259976,145.691742 609.761251,150.257432 618.288829,148.423837 C626.816408,146.590241 626.673651,124.153183 651.323159,124.522023 C675.972666,124.890862 675.035741,153.339429 682.553758,153.339429 C690.071776,153.339429 689.715782,146.630966 700.986984,146.630966 C712.258185,146.630966 717.269457,166.340206 741.216598,166.340206 L557.874046,166.340206 C572.589788,164.214511 582.944659,161.165326 588.938656,157.192653 Z" id="Path-72-Copy-4" fill="#33BAAA" opacity="0.200000003"></path><path d="M488.813221,247.521226 L512.926681,216.287767" id="Path-92" stroke="#8BE48C" stroke-width="1.425" stroke-linecap="round" stroke-linejoin="round" stroke-dasharray="4.75"></path></g></g></g></g></svg> 