<?xml version="1.0" encoding="UTF-8"?> <svg xmlns="http://www.w3.org/2000/svg" xmlns:xlink="http://www.w3.org/1999/xlink" width="729px" height="480px" viewBox="0 0 729 480"><!-- Generator: Sketch 52.5 (67469) - http://www.bohemiancoding.com/sketch --><title>invision-illustration</title><desc>Created with Sketch.</desc><defs><linearGradient x1="56.102466%" y1="-5.05869454%" x2="51.9733012%" y2="104.127543%" id="linearGradient-1"><stop stop-color="#7ECC79" offset="0%"></stop><stop stop-color="#56C3A4" offset="67.6638859%"></stop><stop stop-color="#34B29F" offset="87.7142547%"></stop><stop stop-color="#1D9486" offset="100%"></stop></linearGradient><linearGradient x1="81.6206161%" y1="4.94908958%" x2="11.3745913%" y2="98.6543237%" id="linearGradient-2"><stop stop-color="#A4FFE0" offset="0%"></stop><stop stop-color="#86DDC0" offset="100%"></stop></linearGradient><linearGradient x1="120.254679%" y1="-76.5743707%" x2="16.6335299%" y2="100%" id="linearGradient-3"><stop stop-color="#3BBDA8" offset="0%"></stop><stop stop-color="#188092" offset="100%"></stop></linearGradient><linearGradient x1="100%" y1="50%" x2="-92.4681144%" y2="-26.0906903%" id="linearGradient-4"><stop stop-color="#7ECC79" offset="0%"></stop><stop stop-color="#33BAAA" offset="100%"></stop></linearGradient><linearGradient x1="56.102466%" y1="-5.05869454%" x2="-84.9327428%" y2="358.171312%" id="linearGradient-5"><stop stop-color="#7ECC79" offset="0%"></stop><stop stop-color="#1D9486" offset="100%"></stop></linearGradient><linearGradient x1="56.102466%" y1="-5.05869454%" x2="70.5710317%" y2="113.767529%" id="linearGradient-6"><stop stop-color="#7ECC79" offset="0%"></stop><stop stop-color="#1D9486" offset="100%"></stop></linearGradient><linearGradient x1="0%" y1="14.1008258%" x2="74.5877733%" y2="92.7057094%" id="linearGradient-7"><stop stop-color="#55BD99" offset="0%"></stop><stop stop-color="#76D1B2" offset="19.5621344%"></stop><stop stop-color="#A2F5D9" offset="100%"></stop></linearGradient><linearGradient x1="137.231375%" y1="-72.2491037%" x2="11.3745913%" y2="98.6543237%" id="linearGradient-8"><stop stop-color="#C9FFEC" offset="0%"></stop><stop stop-color="#86DDC0" offset="100%"></stop></linearGradient><linearGradient x1="81.6206161%" y1="4.94908958%" x2="11.3745913%" y2="98.6543237%" id="linearGradient-9"><stop stop-color="#56B594" offset="0%"></stop><stop stop-color="#71CDAE" offset="23.0488411%"></stop><stop stop-color="#86DDC0" offset="100%"></stop></linearGradient><linearGradient x1="50%" y1="10.3599886%" x2="50%" y2="90.9244751%" id="linearGradient-10"><stop stop-color="#459387" offset="0%"></stop><stop stop-color="#4A9797" stop-opacity="0" offset="100%"></stop></linearGradient><linearGradient x1="138.67843%" y1="-81.0590558%" x2="11.3745913%" y2="98.6543237%" id="linearGradient-11"><stop stop-color="#A3F0D6" offset="0%"></stop><stop stop-color="#A9F8DD" offset="100%"></stop></linearGradient><linearGradient x1="138.67843%" y1="-81.0590558%" x2="11.3745913%" y2="98.6543237%" id="linearGradient-12"><stop stop-color="#93E3C7" offset="0%"></stop><stop stop-color="#95E9CC" offset="100%"></stop></linearGradient></defs><g id="Pages" stroke="none" stroke-width="1" fill="none" fill-rule="evenodd"><g id="Services" transform="translate(-71.000000, -2230.000000)"><g id="Acquisition" transform="translate(0.000000, 1918.000000)"><g id="invision-illustration" transform="translate(71.000000, 312.000000)"><polyline id="Path-108-Copy" stroke="#3FBDA1" stroke-width="0.9" points="90 372.493825 90 278.848492 132.349706 226.451129 159.90756 259.303613 180.82298 259.303613 180.82298 226.799788 236.569084 209.668968 236.569084 174 283.239602 174"></polyline><path d="M126,275 L133,275 L133,282 L126,282 L126,275 Z M134,275 L141,275 L141,282 L134,282 L134,275 Z M126,284 L133,284 L133,291 L126,291 L126,284 Z M134,284 L141,284 L141,291 L134,291 L134,284 Z" id="Combined-Shape" stroke="#3FBDA1" stroke-width="0.9"></path><path d="M55,372 L677,372 M691,372 L729,372" id="Path-107-Copy" stroke="#3FBDA1" stroke-width="0.9"></path><g id="Group-35" transform="translate(413.000000, 138.000000)" stroke="#3FBDA1" stroke-width="0.9"><path d="M185,121 L198,121 L198,134 L185,134 L185,121 Z M202,121 L215,121 L215,134 L202,134 L202,121 Z M185,140 L198,140 L198,153 L185,153 L185,140 Z M202,140 L215,140 L215,153 L202,153 L202,140 Z" id="Combined-Shape-Copy-2"></path><polyline id="Path-50" points="0.389531555 0.665728974 95.8861611 38.8132306 95.8861611 140.391299 124.714221 140.391299 124.714221 39.3149449 150.683126 39.3149449 150.683126 96.6691934 164.027205 87.4775463 164.027205 70.3518254 205.212348 70.3518254 283.469466 156.768369 283.469466 234.390267"></polyline></g><g id="Group-26" transform="translate(153.000000, 170.000000)"><path d="M9.04578096,0 L254.358963,3.55271368e-15 C259.214739,2.66072211e-15 263.368744,3.48828723 264.208344,8.27092584 L295.608292,187.135463 C296.085763,189.855294 294.26797,192.44722 291.548139,192.92469 C291.262687,192.974802 290.973418,193 290.683601,193 L40.6070444,193 C35.7512685,193 31.5972633,189.511713 30.7576636,184.729074 L0.181338225,10.5561667 C-0.678108934,5.6604702 2.59391768,0.99500442 7.48961422,0.135557261 C8.00342748,0.0453565433 8.52411035,1.07539704e-14 9.04578096,1.0658141e-14 Z" id="Rectangle-11-Copy" fill="url(#linearGradient-1)" fill-rule="nonzero"></path><polygon id="Rectangle-11" fill="#0D6574" points="8.9830036 10.2530876 255.701444 10.2530876 285.983004 182.746912 39.2645634 182.746912"></polygon><path d="M104,50 C102.895431,50 102,49.1045695 102,48 C102,46.8954305 102.895431,46 104,46 L188.084307,46 C189.188876,46 190.084307,46.8954305 190.084307,48 C190.084307,49.1045695 189.188876,50 188.084307,50 L104,50 Z M108,65 C106.895431,65 106,64.1045695 106,63 C106,61.8954305 106.895431,61 108,61 L192.084307,61 C193.188876,61 194.084307,61.8954305 194.084307,63 C194.084307,64.1045695 193.188876,65 192.084307,65 L108,65 Z M100,36 C98.8954305,36 98,35.1045695 98,34 C98,32.8954305 98.8954305,32 100,32 L184.084307,32 C185.188876,32 186.084307,32.8954305 186.084307,34 C186.084307,35.1045695 185.188876,36 184.084307,36 L100,36 Z" id="Combined-Shape" fill="url(#linearGradient-2)" fill-rule="nonzero" opacity="0.300000012"></path><rect id="Rectangle-12-Copy" fill="url(#linearGradient-3)" x="234" y="189" width="277" height="13" rx="6.5"></rect><path d="M366.061894,189 L413.938106,189 C413.446008,192.946312 410.079618,196 406,196 L374,196 C369.920382,196 366.553992,192.946312 366.061894,189 Z" id="Combined-Shape" fill="url(#linearGradient-4)" opacity="0.639322917"></path><rect id="Rectangle-12" fill="url(#linearGradient-4)" x="32" y="189" width="238" height="13" rx="6.5"></rect><circle id="Oval-10" fill="#0D6574" opacity="0.5" cx="40.5" cy="195.5" r="2.5"></circle><g id="Group-25" transform="translate(50.000000, 194.000000)" fill="#0D6574" opacity="0.5"><rect id="Rectangle-13" x="0" y="0" width="10" height="4"></rect><rect id="Rectangle-13-Copy" x="0" y="2" width="10" height="2"></rect></g><g id="Group-25-Copy" transform="translate(63.000000, 194.000000)" fill="#0D6574" opacity="0.5"><rect id="Rectangle-13" x="0" y="0" width="10" height="4"></rect><rect id="Rectangle-13-Copy" x="0" y="2" width="10" height="2"></rect></g><g id="Group-25-Copy-2" transform="translate(83.000000, 194.000000)" fill="#0D6574" opacity="0.5"><rect id="Rectangle-13" x="0" y="0" width="19" height="4" rx="2"></rect></g></g><g id="Group-40" opacity="0.800000012" transform="translate(193.000000, 197.000000)" fill-rule="nonzero"><path d="M44.4781565,19.793311 C42.1099821,8.99716965 31.5449219,0.372881356 20.625,0.372881356 L20.625,7.08474576 C28.3446884,7.08474576 36.1858129,13.4854777 37.8832077,21.2236381 L44.4781565,19.793311 Z" id="Oval-22" fill="url(#linearGradient-2)"></path><path d="M17.625,3.3559322 C6.12747826,3.3559322 -1.35357327,12.8698388 1.13320766,24.206689 C3.5013821,35.0028303 14.0664423,43.6271186 24.9863642,43.6271186 C36.4838859,43.6271186 43.9649374,34.113212 41.4781565,22.7763619 L34.8832077,24.206689 C36.4619959,31.4041406 32.1284527,36.9152542 24.9863642,36.9152542 C17.2666758,36.9152542 9.42555125,30.5145223 7.72815651,22.7763619 C6.14936828,15.5789102 10.4829114,10.0677966 17.625,10.0677966 L17.625,3.3559322 Z" id="Oval-22-Copy" fill="url(#linearGradient-1)"></path></g><g id="Group-39" transform="translate(515.000000, 176.000000)"><g id="Group-38" transform="translate(61.000000, 161.000000)"><rect id="Rectangle-17" fill="url(#linearGradient-5)" x="0" y="0" width="54" height="22"></rect><rect id="Rectangle-17-Copy" fill="url(#linearGradient-6)" x="40" y="0" width="14" height="22"></rect></g><g id="Group-37"><path d="M52.3692792,47.6107207 C36.32675,40.8696102 12.7248457,43.7017857 3.43572531,70.0145416 C-2.21951395,86.0338118 1.05353353,100.603563 16.8925794,110.794458 L18.8489037,108.258417 C6.37303615,95.3807129 14.7388935,78.4636812 22.6822851,78.3306544 C29.8779615,80.6930912 33.4892429,93.3357866 33.5161291,116.25874 C38.3178559,118.300392 41.946549,119.321218 44.4022085,119.321218 C46.8578681,119.321218 50.469194,118.300392 55.2361864,116.25874 C62.8458361,100.397495 65.8006406,85.8518253 64.1006,72.6217319 C71.4464542,80.2113804 79.7849464,82.4368864 83.0151114,80.2826851 C91.1790626,74.8381353 89.2128004,62.3042419 77.1163249,42.6810048 L74.7003881,44.7995866 C77.3260249,59.1792677 78.1313372,66.1654636 77.1163249,65.7581743 C75.5938066,65.1472404 70.3046292,53.8958454 52.3692792,47.6107207 Z" id="Path-61" fill="#6AC264"></path><path d="M48.2052836,56.2621703 C52.3874093,62.6875753 53.1005873,72.4027832 50.3448176,85.4077939 C56.4759942,86.0353678 60.1541332,86.3491548 61.3792347,86.3491548 C63.7529043,64.5411011 61.5572457,52.0913829 54.7922592,49 C49.476872,51.29827 47.2812135,53.7189934 48.2052836,56.2621703 Z" id="Path-121" fill="url(#linearGradient-7)"></path><path d="M25.6855033,42 C21.1604996,44.1388982 20.5373487,47.4729254 23.8160507,52.0020817 C28.7341037,58.795816 40.7149284,62.0285031 50.36055,57.0152924 C60.0061716,52.0020817 55.0542029,42 52.7073765,42 C51.1428255,42 42.1355344,42 25.6855033,42 Z" id="Path-116" fill="url(#linearGradient-8)"></path><path d="M71.0199738,38 C70.8761711,41.2613884 71.5088563,43.5586241 72.9180292,44.8917073 C74.3272022,46.2247905 75.1139968,47.5472859 75.2784131,48.8591934 L80.4166641,48.2249023 L78.8987537,41.9235088 L71.0199738,38 Z" id="Path-110" fill="#FFCC9E"></path><g id="Group-33" transform="translate(77.213780, 25.556048) scale(-1, 1) rotate(23.000000) translate(-77.213780, -25.556048) translate(56.213780, 7.556048)"><ellipse id="Oval-20" fill="url(#linearGradient-9)" cx="7.20930233" cy="18.0530973" rx="7.20930233" ry="7.22123894"></ellipse><path d="M29.138671,22.9466479 L24.679964,34.7643751 C26.2385647,35.6160231 27.114062,35.9275755 27.3064558,35.6990324 C27.4988497,35.4704893 29.8099905,31.2196944 34.2398782,22.9466479 L29.4599211,22.9466479 L29.138671,22.9466479 Z" id="Path-44" fill="#7ECC79"></path><path d="M27.4679286,26.4778761 L24.9249314,28.8539444 C24.2399929,31.151994 23.9486625,32.3136589 24.0509401,32.3389392 C24.1532177,32.3642196 25.1121187,32.767972 26.9276432,33.5501965 L28.9820333,27.7006373 L27.4679286,26.4778761 Z" id="Path-45" fill="#FFCC9E"></path><path d="M31.4792325,26.5715433 L29.5178564,27.1992912 C28.5401181,27.5454339 28.0454613,27.7356519 28.033886,27.7699452 C28.0223107,27.8042385 28.2553183,28.3891897 28.7329089,29.5247988 L30.6266514,28.897619 L30.6266514,30.8540052 L32.0112272,30.4411402 L32.0112272,27.035679 L31.4792325,26.5715433 Z" id="Path-46" fill="#FFCC9E"></path><path d="M27.6193856,23.5006986 L9.69916447,33.699115 L9.69916447,1.85829483 L27.6173255,12.1240801 L35.3273063,12.1240801 C38.4636798,12.1240801 41.0062129,14.6708229 41.0062129,17.8123894 C41.0062129,20.9539558 38.4636798,23.5006986 35.3273063,23.5006986 L27.6193856,23.5006986 Z" id="Combined-Shape" fill="#0D6574"></path><rect id="Rectangle-16" fill="#64B35F" x="4.80620155" y="0" width="6.00775194" height="34.9026549" rx="3.00387597"></rect></g><g id="Group-36" transform="translate(40.275361, 31.182800) rotate(-14.000000) translate(-40.275361, -31.182800) translate(20.775361, 13.182800)"><ellipse id="Oval-21" fill="#FFCC9E" cx="19.5" cy="21.8918919" rx="12.5" ry="14.1081081"></ellipse><path d="M7.07762048,22.4959207 C9.90879238,23.2971912 11.7396269,23.2971912 12.5701242,22.4959207 C14.0502268,21.0679056 13.820819,14.2064319 15.2195915,16.0272037 C19.0836903,21.0570725 25.4451826,13.1840581 29.4800263,16.0272037 C33.51487,18.8703494 33.6492737,19.5804921 37.4497761,14.015328 C41.2502784,8.4501639 35.9463535,-0.817246432 28.0935698,0.216348775 C23.0855595,0.875510636 17.3357193,5.85613129 14.5849175,4.34382822 C8.36762024,0.925756442 1.4201344,0.431309359 2.67509986,7.7619 C3.93006532,15.0924906 0.681506623,16.52623 0.681506623,23.4681296 C0.681506623,30.4100292 3.62511801,34.3096639 10.4125524,32.1011575 C14.9375087,30.6288199 13.8258647,27.4270743 7.07762048,22.4959207 Z" id="Path-60" fill="#0B4651"></path></g><path d="M16.5713689,110.478516 C17.487423,111.09247 17.8921285,111.916179 17.7854854,112.949641 C17.6255208,114.499835 21.9559202,116.050029 23.8298278,114.499835 C25.0790996,113.466373 26.2590702,112.903171 27.3697395,112.810231 C27.4641035,110.610008 26.5088572,109.369781 24.5040006,109.089548 C22.499144,108.809316 20.5581219,108.515458 18.6809342,108.207976 L16.5713689,110.478516 Z" id="Path-109" fill="#FFCC9E"></path><path d="M33.6528767,115.480452 C29.8379105,128.070636 38.1874469,128.47627 38.8720289,149.216318 C37.7146044,160.547295 38.2379926,162.103028 31.3250281,182.88309 C34.9222673,183.014071 39.923509,183.014071 46.3287532,182.88309 L37.1084956,179.336488 C44.2660084,149.524101 47.3394276,131.05504 46.3287532,123.929305 C56.7286708,131.090947 67.3825159,125.207696 72.6506861,136.147198 C70.5317081,142.743801 70.532287,146.173916 64.2558593,161.15544 C68.3344143,161.15544 73.6029332,161.15544 80.0614162,161.15544 L68.5825444,156.960515 L78.3757268,134.209915 L55.6932222,115.480452 C48.7411615,117.851858 41.3943796,117.851858 33.6528767,115.480452 Z" id="Path-113" fill="#0B4651"></path></g></g><g id="Group-34" transform="translate(642.294377, 176.215222) scale(-1, 1) rotate(26.000000) translate(-642.294377, -176.215222) translate(620.294377, 152.215222)" stroke-linecap="round" stroke-linejoin="round" stroke-width="2.4"><path d="M4.80620155,0 L40.2339215,9.77953723" id="Path-47" stroke="#77CA80"></path><path d="M0,27.6814159 L9.64913985,27.6814159" id="Path-48-Copy" stroke="#0D6574"></path><path d="M18.0232558,27.6814159 L42.0910003,27.6814159" id="Path-48" stroke="#77CA80"></path><path d="M43.5724876,40.7855257 L26.7617045,47.1938198" id="Path-49" stroke="#0D6574"></path></g><path d="M32.6864576,193.376218 C42.1468635,187.106977 41.2804525,183.252802 47.1484866,182.264682 C53.0165207,181.276562 54.5961759,186.079945 63.5689691,184.150891 C72.5417624,182.221837 72.3915528,158.61669 98.3279824,159.004731 C124.264412,159.392773 123.278571,189.322392 131.189095,189.322392 C139.09962,189.322392 138.72504,182.264682 150.584698,182.264682 C162.444355,182.264682 167.71726,203 192.914654,203 L0,203 C15.4840345,200.76364 26.3795203,197.555712 32.6864576,193.376218 Z" id="Path-72-Copy" fill="#33BAAA" opacity="0.200000003"></path><g id="Group-31" transform="translate(61.000000, 75.000000)"><path d="M101.573265,148.920426 C102.592985,121.528125 103.707127,107.796813 104.915692,107.72649 C135.751448,105.93225 140.146847,100.651016 146.038426,94.8892581 C135.355921,94.7874254 117.471453,95.5976124 92.3850205,97.3198191 L101.573265,148.920426 Z" id="Path-38" fill="#063F49" opacity="0.472316576"></path><g id="Group-30"><path d="M100.089745,35.8927182 C100.664793,38.6688029 101.018684,40.8029119 101.151417,42.2950453 C101.28415,43.7871786 104.594283,48.0282711 111.081817,55.0183226 L125.029625,43.558296 L128.237152,55.0183226 C118.873412,60.2757022 112.357016,63.1852643 108.687964,63.7470089 C105.576468,64.2233899 101.987938,58.4058095 97.9223745,46.2942677 C97.7982736,45.9245643 98.1221847,44.9365238 97.499506,45.0038714 C93.3889857,45.4484563 92.7861079,43.5061992 95.6908727,39.1771002 L100.089745,35.8927182 Z" id="Path-39" fill="#FFD7B3"></path><path d="M125.98649,17.5108499 C126.064752,9.74876992 132.167894,12.0080797 133.408332,13.0289198 C138.729046,17.4076936 135.621392,24.3098955 140.186351,24.4328328 C146.41731,24.6006365 157.439531,33.0790001 152.855897,35.3368364 C139.008014,42.1581173 152.705002,45.1048252 150.61253,51.1596274 C149.859388,53.3389277 138.588711,44.2172752 136.943278,42.2445958 C136.356179,41.5407335 146.550954,37.9428621 134.913615,26.355962 C132.848979,24.3002757 130.876232,29.2178095 130.264049,25.5536429 L125.98649,17.5108499 Z" id="Path-105" fill="#0B4651" transform="translate(139.964155, 31.706992) rotate(20.000000) translate(-139.964155, -31.706992) "></path><path d="M67.4177073,122.621177 L62.9413371,124.805112 C54.9872729,131.272724 51.7909149,136.972442 52.8340452,137.022403 C54.0526665,137.080768 57.2024234,136.32693 60.9273379,132.923968 C64.6522524,129.521005 66.3542319,126.256827 66.6334232,126.375584 C67.4840743,126.737419 68.1813727,127.945238 68.7253182,129.999043 C68.9453431,129.815906 69.2617855,129.703025 69.6746454,129.6604 C69.4114809,127.723105 68.6591683,125.376698 67.4177073,122.621177 Z" id="Path-103-Copy" fill="#0B4651" transform="translate(61.158574, 129.823323) rotate(67.000000) translate(-61.158574, -129.823323) "></path><path d="M78.7087361,95.4846776 C73.1527245,110.507411 68.9857159,121.77446 66.2077101,129.285827 C66.052966,129.704235 57.9401569,125.619785 57.6920487,126.290638 C57.550879,126.672342 67.0530679,132.447569 70.359581,132.891035 C73.1506217,127.654373 81.2153716,115.182222 87.3044589,105.031436 C88.0859328,103.728684 90.3024482,104.031538 93.954005,105.94 C94.2312418,105.753319 96.858585,100.746271 97.1980742,100.501771 C101.58871,97.3396361 111.308951,89.0984848 103.635172,87.5701181 C99.9093336,86.8280525 81.6318868,94.5307614 78.7087361,95.4846776 Z" id="Path-98" fill="#F4C1A7"></path><path d="M100.641146,135.491839 L95.6441762,136.48704 C87.9367642,143.654797 83.3900725,147.697562 85.2544131,148.013935 C86.5106103,148.227108 88.5208804,148.512658 89.5381298,148.013935 C95.9670564,144.86205 99.0792973,139.325477 99.2266596,139.571898 C99.6635807,140.302522 100.44293,141.883073 101.564709,144.313551 C101.784734,144.130415 102.058053,144.011377 102.384666,143.956437 C101.755207,140.954855 101.174034,138.133322 100.641146,135.491839 Z" id="Path-103" fill="#0B4651"></path><path d="M130.462475,95.9426349 C126.265189,95.9426349 115.759563,97.8573774 98.9455992,101.686862 L100.72742,135.569396 C94.3224719,141.008875 90.7648341,143.554564 90.0545064,143.206464 C89.3441787,142.858363 91.2214466,140.507973 95.6863101,136.155292 L87.2843771,91.9282458 L127.404892,74.2497599 C133.640567,88.7116766 134.659761,95.9426349 130.462475,95.9426349 Z" id="Path-97" fill="#FFD7B3"></path><path d="M126.018848,74.2047896 C114.173471,77.654298 103.593073,83.6018358 96.0324837,87.5624744 C96.0324837,92.6716545 97.5340045,96.4387635 102.621649,100.955455 C119.716769,98.1993683 131.282828,95.9616535 132.361671,95.9616535 C133.979936,95.9616535 142.867248,94.2967144 138.938233,83.310751 C136.318889,75.9867754 131.63952,72.7268108 126.018848,74.2047896 Z" id="Path-101" fill="#6AC264"></path><path d="M125.503895,37.1254144 C122.562599,37.4962654 114.651934,46.1331908 117.263173,52.8304677 C119.400376,58.311943 124.487222,59.127922 124.556801,62.2102438 C124.704494,68.7530706 123.829392,70.3566896 120.775919,76.2444892 C120.541293,76.6969032 121.703004,91.2641403 139.070967,91.9248646 C141.753418,87.5039449 148.803763,70.4356729 142.243161,49.1997269 C137.601465,34.1750668 129.750664,36.5899636 125.503895,37.1254144 Z" id="Path-96" fill="#6AC264"></path><g id="Group-32" transform="translate(99.093023, 1.328351)"><path d="M18.4822347,11.1884741 C13.0529447,12.9562436 10.0817076,18.7998102 11.8457908,24.2404453 L13.4452102,29.1732383 C15.2092935,34.6138734 21.0406747,37.5913193 26.4699647,35.8235498 C31.8992547,34.0557803 34.8704918,28.2122137 33.1064085,22.7715785 L31.5069891,17.8387856 C29.7429059,12.3981504 23.9115247,9.42070455 18.4822347,11.1884741 Z" id="Rectangle-13" fill="#FFD7B3" transform="translate(22.476100, 23.506012) rotate(20.000000) translate(-22.476100, -23.506012) "></path><path d="M25.6700314,23.4822707 L25.6700314,23.4822707 C27.8107914,23.4822707 29.5462202,25.2176996 29.5462202,27.3584596 L29.5462202,37.0247685 C29.5462202,39.1655285 27.8107914,40.9009574 25.6700314,40.9009574 L25.6700314,40.9009574 C23.5292714,40.9009574 21.7938425,39.1655285 21.7938425,37.0247685 L21.7938425,27.3584596 C21.7938425,25.2176996 23.5292714,23.4822707 25.6700314,23.4822707 Z" id="Rectangle-13-Copy" fill="#FFD7B3" transform="translate(25.670031, 32.191614) scale(-1, 1) rotate(35.000000) translate(-25.670031, -32.191614) "></path><path d="M37.5255934,16.6089656 C38.1201831,12.99718 36.6947264,11.2929605 33.2492233,11.4963072 C29.8037203,11.6996538 31.229177,13.4038733 37.5255934,16.6089656 Z" id="Path-106" fill="#7ECC79" transform="translate(34.539090, 14.044508) rotate(20.000000) translate(-34.539090, -14.044508) "></path><path d="M35.5832286,26.9885923 C32.3914493,27.2812379 29.9499101,26.798843 29.1042175,25.2983774 C27.8356786,23.0476791 27.1807586,17.9193726 24.570912,16.5820964 C23.4367152,16.000938 19.4612833,23.2191836 15.3692997,21.6134954 C9.34395495,19.2491591 10.2749258,25.8623995 4.85327996,19.7546268 C0.216099416,14.530596 3.54712442,9.35620194 7.51482249,9.89251077 C12.548749,10.5729404 14.0758186,12.0741719 18.3076521,8.5334844 C22.2512088,5.23399214 27.3775454,4.32997634 33.593436,9.78717112 C37.737363,13.425301 38.6824961,19.078098 35.5832286,26.9885923 Z" id="Path-104" fill="#0B4651" transform="translate(20.006562, 16.472579) rotate(20.000000) translate(-20.006562, -16.472579) "></path><ellipse id="Oval-19" fill="#FFD7B3" cx="26.8372093" cy="23.9103245" rx="2.65116279" ry="2.65670272"></ellipse></g><g id="Group-33" transform="translate(64.953488, 7.970108)"><ellipse id="Oval-20" fill="url(#linearGradient-9)" cx="7.95348837" cy="19.9252704" rx="7.95348837" ry="7.97010816"></ellipse><path d="M32.1465338,25.3263002 L27.2275732,38.3695696 C28.9470617,39.3095366 29.9129329,39.6533981 30.1251868,39.4011543 C30.3374406,39.1489104 32.8871508,34.4572924 37.7743173,25.3263002 L32.5009452,25.3263002 L32.1465338,25.3263002 Z" id="Path-44" fill="#7ECC79"></path><path d="M34.7287016,29.3271107 L32.5648609,30.0199584 C31.4861948,30.4019974 30.9404767,30.6119417 30.9277065,30.6497914 C30.9149363,30.6876411 31.1719963,31.3332538 31.6988866,32.5866297 L33.7881121,31.8944091 L33.7881121,34.0536798 L35.3156119,33.5979992 L35.3156119,29.8393791 L34.7287016,29.3271107 Z" id="Path-46" fill="#FFD7B3"></path><path d="M30.4704189,25.9378081 L10.7003685,37.1938381 L10.7003685,2.05100688 L30.4681462,13.3813921 L38.973996,13.3813921 C42.4341242,13.3813921 45.2391123,16.1922416 45.2391123,19.6596001 C45.2391123,23.1269587 42.4341242,25.9378081 38.973996,25.9378081 L30.4704189,25.9378081 Z" id="Combined-Shape" fill="#0D6574"></path><path d="M8.61627907,0 L8.61627907,0 C10.446525,-3.36210731e-16 11.9302326,1.48370752 11.9302326,3.31395349 L11.9302326,35.208236 C11.9302326,37.0384819 10.446525,38.5221894 8.61627907,38.5221894 L8.61627907,38.5221894 C6.7860331,38.5221894 5.30232558,37.0384819 5.30232558,35.208236 L5.30232558,3.31395349 C5.30232558,1.48370752 6.7860331,3.36210731e-16 8.61627907,0 Z" id="Rectangle-16" fill="#64B35F"></path></g><g id="Group-34" stroke-linecap="round" stroke-linejoin="round" stroke-width="2.64"><path d="M5.30232558,0 L44.3871004,10.7937115" id="Path-47" stroke="#77CA80"></path><path d="M0,30.5520813 L10.6451801,30.5520813" id="Path-48-Copy" stroke="#0D6574"></path><path d="M19.8837209,30.5520813 L46.4358778,30.5520813" id="Path-48" stroke="#77CA80"></path><path d="M48.0702928,45.0151357 L29.5242031,52.0879937 M22.0550303,54.9364862 L2.500487,62.3939346" id="Path-49" stroke="#0D6574"></path></g><path d="M161.325455,45.1137366 C163.443538,43.8355949 165.490098,43.5160595 167.465134,44.1551303 C169.440171,44.7942011 170.287265,46.6309808 170.006418,49.6654692 L147.296547,94.8551433 L128.581395,94.8551433 L141.752712,92.3923131 L161.325455,45.1137366 Z" id="Path-36" fill="#FFD7B3" transform="translate(149.320130, 69.345369) scale(-1, 1) translate(-149.320130, -69.345369) "></path><path d="M95.2568161,37.1938381 L92.451316,39.8163135 C91.6956741,42.3526793 91.3742709,43.6348132 91.4871062,43.6627152 C91.5999414,43.6906172 92.6578258,44.1362402 94.6607593,44.9995843 L96.9272154,38.5434041 L95.2568161,37.1938381 Z" id="Path-45" fill="#FFD7B3"></path></g></g><path d="" id="Path-100" stroke="#979797" stroke-width="0.9" transform="translate(115.826692, 119.254951) scale(-1, 1) translate(-115.826692, -119.254951) "></path><g id="Group-29" transform="translate(215.000000, 0.000000)"><polygon id="Path-32" fill="#063F49" opacity="0.439368207" points="101.313412 170.295063 105.778629 291.986239 121.353659 170.295063"></polygon><g id="Group-28"><path d="M180.243363,270.670677 L199.161378,317.086067 L32.0878632,317.086067 L0,242.28169 L138.016108,242.28169 C156.553821,242.28169 173.24659,253.504083 180.243363,270.670677 Z" id="Rectangle-15-Copy-2" fill="url(#linearGradient-10)" transform="translate(99.580689, 279.683879) scale(-1, -1) translate(-99.580689, -279.683879) "></path><path d="M188.740527,0 L279.555522,0 L243.368151,280.592007 C240.744016,300.939197 223.41899,316.173337 202.903283,316.173337 L58,316.173337 L58,316.173337 C81.6895595,316.173337 101.694829,298.582421 104.724927,275.087448 L133.993942,48.139446 C137.544242,20.6108955 160.983983,1.22042218e-14 188.740527,7.10542736e-15 Z" id="Rectangle-15" fill="url(#linearGradient-9)"></path><path d="M186,0 L320.027451,-1.42108547e-14 C341.487015,-1.81529127e-14 360.042699,14.9625585 364.59132,35.9345143 L373.021829,74.8043773 L245.200423,74.8043773 L237.263982,40.7032284 C231.716652,16.8675614 210.472677,-4.49555775e-15 186,0 Z" id="Rectangle-15-Copy-3" fill="#C4FBE8"></path></g></g><path d="M566.686458,114.376218 C576.146864,108.106977 575.280453,104.252802 581.148487,103.264682 C587.016521,102.276562 588.596176,107.079945 597.568969,105.150891 C606.541762,103.221837 606.391553,79.6166898 632.327982,80.0047313 C658.264412,80.3927728 657.278571,110.322392 665.189095,110.322392 C673.09962,110.322392 672.72504,103.264682 684.584698,103.264682 C696.444355,103.264682 701.71726,124 726.914654,124 L534,124 C549.484034,121.76364 560.37952,118.555712 566.686458,114.376218 Z" id="Path-72" fill="#33BAAA" opacity="0.200000003"></path><g id="Group-41" transform="translate(397.000000, 339.000000)"><polygon id="Path-127" fill="#0D6574" points="32 90.4116354 95.8830515 31 33.6600848 57.7219584"></polygon><polygon id="Path-126" fill="url(#linearGradient-1)" points="27.8530834 55.0373828 31.9852128 90.5216769 40.8371168 66.0088255 114.101881 18.2739727 110.053935 10.37274"></polygon><polygon id="Path-125" fill="url(#linearGradient-11)" points="0.251167129 27.7301581 28.1636706 55.1233348 109.720594 15.3781853 40.8287725 66.0014084 73.9478237 97.076358 131.847955 0.617645088"></polygon></g><g id="Group-41-Copy" transform="translate(264.500000, 94.500000) scale(-1, 1) translate(-264.500000, -94.500000) translate(238.000000, 75.000000)"><polygon id="Path-127" fill="#0D6574" points="12.8484848 35.9801406 38.4984979 12.3367347 13.515034 22.9709835"></polygon><polygon id="Path-126" fill="url(#linearGradient-1)" points="11.183435 21.9026319 12.8425476 36.0239326 16.3967211 26.2688183 45.813634 7.27229527 44.1883223 4.12792714"></polygon><polygon id="Path-125" fill="url(#linearGradient-12)" points="0.100847408 11.0354711 11.3081405 21.9368373 44.0544809 6.11989008 16.3933708 26.2658666 29.6911717 38.6324282 52.9389518 0.245797535"></polygon></g><g id="Group-27" transform="translate(114.000000, 276.000000)"><path d="M56.6526594,5.63429593 C59.2861155,10.6626382 60.9398707,16.0786133 61.613925,21.8822211 C62.6250065,30.587633 69.6804111,23.0947412 70.5203865,31.0212314 C71.3603619,38.9477216 66.2420789,37.9995463 68.3096875,47.8885802 C82.1399399,41.87875 86.5345468,47.3659609 81.493508,64.350213 L127.063846,36.5443926 C127.466638,50.2153976 123.86917,56.7690654 116.271443,56.2053958 C104.874852,55.3598915 118.105537,84.3200967 101.093182,80.5011981 C89.7516128,77.9552657 84.9477223,83.0851659 86.6815108,95.8908986 L72.9719404,95.8908986 L56.6526594,5.63429593 Z" id="Path-30" fill="#063F49" opacity="0.472316576"></path><g id="Group-21"><g id="Group-19" transform="translate(42.250267, 33.724189)"><path d="M4.37182041,52.0207008 C25.336183,22.9928721 47.4215224,9.02481473 70.6278387,10.1165287 C77.0264717,10.4175448 83.738133,11.0364921 90.7628224,11.9733706 C88.692628,30.5245357 64.24175,20.1644432 66.0968606,25.8040023 C68.658206,33.5905241 63.2959012,49.4329894 47.5821928,40.0863331 C31.8684843,30.7396769 36.9178327,62.8444553 20.6448266,57.432578 C9.7961558,53.8246599 4.37182041,52.0207008 4.37182041,52.0207008 Z" id="Path-31" fill="#33BAAA" transform="translate(47.567321, 34.054444) rotate(-13.000000) translate(-47.567321, -34.054444) "></path><path d="M41.15957,16.0496439 C41.4810741,16.865044 41.7635861,17.8929754 41.9974069,19.1731122 C43.5767383,27.8197341 33.046658,41.882313 10.407166,61.3608491 L9.52044663,61.2771003 C18.2849581,40.4652094 28.8313325,25.3893905 41.15957,16.0496439 Z" id="Combined-Shape" fill="#1C9486"></path><path d="M58.4689886,28.6606173 C50.0540661,24.5466133 40.6868631,24.8935011 30.3673797,29.7012808" id="Path-33" stroke="#0D6574" stroke-width="1.584"></path><path d="M75.6331597,13.0501538 C67.2182372,8.93614981 57.8510342,9.28303766 47.5315508,14.0908174" id="Path-33-Copy" stroke="#0D6574" stroke-width="1.584"></path><path d="M51.0111568,11.3462152 C31.9474408,25.9551608 20.345462,42.4700476 16.2052205,60.8908757" id="Path-34" stroke="#0D6574" stroke-width="1.584"></path></g><g id="Group-7-Copy-4" transform="translate(47.242781, 51.000000) scale(-1, 1) translate(-47.242781, -51.000000) translate(0.742781, 0.000000)"><path d="M5.34209158,69.4537654 C13.6346942,45.6008317 21.3781447,32.3072293 28.5724432,29.5729583 C39.363891,25.4715519 35.1703058,44.4925387 39.9592393,40.9863388 C44.7481727,37.4801389 49.2937785,22.2084444 57.9520898,22.2084444 C66.610401,22.2084444 58.1309353,36.5485458 63.3907135,33.1763659 C68.6504917,29.8041859 79.3920298,15.3838668 86.7177418,25.4715519 C94.0434538,35.559237 74.1835779,40.6700152 73.4769488,44.9738824 C72.7703196,49.2777496 82.6940363,47.531892 80.9113876,54.0100565 C79.1287389,60.488221 61.1189128,61.6868538 57.9520898,65.4440779 C54.7852667,69.2013019 71.6860654,68.57776 61.3259588,77.379679 C54.4192212,83.247625 35.7579321,80.6056538 5.34209158,69.4537654 Z M54.3439997,41.9578821 C56.8208586,35.6675306 57.4400733,32.4753751 56.2016439,32.3814157 C54.9632144,32.2874563 54.3439997,35.4796118 54.3439997,41.9578821 Z" id="Combined-Shape" fill="#33BAAA" transform="translate(46.839727, 51.179825) rotate(-60.000000) translate(-46.839727, -51.179825) "></path><path d="M5.17890742,72.7254121 C38.4297596,65.0620787 63.6662166,51.2935262 80.8882785,31.4197546" id="Path-117" stroke="#0D6574" stroke-width="1.584" transform="translate(43.033593, 52.072583) rotate(-60.000000) translate(-43.033593, -52.072583) "></path><path d="M37.0521032,80.8028064 C40.0422443,76.228921 41.4839551,69.0392336 41.3772358,59.233744" id="Path-118" stroke="#0D6574" stroke-width="1.584" transform="translate(39.217428, 70.018275) rotate(-60.000000) translate(-39.217428, -70.018275) "></path><path d="M47.4223069,36.748611 C56.2200177,36.266286 62.1937826,37.7729953 65.3436018,41.2687388" id="Path-119" stroke="#0D6574" stroke-width="1.584" transform="translate(56.382954, 38.964815) rotate(-60.000000) translate(-56.382954, -38.964815) "></path><path d="M43.6516365,21.6815153 L43.819693,14.5556963" id="Path-120" stroke="#0D6574" stroke-width="1.584" transform="translate(43.735665, 18.118606) rotate(-60.000000) translate(-43.735665, -18.118606) "></path></g></g></g><path d="" id="Path-112" stroke="#979797"></path><path d="" id="Path-124" stroke="#979797"></path><path d="" id="Path-111" stroke="#979797"></path><path d="" id="Path-123" stroke="#979797"></path><path d="M162.088438,242.636399 C112.025191,260.300415 97.9449029,284.233738 119.847573,314.436368 C152.701579,359.740312 567.718549,345.956451 522.642625,276.353083 C516.247345,266.477899 495.505047,263.070254 460.415732,266.130148" id="Path-128" stroke="#279D93" stroke-width="3" stroke-linecap="round" stroke-linejoin="round" stroke-dasharray="1,10"></path><path d="M142.908083,350.900704 C87.8973773,406.532962 84.3313844,445.254705 132.210104,467.065931 C180.088825,488.877158 275.795514,477.121416 419.330173,431.798705" id="Path-129" stroke="#279D93" stroke-width="3" stroke-linecap="round" stroke-linejoin="round" stroke-dasharray="1,10"></path><path d="M287.102854,111.031141 C331.123883,121.996039 340.621755,138.661198 315.59647,161.026617 C278.058543,194.574746 238.076,216.334137 315.59647,301.103894" id="Path-130" stroke="#79CB7F" stroke-width="3" stroke-linecap="round" stroke-linejoin="round" stroke-dasharray="1,10"></path></g></g></g></g></svg> 