<?xml version="1.0" encoding="utf-8"?>
<!-- Generator: Adobe Illustrator 21.0.0, SVG Export Plug-In . SVG Version: 6.00 Build 0)  -->
<svg version="1.1" xmlns="http://www.w3.org/2000/svg" xmlns:xlink="http://www.w3.org/1999/xlink" x="0px" y="0px"
	 viewBox="0 0 356.5 41.2" style="enable-background:new 0 0 356.5 41.2;" xml:space="preserve">
<style type="text/css">
	.st0{display:none;}
	.st1{display:inline;}
	.st2{fill:#FF007D;}
	.st3{fill:#DD1C4F;}
</style>
<g id="Layer_1" class="st0">
	<title>Asset 3</title>
	<g id="Layer_2" class="st1">
		<g id="Layer_1-2">
			<path class="st2" d="M0,1.1h9v39H0V1.1z"/>
			<path class="st2" d="M17,1.1h8.9l11.4,22.5L37,19.4V1.1h9v39h-9L25.8,18l0.2,4.8v17.3h-9V1.1z"/>
			<path class="st2" d="M55,1.1h8.9l11.4,22.5L75,19.4V1.1h9v39h-9L63.8,18l0.2,4.8v17.3h-9V1.1z"/>
			<path class="st2" d="M119.2,40.1h-8.7l-1.6-7h-10l-1.7,7h-8.6l10.3-39h9.9L119.2,40.1z M106.9,27.1c-1.3-6-2.4-11.6-3.1-17h-0.1
				c-0.7,5.5-1.7,11.2-3,17H106.9z"/>
			<path class="st2" d="M119,1.1h21v9h-6v30h-9v-30h-6V1.1z"/>
			<path class="st2" d="M146,1.1h18v8h-9v8h8v8h-8v7h9v8h-18V1.1z"/>
			<path class="st2" d="M183,1.1h21v9h-6v30h-9v-30h-6V1.1z"/>
			<path class="st2" d="M209,1.1h9v15h8v-15h9v39h-9v-16h-8v16h-9V1.1z"/>
			<path class="st2" d="M243,1.1h18v8h-9v8h8v8h-8v7h9v8h-18V1.1z"/>
			<path class="st2" d="M281,41.2c-4.7,0-8.3-1.8-10.8-5.4c-2.5-3.6-3.7-8.9-3.7-15.7c0-6.3,1.2-11.2,3.7-14.8
				c2.3-3.4,6.3-5.4,10.4-5.3c4.7,0,8.4,1.8,10.9,5.3s3.8,8.6,3.8,15.2c0,6.6-1.2,11.7-3.7,15.3C289.2,39.3,285.2,41.3,281,41.2z
				 M280.7,8.9c-3.2,0-4.8,3.8-4.8,11.3c0,4.8,0.4,8.1,1.2,9.7c0.6,1.5,2,2.4,3.5,2.4c1.6,0,3.1-0.9,3.8-2.4
				c0.9-1.6,1.3-4.8,1.3-9.5C285.8,12.7,284.1,8.9,280.7,8.9L280.7,8.9z"/>
			<path class="st2" d="M302,1.1h10.5c4.2,0,7.6,1.1,10,3.2c2.5,2.2,3.9,5.4,3.7,8.7c0,1.9-0.5,3.8-1.4,5.5c-0.9,1.7-2.3,3.1-4.1,4
				l7.2,17.6h-9.5l-7.3-18H311v18h-9V1.1z M311,8.6v9.3c3.9-0.1,5.9-1.5,5.9-4.1c0.1-1.4-0.4-2.9-1.4-3.9C314.2,9,312.6,8.5,311,8.6
				z"/>
			<path class="st2" d="M326.6,1.1h9.8c2.2,5.6,3.8,10,4.8,13h0.1c1-3.1,2.6-7.5,4.7-13h10.4L346,22.5v17.6h-9V22.5L326.6,1.1z"/>
		</g>
	</g>
</g>
<g id="Layer_3">
</g>
<g id="Layer_2_1_">
	<g>
		<path class="st3" d="M3,6.2v-5h6v5H3z M3,32.2v-23h6v23H3z"/>
		<path class="st3" d="M10,32.2v-23h6v2.2c1-1,2-1.7,2.9-2.1c0.9-0.4,2.1-0.6,3.4-0.6c3,0,5.2,0.9,6.6,2.7c1.4,1.8,2.1,4.6,2.1,8.6
			v12.3h-6V20.8c0-2.7-0.3-4.6-0.9-5.7c-0.6-1.1-1.7-1.6-3.3-1.6c-1.7,0-3,0.6-3.7,1.8c-0.7,1.2-1.1,3.2-1.1,6v11H10z"/>
		<path class="st3" d="M32,32.2v-23h6v2.2c1-1,2-1.7,2.9-2.1c0.9-0.4,2.1-0.6,3.4-0.6c3,0,5.2,0.9,6.6,2.7c1.4,1.8,2.1,4.6,2.1,8.6
			v12.3h-6V20.8c0-2.7-0.3-4.6-0.9-5.7c-0.6-1.1-1.7-1.6-3.3-1.6c-1.7,0-3,0.6-3.7,1.8c-0.7,1.2-1.1,3.2-1.1,6v11H32z"/>
		<path class="st3" d="M78,9.2v23h-5v-3c-1.1,1.2-2.2,2.1-3.4,2.7c-1.2,0.6-2.6,0.8-4.2,0.8c-3.3,0-6.1-1.1-8.2-3.4
			c-2.1-2.3-3.2-5.1-3.2-8.6c0-3.5,1.1-6.4,3.3-8.7c2.2-2.3,4.9-3.4,8.3-3.4c1.7,0,3.1,0.3,4.3,0.8C71,10,72,10.9,73,12.2V9.2H78z
			 M65.7,13.8c-2,0-3.7,0.7-4.9,2c-1.3,1.3-1.9,3.1-1.9,5.3c0,2,0.6,3.7,1.9,5c1.3,1.3,2.9,1.9,5,1.9c2,0,3.7-0.6,4.9-1.9
			c1.2-1.3,1.9-3,1.9-5c0-2.1-0.6-3.8-1.9-5.1C69.3,14.5,67.7,13.8,65.7,13.8z"/>
		<polygon class="st3" points="79,32.2 79,14.2 77,14.2 77,9.2 79,9.2 79,1.2 85,1.2 85,9.2 88,9.2 88,14.2 85,14.2 85,32.2 		"/>
		<path class="st3" d="M111.4,23.2h-18c0.3,1.6,1.1,2.7,2.2,3.5c1.1,0.8,2.5,1.2,4.2,1.2c1.2,0,2.1-0.2,2.9-0.5s1.5-0.9,2.2-2.3h6.1
			c-0.7,2.6-2.1,4.4-4.2,5.8c-2.1,1.4-4.4,2.1-6.9,2.1c-3.5,0-6.5-1.2-8.9-3.5c-2.4-2.3-3.7-5.2-3.7-8.6s1.2-6.3,3.6-8.7
			c2.4-2.4,5.3-3.6,8.7-3.6c3.5,0,6.3,1.2,8.6,3.5c2.3,2.4,3.4,5.3,3.4,9C111.6,22,111.5,22.7,111.4,23.2z M93.2,18.2h12.9
			c-0.7-3.1-2.9-4.6-6.4-4.6C96.3,13.5,94.1,15.1,93.2,18.2z"/>
		<polygon class="st3" points="122,32.2 122,14.2 119,14.2 119,9.2 121,9.2 121,1.2 127,1.2 127,9.2 130,9.2 130,14.2 127,14.2 
			127,32.2 		"/>
		<path class="st3" d="M130,32.2v-31h6v9.4c1.6-1.5,3.6-2.2,5.9-2.2c6.1,0,9.1,3.6,9.1,10.7v13.1h-6V20.3c0-2.5-0.3-4.2-1-5.3
			c-0.7-1-1.8-1.6-3.3-1.6c-1.7,0-2.8,0.5-3.6,1.6c-0.7,1.1-1.1,2.8-1.1,5.3v11.8H130z"/>
		<path class="st3" d="M175.2,23.2h-18c0.3,1.6,1.1,2.7,2.2,3.5c1.1,0.8,2.5,1.2,4.2,1.2c1.2,0,2.1-0.2,2.9-0.5s1.5-0.9,2.2-2.3h6.1
			c-0.7,2.6-2.1,4.4-4.2,5.8c-2.1,1.4-4.4,2.1-6.9,2.1c-3.5,0-6.5-1.2-8.9-3.5c-2.4-2.3-3.7-5.2-3.7-8.6s1.2-6.3,3.6-8.7
			c2.4-2.4,5.3-3.6,8.7-3.6c3.5,0,6.3,1.2,8.6,3.5c2.3,2.4,3.4,5.3,3.4,9C175.4,22,175.4,22.7,175.2,23.2z M157,18.2h12.9
			c-0.7-3.1-2.9-4.6-6.4-4.6C160.1,13.5,157.9,15.1,157,18.2z"/>
		<path class="st3" d="M187.2,8.7c3.5,0,6.4,1.2,8.8,3.5c2.4,2.4,3.6,5.3,3.6,8.7c0,3.3-1.2,6.2-3.6,8.6s-5.3,3.6-8.7,3.6
			c-3.4,0-6.3-1.2-8.8-3.5s-3.6-5.2-3.6-8.6c0-3.4,1.2-6.2,3.6-8.6C180.9,9.9,183.8,8.7,187.2,8.7z M187.2,13.8
			c-1.9,0-3.5,0.7-4.8,2.1c-1.3,1.4-2,3-2,5s0.7,3.6,2,5c1.3,1.4,2.9,2.1,4.8,2.1c1.9,0,3.5-0.7,4.8-2.1c1.3-1.4,2-3,2-5
			s-0.7-3.6-2-5C190.7,14.5,189.1,13.8,187.2,13.8z"/>
		<path class="st3" d="M199,32.2v-24h6v3.3c0.5-1.1,1.2-1.8,1.9-2.2c0.7-0.4,2.8-0.1,2.8-0.1h0.3v5.4c-3.3,0-5,1.8-5,5.5v12.1H199z"
			/>
		<polygon class="st3" points="212.1,40.2 216.4,30.2 207.9,9.2 214.3,9.2 219.4,24.2 225.1,9.2 231.5,9.2 218.1,40.2 		"/>
	</g>
</g>
</svg>
