<?xml version="1.0" encoding="UTF-8" standalone="no"?>
<svg width="137px" height="38px" viewBox="0 0 137 38" version="1.1" xmlns="http://www.w3.org/2000/svg" xmlns:xlink="http://www.w3.org/1999/xlink">
    <!-- Generator: sketchtool 42 (36781) - http://www.bohemiancoding.com/sketch -->
    <title>D7949A7C-A429-43E9-A6AA-5CECF9A8C106</title>
    <desc>Created with sketchtool.</desc>
    <defs></defs>
    <g id="Home-Revised" stroke="none" stroke-width="1" fill="none" fill-rule="evenodd">
        <g id="Home---Desktop" transform="translate(-1229.000000, -5365.000000)">
            <g id="Group-24" transform="translate(1229.000000, 5365.000000)">
                <g id="Group-19">
                    <path d="M47.9781086,13.8692437 C47.9781086,12.2569188 46.7958931,11.6619608 45.0963845,11.6619608 C43.3968759,11.6619608 42.1780483,12.2569188 42.1780483,13.8692437 L42.1780483,14.219944 C42.1780483,15.1667227 42.9539879,15.5868908 43.3602638,15.7269468 L49.5666,17.7247059 C52.3006948,18.6008964 54.1844448,20.4227451 54.1844448,23.0165826 L54.1844448,25.505098 C54.1844448,28.5191036 51.931031,31.4983754 44.9853672,31.4983754 C38.0397034,31.4983754 35.7130655,28.5191036 35.7130655,25.505098 L35.7130655,23.1566387 C35.7130655,22.4216246 36.0083241,22.1056583 36.7842638,22.1056583 L40.626169,22.1056583 C41.4021086,22.1056583 41.6607552,22.4216246 41.6607552,23.1566387 L41.6607552,24.7342297 C41.6607552,26.3465546 43.1016172,26.9426331 44.9121431,26.9426331 C46.7214879,26.9426331 48.1989621,26.3465546 48.1989621,24.7342297 L48.1989621,24.0328291 C48.1989621,22.7712045 46.4262293,22.1762465 45.0231603,21.6843697 L39.7026,19.7919328 C37.81885,19.1263866 36.2669707,17.1633613 36.2669707,15.1308683 L36.2669707,13.0983754 C36.2669707,10.0843697 38.1885138,7.10509804 45.0231603,7.10509804 C51.8578069,7.10509804 53.9257983,10.0843697 53.9257983,13.0983754 L53.9257983,14.3947339 C53.9257983,15.1308683 53.6305397,15.4468347 52.8546,15.4468347 L49.0126948,15.4468347 C48.2367552,15.4468347 47.9781086,15.1308683 47.9781086,14.3947339 L47.9781086,13.8692437 Z" id="Fill-1" fill="#221F20"></path>
                    <path d="M72.2477767,7.38554622 C73.0225353,7.38554622 73.3555871,7.63092437 73.3555871,8.36705882 L73.3555871,11.1009524 C73.3555871,11.8359664 73.0225353,12.1171989 72.2477767,12.1171989 L67.5189147,12.1171989 L67.5189147,30.1664986 C67.5189147,30.9026331 67.2602681,31.2185994 66.4843284,31.2185994 L62.494794,31.2185994 C61.7188543,31.2185994 61.4224147,30.9026331 61.4224147,30.1664986 L61.4224147,12.1171989 L56.6947336,12.1171989 C55.918794,12.1171989 55.5857422,11.8359664 55.5857422,11.1009524 L55.5857422,8.36705882 C55.5857422,7.63092437 55.918794,7.38554622 56.6947336,7.38554622 L72.2477767,7.38554622 Z" id="Fill-3" fill="#221F20"></path>
                    <path d="M88.094425,14.1147339 C88.094425,12.502409 86.5425457,11.8368627 84.7320198,11.8368627 C82.921494,11.8368627 81.4074078,12.502409 81.4074078,14.1147339 L81.4074078,24.4889636 C81.4074078,26.1012885 82.921494,26.7668347 84.7320198,26.7668347 C86.5425457,26.7668347 88.094425,26.1012885 88.094425,24.4889636 L88.094425,14.1147339 Z M75.3120888,13.0984874 C75.3120888,10.0844818 77.7875371,7.10521008 84.7320198,7.10521008 C91.6776836,7.10521008 94.189744,10.0844818 94.189744,13.0984874 L94.189744,25.5052101 C94.189744,28.5192157 91.6776836,31.4984874 84.7320198,31.4984874 C77.7875371,31.4984874 75.3120888,28.5192157 75.3120888,25.5052101 L75.3120888,13.0984874 Z" id="Fill-5" fill="#221F20"></path>
                    <path d="M103.423072,24.4888515 C103.423072,26.1011765 104.937158,26.7667227 106.747684,26.7667227 C108.558209,26.7667227 110.110089,26.1011765 110.110089,24.4888515 L110.110089,8.43731092 C110.110089,7.70117647 110.405347,7.38521008 111.181287,7.38521008 L115.170822,7.38521008 C115.946761,7.38521008 116.205408,7.70117647 116.205408,8.43731092 L116.205408,25.505098 C116.205408,28.5191036 113.693347,31.4983754 106.747684,31.4983754 C99.8032009,31.4983754 97.3277526,28.5191036 97.3277526,25.505098 L97.3277526,8.43731092 C97.3277526,7.70117647 97.6230112,7.38521008 98.3989509,7.38521008 L102.388485,7.38521008 C103.164425,7.38521008 103.423072,7.70117647 103.423072,8.43731092 L103.423072,24.4888515 Z" id="Fill-7" fill="#221F20"></path>
                    <path d="M135.191954,7.38554622 C135.967894,7.38554622 136.299765,7.63092437 136.299765,8.36705882 L136.299765,11.1009524 C136.299765,11.8359664 135.967894,12.1171989 135.191954,12.1171989 L130.463092,12.1171989 L130.463092,30.1664986 C130.463092,30.9026331 130.204446,31.2185994 129.428506,31.2185994 L125.438972,31.2185994 C124.663032,31.2185994 124.366592,30.9026331 124.366592,30.1664986 L124.366592,12.1171989 L119.638911,12.1171989 C118.862972,12.1171989 118.52992,11.8359664 118.52992,11.1009524 L118.52992,8.36705882 C118.52992,7.63092437 118.862972,7.38554622 119.638911,7.38554622 L135.191954,7.38554622 Z" id="Fill-9" fill="#221F20"></path>
                    <polygon id="Fill-11" fill="#003C5B" points="9.40008966 24.5537255 32.2129517 24.5537255 23.5500638 14.0495238"></polygon>
                    <polygon id="Fill-13" fill="#0F99D6" points="5.87505603 27.1703081 14.537944 37.6745098 32.213306 24.5540616 9.40044397 24.5540616"></polygon>
                    <polygon id="Fill-15" fill="#8CC63E" points="23.5503 14.0498599 0.737437931 14.0498599 9.40032586 24.5540616"></polygon>
                    <polygon id="Fill-17" fill="#0F99D6" points="27.0752155 11.4332773 18.4123276 0.92907563 0.736965517 14.0495238 23.5498276 14.0495238"></polygon>
                </g>
            </g>
        </g>
    </g>
</svg>